<?xml version="1.0" encoding="UTF-8"?>
<svg version="1.1" xmlns="http://www.w3.org/2000/svg" width="1629" height="1629">
<path d="M0 0 C0.99 0 1.98 0 3 0 C4.53955078 2.03417969 4.53955078 2.03417969 6.1953125 4.921875 C7.13225952 6.53280029 7.13225952 6.53280029 8.08813477 8.17626953 C8.58472092 9.04762543 8.58472092 9.04762543 9.09133911 9.93658447 C10.4982203 12.40476356 11.92919375 14.85866016 13.35896301 17.31362915 C14.10806787 18.60032786 14.85592083 19.88775615 15.60258484 21.1758728 C19.49495324 27.88334865 23.52161926 34.50632802 27.5625 41.125 C28.99180038 43.47079771 30.41991341 45.81731654 31.84765625 48.1640625 C32.37166016 49.02511597 32.37166016 49.02511597 32.90625 49.90356445 C36.46347674 55.7535026 39.98365934 61.62542849 43.5 67.5 C48.36421218 75.62633039 53.26254759 83.73101703 58.18875122 91.81988525 C58.53896332 92.39494812 58.88917542 92.97001099 59.25 93.5625 C59.77592239 94.4260611 59.77592239 94.4260611 60.31246948 95.30706787 C66.54630499 105.54914509 72.67055667 115.8538607 78.77429199 126.17385864 C84.0981388 135.17024602 89.49451141 144.11322037 95 153 C100.92350056 162.56152087 106.71159322 172.19431725 112.4375 181.875 C118.44661324 192.03299614 124.49050186 202.1671559 130.625 212.25 C130.97265411 212.82155823 131.32030823 213.39311646 131.67849731 213.98199463 C134.1166783 217.98941122 136.55793709 221.99494816 139 226 C141.79385608 230.58200254 144.58621509 235.16490881 147.375 239.75 C147.89487991 240.60463333 147.89487991 240.60463333 148.42526245 241.47653198 C154.65952555 251.73194447 160.7922469 262.04615865 166.90759277 272.37280273 C173.59177956 283.65779342 180.36734696 294.88327795 187.21044922 306.07275391 C190.54279478 311.52361656 193.86785811 316.97889403 197.1875 322.4375 C197.53907166 323.01545319 197.89064331 323.59340637 198.25286865 324.18887329 C204.5717986 334.58350405 210.78259782 345.04055163 216.97616577 355.51022339 C221.73876757 363.55744399 226.54241147 371.57072954 231.5 379.5 C236.88324357 388.11007201 242.08015391 396.82342076 247.25 405.5625 C253.32177955 415.82453505 259.42719428 426.06351279 265.625 436.25 C265.9723822 436.82110504 266.3197644 437.39221008 266.67767334 437.98062134 C269.11612963 441.98849531 271.55765918 445.99449236 274 450 C276.79385608 454.58200254 279.58621509 459.16490881 282.375 463.75 C282.89487991 464.60463333 282.89487991 464.60463333 283.42526245 465.47653198 C289.65952555 475.73194447 295.7922469 486.04615865 301.90759277 496.37280273 C308.59177956 507.65779342 315.36734696 518.88327795 322.21044922 530.07275391 C325.54279474 535.52361649 328.86788352 540.97887863 332.1875 546.4375 C332.54006866 547.01711487 332.89263733 547.59672974 333.25588989 548.19390869 C339.5055897 558.47510599 345.64888217 568.81755863 351.77401733 579.17330933 C357.09795081 588.16988483 362.49440268 597.11304487 368 606 C373.92350056 615.56152087 379.71159322 625.19431725 385.4375 634.875 C391.44661324 645.03299614 397.49050186 655.1671559 403.625 665.25 C404.14648117 666.10733734 404.14648117 666.10733734 404.67849731 666.98199463 C407.1166783 670.98941122 409.55793709 674.99494816 412 679 C414.79385608 683.58200254 417.58621509 688.16490881 420.375 692.75 C420.89487991 693.60463333 420.89487991 693.60463333 421.42526245 694.47653198 C427.65952555 704.73194447 433.7922469 715.04615865 439.90759277 725.37280273 C446.59177956 736.65779342 453.36734696 747.88327795 460.21044922 759.07275391 C463.54279491 764.52361677 466.86778165 769.97894038 470.1875 775.4375 C470.71037094 776.29695221 470.71037094 776.29695221 471.24380493 777.17376709 C478.17144575 788.56820968 484.98111943 800.03185837 491.7565918 811.51733398 C492.14386444 812.17246475 492.53113708 812.82759552 492.93014526 813.50257874 C493.97853025 815.2762054 495.02509917 817.05090518 496.0715332 818.82568359 C497.39398118 821.00247414 498.79088437 823.13523661 500.24682617 825.22509766 C502 828 502 828 502 831 C500.99066406 831.54785156 499.98132812 832.09570312 498.94140625 832.66015625 C488.81865657 838.19784656 478.89046971 844.01524885 469.01342773 849.97900391 C460.91987037 854.86144799 452.78527738 859.66787925 444.625 864.4375 C431.76335682 871.95785599 418.94049055 879.54130351 406.12792969 887.14501953 C401.31754971 889.99775658 396.50287619 892.84320687 391.6875 895.6875 C390.79877197 896.2124707 389.91004395 896.73744141 388.99438477 897.27832031 C387.21942915 898.32670774 385.44444559 899.37504786 383.66943359 900.42333984 C379.11251506 903.11481413 374.55629881 905.80747679 370 908.5 C368.16666991 909.58333881 366.33333658 910.66667215 364.5 911.75 C363.13875 912.554375 363.13875 912.554375 361.75 913.375 C309.50000004 944.24999998 309.50000004 944.24999998 306.7512207 945.87426758 C304.9138054 946.96002039 303.07640311 948.04579521 301.23901367 949.1315918 C296.71823958 951.80308561 292.19725666 954.47422455 287.67578125 957.14453125 C277.61244711 963.08837188 267.55389578 969.04020729 257.5 975 C246.56202683 981.48386001 235.61796327 987.95732388 224.66943359 994.42333984 C220.11251506 997.11481413 215.55629881 999.80747679 211 1002.5 C209.16666991 1003.58333881 207.33333658 1004.66667215 205.5 1005.75 C204.13875 1006.554375 204.13875 1006.554375 202.75 1007.375 C106.49999998 1064.25000001 106.49999998 1064.25000001 103.7512207 1065.87426758 C101.9138054 1066.96002039 100.07640311 1068.04579521 98.23901367 1069.1315918 C93.71823958 1071.80308561 89.19725666 1074.47422455 84.67578125 1077.14453125 C74.61244703 1083.08837193 64.55392106 1089.04024986 54.5 1095 C47.99868479 1098.85374157 41.49711131 1102.70703911 34.9921875 1106.5546875 C33.58054321 1107.38987915 33.58054321 1107.38987915 32.14038086 1108.24194336 C30.32234855 1109.31555669 28.50288811 1110.38675599 26.68188477 1111.45532227 C22.43200284 1113.95146045 18.21095357 1116.47916126 14.03515625 1119.09765625 C12.86750732 1119.81816162 12.86750732 1119.81816162 11.67626953 1120.55322266 C10.22906473 1121.44805921 8.79046343 1122.35703065 7.36279297 1123.28271484 C2.71190324 1126.13257666 2.71190324 1126.13257666 -0.49609375 1125.53515625 C-1.73552734 1124.77525391 -1.73552734 1124.77525391 -3 1124 C-3.84606812 1123.50874634 -3.84606812 1123.50874634 -4.70922852 1123.00756836 C-7.32652362 1121.47801554 -9.896119 1119.87428664 -12.47265625 1118.27734375 C-15.90300545 1116.17755424 -19.18710337 1114.34917881 -23 1113 C-23 1112.34 -23 1111.68 -23 1111 C-23.639375 1110.773125 -24.27875 1110.54625 -24.9375 1110.3125 C-29.1408239 1108.51107547 -33.02909089 1106.26169171 -37 1104 C-38.03382813 1103.42121094 -39.06765625 1102.84242187 -40.1328125 1102.24609375 C-46.58766055 1098.60697099 -52.92349305 1094.83399525 -59.1875 1090.875 C-69.03422843 1083.60945232 -69.03422843 1083.60945232 -80 1080 C-80.59296875 1079.401875 -81.1859375 1078.80375 -81.796875 1078.1875 C-84.14479466 1075.85623225 -86.32942617 1074.53538738 -89.25 1073 C-90.21035156 1072.49210937 -91.17070313 1071.98421875 -92.16015625 1071.4609375 C-95.7591668 1069.60945202 -99.36630493 1067.78256739 -103 1066 C-103 1065.34 -103 1064.68 -103 1064 C-103.99 1064 -104.98 1064 -106 1064 C-106 1063.34 -106 1062.68 -106 1062 C-106.78375 1061.79375 -107.5675 1061.5875 -108.375 1061.375 C-120.63829787 1056.72340426 -120.63829787 1056.72340426 -123 1052 C-124.6630584 1051.32438252 -126.33094605 1050.66066719 -128 1050 C-133.07004192 1047.45938297 -137.85864494 1044.47116425 -142.63745117 1041.42919922 C-150.5404933 1036.40144513 -158.52583638 1031.99874596 -167 1028 C-167 1027.34 -167 1026.68 -167 1026 C-167.680625 1025.7525 -168.36125 1025.505 -169.0625 1025.25 C-175.97584151 1022.30815255 -182.34502424 1018.00634525 -188.74609375 1014.09179688 C-191.47582187 1012.43901017 -193.96180424 1011.01273192 -197 1010 C-197 1009.34 -197 1008.68 -197 1008 C-199.31 1007.34 -201.62 1006.68 -204 1006 C-204 1005.34 -204 1004.68 -204 1004 C-204.87269531 1003.74347656 -205.74539063 1003.48695313 -206.64453125 1003.22265625 C-210.05455965 1001.98011971 -212.67710398 1000.44862928 -215.6875 998.4375 C-218.51813309 996.5543264 -220.76984475 995.07671842 -224 994 C-224 993.34 -224 992.68 -224 992 C-224.78375 991.79375 -225.5675 991.5875 -226.375 991.375 C-230.28942222 989.89021916 -233.5353183 987.97100426 -237.0859375 985.77734375 C-241.49879178 983.08585756 -246.00724866 980.5686552 -250.5078125 978.02734375 C-254.40685767 975.79290373 -258.19806609 973.39463399 -262 971 C-265.11922233 969.05306488 -268.24569739 967.11818176 -271.375 965.1875 C-272.58349609 964.43436523 -272.58349609 964.43436523 -273.81640625 963.66601562 C-274.58597656 963.19228516 -275.35554687 962.71855469 -276.1484375 962.23046875 C-276.84114746 961.80145264 -277.53385742 961.37243652 -278.24755859 960.93041992 C-279.96372453 959.8436889 -279.96372453 959.8436889 -282 960 C-282 959.34 -282 958.68 -282 958 C-282.721875 957.731875 -283.44375 957.46375 -284.1875 957.1875 C-287 956 -287 956 -289.5625 954.4375 C-291.87540056 952.91803109 -291.87540056 952.91803109 -294.25 952.4375 C-294.8275 952.293125 -295.405 952.14875 -296 952 C-296.33 951.34 -296.66 950.68 -297 950 C-299.11015954 948.87293294 -299.11015954 948.87293294 -301.5625 947.875 C-302.38878906 947.52179687 -303.21507812 947.16859375 -304.06640625 946.8046875 C-304.70449219 946.53914062 -305.34257812 946.27359375 -306 946 C-306 945.34 -306 944.68 -306 944 C-306.99 944 -307.98 944 -309 944 C-309 943.34 -309 942.68 -309 942 C-309.78375 941.79375 -310.5675 941.5875 -311.375 941.375 C-323.63829787 936.72340426 -323.63829787 936.72340426 -326 932 C-327.6630584 931.32438252 -329.33094605 930.66066719 -331 930 C-337.58696617 926.69924654 -343.7546173 922.66497298 -349.97583008 918.7355957 C-354.75925731 915.73071581 -359.61991019 912.95236809 -364.609375 910.30078125 C-367.47196913 908.74319327 -370.21756639 907.04276669 -372.953125 905.2734375 C-375.29452857 903.81676276 -377.68923899 902.46292187 -380.08691406 901.1015625 C-384.01676237 898.8387402 -387.87759605 896.45756112 -391.74609375 894.09179688 C-394.47582187 892.43901017 -396.96180424 891.01273192 -400 890 C-400 889.34 -400 888.68 -400 888 C-402.31 887.34 -404.62 886.68 -407 886 C-407 885.34 -407 884.68 -407 884 C-407.83402344 883.76667969 -408.66804688 883.53335938 -409.52734375 883.29296875 C-413.61237779 881.77199432 -416.9301627 879.68720074 -420.5625 877.3125 C-426.6185748 873.43135145 -432.73650485 869.93141052 -439.10546875 866.5859375 C-442.52519989 864.71223866 -445.70412377 862.59427589 -448.9140625 860.38671875 C-451.6387956 858.57533252 -454.47690099 857.03883788 -457.3515625 855.48046875 C-461.44734962 853.19093583 -465.44672959 850.74352276 -469.45996094 848.31298828 C-473.7285046 845.73647018 -478.04057607 843.28217093 -482.4609375 840.97265625 C-484 840 -484 840 -485 838 C-486.65697379 837.30959426 -488.3255761 836.6469365 -490 836 C-490.845625 835.484375 -491.69125 834.96875 -492.5625 834.4375 C-494.87048808 832.90717065 -494.87048808 832.90717065 -497.25 832.5 C-497.8275 832.335 -498.405 832.17 -499 832 C-500 829 -500 829 -498.82275391 826.53344727 C-498.21351074 825.55432373 -497.60426758 824.5752002 -496.9765625 823.56640625 C-496.29416504 822.45749023 -495.61176758 821.34857422 -494.90869141 820.20605469 C-494.14750418 818.99150936 -493.38627244 817.77699192 -492.625 816.5625 C-491.84313532 815.29788177 -491.06239058 814.03257051 -490.28271484 812.76660156 C-488.66168568 810.13669487 -487.03586769 807.50984697 -485.40625 804.88525391 C-481.77451545 799.02995286 -478.19939524 793.14045099 -474.625 787.25 C-473.92408438 786.09724198 -473.22315654 784.94449139 -472.5222168 783.79174805 C-466.68385686 774.17914725 -460.95070719 764.50539439 -455.22515869 754.82531738 C-449.27456942 744.76978579 -443.20976841 734.79527049 -437.05615234 724.86230469 C-431.79163671 716.3412933 -426.66149197 707.74576968 -421.5625 699.125 C-415.55338676 688.96700386 -409.50949814 678.8328441 -403.375 668.75 C-402.85351883 667.89266266 -402.85351883 667.89266266 -402.32150269 667.01800537 C-399.53662426 662.44075371 -396.7475642 657.86605443 -393.95825195 653.29150391 C-391.51182881 649.27888858 -389.06716557 645.26520814 -386.625 641.25 C-386.27841339 640.68024445 -385.93182678 640.11048889 -385.57473755 639.52346802 C-379.34047445 629.26805553 -373.2077531 618.95384135 -367.09240723 608.62719727 C-360.40822044 597.34220658 -353.63265304 586.11672205 -346.78955078 574.92724609 C-343.45720526 569.47638351 -340.13211648 564.02112137 -336.8125 558.5625 C-336.45993134 557.98288513 -336.10736267 557.40327026 -335.74411011 556.80609131 C-329.4944103 546.52489401 -323.35111783 536.18244137 -317.22598267 525.82669067 C-311.27511683 515.77070217 -305.21004965 505.79572445 -299.05615234 495.86230469 C-293.79163671 487.3412933 -288.66149197 478.74576968 -283.5625 470.125 C-277.55338676 459.96700386 -271.50949814 449.8328441 -265.375 439.75 C-265.02734589 439.17844177 -264.67969177 438.60688354 -264.32150269 438.01800537 C-261.53662426 433.44075371 -258.7475642 428.86605443 -255.95825195 424.29150391 C-253.51182881 420.27888858 -251.06716557 416.26520814 -248.625 412.25 C-248.10512009 411.39536667 -248.10512009 411.39536667 -247.57473755 410.52346802 C-241.34047445 400.26805553 -235.2077531 389.95384135 -229.09240723 379.62719727 C-222.40822044 368.34220658 -215.63265304 357.11672205 -208.78955078 345.92724609 C-205.45720522 340.47638344 -202.13214189 335.02110597 -198.8125 329.5625 C-198.46092834 328.98454681 -198.10935669 328.40659363 -197.74713135 327.81112671 C-191.4282014 317.41649595 -185.21740218 306.95944837 -179.02383423 296.48977661 C-173.77472842 287.62052526 -168.44634129 278.81186054 -162.98242188 270.07275391 C-158.12027955 262.26381256 -153.43341532 254.35431935 -148.75 246.4375 C-142.67822045 236.17546495 -136.57280572 225.93648721 -130.375 215.75 C-129.8539267 214.89334244 -129.8539267 214.89334244 -129.32232666 214.01937866 C-126.53717324 209.44166942 -123.74784212 204.86651023 -120.95825195 200.29150391 C-118.51182881 196.27888858 -116.06716557 192.26520814 -113.625 188.25 C-113.27841339 187.68024445 -112.93182678 187.11048889 -112.57473755 186.52346802 C-106.34047445 176.26805553 -100.2077531 165.95384135 -94.09240723 155.62719727 C-87.40822044 144.34220658 -80.63265304 133.11672205 -73.78955078 121.92724609 C-70.45720526 116.47638351 -67.13211648 111.02112137 -63.8125 105.5625 C-63.45993134 104.98288513 -63.10736267 104.40327026 -62.74411011 103.80609131 C-56.4944103 93.52489401 -50.35111783 83.18244137 -44.22598267 72.82669067 C-38.28684246 62.79051656 -32.23681577 52.83320671 -26.09130859 42.92163086 C-19.59491244 32.41304342 -13.30449724 21.78430783 -7.02929688 11.14257812 C-6.43688454 10.13953392 -6.43688454 10.13953392 -5.83250427 9.1162262 C-5.08751225 7.85446277 -4.34384979 6.59191312 -3.60169983 5.32847595 C-1.11188799 1.11188799 -1.11188799 1.11188799 0 0 Z " fill="#343434" transform="translate(813,0)"/>
<path d="M0 0 C7.37215664 3.97242747 14.65243908 8.07474452 21.875 12.3125 C23.4065271 13.20884155 23.4065271 13.20884155 24.96899414 14.12329102 C27.16576996 15.40930126 29.36212866 16.69602427 31.55810547 17.98339844 C34.4786417 19.69453685 37.40069203 21.40302222 40.32373047 23.10987854 C53.44398454 30.77182567 66.52513684 38.49121036 79.54003906 46.33129883 C90.58683262 52.97534665 101.71783201 59.47392721 112.84532166 65.98144531 C121.03449203 70.77252426 129.19813062 75.60677744 137.36279297 80.43945312 C141.90719099 83.12856553 146.45372726 85.8140587 151 88.5 C152.83334305 89.58331689 154.66667639 90.66665021 156.5 91.75 C157.4075 92.28625 158.315 92.8225 159.25 93.375 C250 147 340.75 200.625 456.25366211 268.87719727 C458.07474948 269.95327227 459.89587536 271.0292821 461.71704102 272.10522461 C466.48806635 274.92405873 471.2582848 277.74424638 476.02734375 280.56640625 C477.01669922 281.15164063 478.00605469 281.736875 479.02539062 282.33984375 C480.91105647 283.45530805 482.79648842 284.57116787 484.68164062 285.6875 C486.36298735 286.68188565 488.04691875 287.67191917 489.73388672 288.65673828 C491.17287763 289.50971479 492.59852895 290.38594546 494.00439453 291.29248047 C497.41603556 293.48155186 497.41603556 293.48155186 501.34765625 293.79418945 C504.4446014 292.86687331 506.85221917 291.53036318 509.62109375 289.859375 C511.25377197 288.88206421 511.25377197 288.88206421 512.91943359 287.88500977 C514.09215366 287.17339137 515.26484166 286.46172011 516.4375 285.75 C517.65920033 285.01606671 518.88137459 284.28292179 520.10400391 283.55053711 C522.5765907 282.06853559 525.04716176 280.58326426 527.51611328 279.09521484 C532.28588545 276.22300122 537.07913794 273.39087523 541.875 270.5625 C542.74592285 270.04768066 543.6168457 269.53286133 544.51416016 269.00244141 C549.64698662 265.97012262 554.78745905 262.9510765 559.93359375 259.94140625 C562.39328205 258.50269455 564.8529409 257.06393257 567.3125 255.625 C567.92929626 255.26415314 568.54609253 254.90330627 569.18157959 254.53152466 C577.65288583 249.57316677 586.09191513 244.56511137 594.5 239.5 C605.36803522 232.95299083 616.30215754 226.52435555 627.25405884 220.11920166 C627.85471161 219.76791199 628.45536438 219.41662231 629.07421875 219.0546875 C629.66915131 218.70678162 630.26408386 218.35887573 630.87704468 218.00042725 C636.2612875 214.85033286 641.63240517 211.67835222 647 208.5 C652.96663009 204.96693676 658.93993333 201.44572896 664.92578125 197.9453125 C665.52643402 197.59402283 666.12708679 197.24273315 666.74594116 196.88079834 C667.35313995 196.52568176 667.96033875 196.17056519 668.5859375 195.8046875 C678.92438869 189.75807889 689.24062855 183.68034425 699.5 177.5 C710.36803522 170.95299083 721.30215754 164.52435555 732.25405884 158.11920166 C732.85471161 157.76791199 733.45536438 157.41662231 734.07421875 157.0546875 C734.66915131 156.70678162 735.26408386 156.35887573 735.87704468 156.00042725 C741.2612875 152.85033286 746.63240517 149.67835222 752 146.5 C757.96663009 142.96693676 763.93993333 139.44572896 769.92578125 135.9453125 C770.52643402 135.59402283 771.12708679 135.24273315 771.74594116 134.88079834 C772.35313995 134.52568176 772.96033875 134.17056519 773.5859375 133.8046875 C783.92438869 127.75807889 794.24062855 121.68034425 804.5 115.5 C815.36803522 108.95299083 826.30215754 102.52435555 837.25405884 96.11920166 C837.85471161 95.76791199 838.45536438 95.41662231 839.07421875 95.0546875 C839.66915131 94.70678162 840.26408386 94.35887573 840.87704468 94.00042725 C846.2612875 90.85033286 851.63240517 87.67835222 857 84.5 C862.96663009 80.96693676 868.93993333 77.44572896 874.92578125 73.9453125 C875.52643402 73.59402283 876.12708679 73.24273315 876.74594116 72.88079834 C877.35313995 72.52568176 877.96033875 72.17056519 878.5859375 71.8046875 C888.92438869 65.75807889 899.24062855 59.68034425 909.5 53.5 C918.52650837 48.06234435 927.5920447 42.69615173 936.6875 37.375 C937.30332947 37.0147171 937.91915894 36.6544342 938.5536499 36.28323364 C940.9916985 34.85703654 943.42979007 33.43091295 945.86798096 32.00495911 C954.93121526 26.70256124 963.96578193 21.35163083 973 16 C973.85670288 15.49255249 973.85670288 15.49255249 974.73071289 14.97485352 C983.15484196 9.98497864 991.57785604 4.99322477 1000 0 C1000.33 0.99 1000.66 1.98 1001 3 C1000.1105957 4.72314453 1000.1105957 4.72314453 998.67578125 6.6328125 C998.14791016 7.34759766 997.62003906 8.06238281 997.07617188 8.79882812 C996.49416016 9.56646484 995.91214844 10.33410156 995.3125 11.125 C994.0993236 12.76232711 992.88710494 14.40036424 991.67578125 16.0390625 C990.74886475 17.28478027 990.74886475 17.28478027 989.80322266 18.55566406 C987.14251971 22.16234669 984.56957766 25.82812579 982 29.5 C977.92104719 35.30489627 973.79130899 41.0700211 969.625 46.8125 C964.41362817 53.99844437 959.30724732 61.25277253 954.2331543 68.53613281 C950.3585303 74.08773664 946.42058329 79.58831682 942.4375 85.0625 C937.97411462 91.19948557 933.6367868 97.40892978 929.375 103.6875 C925.06616959 110.03455099 920.65629302 116.28161058 916.08886719 122.44482422 C912.18113666 127.72435747 908.39279734 133.08245089 904.61865234 138.45800781 C900.98047079 143.63205092 897.28230647 148.75942932 893.5625 153.875 C889.05887862 160.07522799 884.67892801 166.34715397 880.375 172.6875 C876.06671551 179.0337122 871.65663267 185.27931683 867.09106445 191.44262695 C861.59625797 198.86882063 856.30852251 206.44015641 851 214 C844.9264198 222.64209887 838.82655845 231.26162548 832.625 239.8125 C827.41316317 246.99938158 822.30692209 254.25502775 817.23095703 261.53833008 C812.85145249 267.81149404 808.38977654 274.02040505 803.89453125 280.2109375 C799.2647985 286.6006413 794.74304594 293.06257904 790.23266602 299.53686523 C786.35817799 305.088202 782.42051683 310.5886333 778.4375 316.0625 C773.98968443 322.17580311 769.67654457 328.36528733 765.4375 334.625 C760.92771166 341.28117989 756.24402438 347.75913755 751.37646484 354.15722656 C747.48978229 359.28739141 743.82525013 364.54295748 740.20996094 369.86669922 C736.77166166 374.91631836 733.22158851 379.87462896 729.625 384.8125 C725.09806838 391.03240858 720.69432303 397.32174293 716.375 403.6875 C712.06629601 410.03463392 707.65628941 416.28161545 703.08886719 422.44482422 C699.18113666 427.72435747 695.39279734 433.08245089 691.61865234 438.45800781 C687.98047079 443.63205092 684.28230647 448.75942932 680.5625 453.875 C676.05887862 460.07522799 671.67892801 466.34715397 667.375 472.6875 C663.06671551 479.0337122 658.65663267 485.27931683 654.09106445 491.44262695 C648.59625797 498.86882063 643.30852251 506.44015641 638 514 C631.9264198 522.64209887 625.82655845 531.26162548 619.625 539.8125 C614.41316317 546.99938158 609.30692209 554.25502775 604.23095703 561.53833008 C599.85145249 567.81149404 595.38977654 574.02040505 590.89453125 580.2109375 C586.8695304 585.76602342 582.92227619 591.37200988 579 597 C574.03561013 604.12329672 568.9961115 611.18540362 563.89453125 618.2109375 C559.2647985 624.6006413 554.74304594 631.06257904 550.23266602 637.53686523 C546.35817632 643.08820441 542.42041054 648.58855424 538.4375 654.0625 C533.40598189 660.98064652 528.55149629 668.00481585 523.74951172 675.08374023 C519.85386617 680.80632147 515.8195638 686.40820815 511.69555664 691.96777344 C508.30710291 696.54488026 505.07824242 701.20729345 502 706 C498.44855858 705.39710154 498.06917802 705.08765629 495.66015625 702.03515625 C494.78377047 700.71786326 493.91865612 699.3930298 493.0625 698.0625 C492.08418525 696.58971275 491.10362967 695.11841207 490.12109375 693.6484375 C489.61046387 692.88112305 489.09983398 692.11380859 488.57373047 691.32324219 C486.01467334 687.54539737 483.31814571 683.87033719 480.625 680.1875 C476.09680016 673.96854777 471.69429051 667.67820915 467.375 661.3125 C463.06685846 654.96619462 458.65662846 648.72067749 454.09106445 642.55737305 C448.59625797 635.13117937 443.30852251 627.55984359 438 620 C431.9264198 611.35790113 425.82655845 602.73837452 419.625 594.1875 C414.41376776 587.00145213 409.30724949 579.74723058 404.2331543 572.46386719 C400.3585303 566.91226336 396.42058329 561.41168318 392.4375 555.9375 C387.97411462 549.80051443 383.6367868 543.59107022 379.375 537.3125 C375.0667321 530.9662776 370.65663202 524.72068231 366.09106445 518.55737305 C360.07177233 510.42234059 354.29349101 502.11622547 348.47949219 493.83398438 C343.19990491 486.31693857 337.89875788 478.82397051 332.4375 471.4375 C328.24872998 465.76998875 324.22679179 460.00603395 320.25878906 454.18237305 C316.29035805 448.37704161 312.18094046 442.6813571 308.04736328 436.99291992 C303.36506128 430.53668492 298.79210945 424.00796585 294.23339844 417.46411133 C290.35860097 411.9124915 286.42064997 406.41177483 282.4375 400.9375 C277.97411462 394.80051443 273.6367868 388.59107022 269.375 382.3125 C265.0667321 375.9662776 260.65663202 369.72068231 256.09106445 363.55737305 C250.59625797 356.13117937 245.30852251 348.55984359 240 341 C238.02255116 338.18628753 236.0434093 335.37377732 234.0625 332.5625 C233.32290039 331.51255859 233.32290039 331.51255859 232.56835938 330.44140625 C228.9417973 325.30495257 225.25882038 320.21138485 221.5625 315.125 C217.0590758 308.92462359 212.67893295 302.65285332 208.375 296.3125 C204.06821457 289.96849594 199.66052725 283.72435713 195.09545898 277.56396484 C191.12546333 272.2000404 187.26928468 266.76054913 183.4362793 261.2980957 C180.98707196 257.80905088 178.52484753 254.33186133 176.01953125 250.8828125 C175.55232666 250.23771729 175.08512207 249.59262207 174.60375977 248.92797852 C173.72140874 247.71210039 172.83534991 246.49890171 171.94506836 245.28881836 C169 241.22205143 169 241.22205143 169 239 C168.34 239 167.68 239 167 239 C165.73046875 237.2265625 165.73046875 237.2265625 164.1875 234.625 C160.94164638 229.37237381 157.44879509 224.364472 153.8125 219.375 C149.48060647 213.42331707 145.17518646 207.45671879 140.9375 201.4375 C140.44604492 200.73987549 139.95458984 200.04225098 139.44824219 199.32348633 C137.4710277 196.51507579 135.49581115 193.70526272 133.52050781 190.89550781 C127.93731296 182.95684513 122.32310459 175.04419888 116.625 167.1875 C111.41376776 160.00145213 106.30724949 152.74723058 101.2331543 145.46386719 C97.3585303 139.91226336 93.42058329 134.41168318 89.4375 128.9375 C84.97411462 122.80051443 80.6367868 116.59107022 76.375 110.3125 C72.06973067 103.9706946 67.66442752 97.72802451 63.09985352 91.57055664 C59.06793278 86.12449307 55.1617229 80.59458085 51.26708984 75.04980469 C48.56953958 71.21270393 45.84502154 67.40127923 43.0625 63.625 C39.48732517 58.74436714 36.0875889 53.75308647 32.6875 48.75 C28.28056845 42.2695913 23.77995834 35.88230107 19.11206055 29.58764648 C14.9739941 23.99932664 10.96396571 18.3245852 6.97045898 12.63232422 C6.49552002 11.95572754 6.02058105 11.27913086 5.53125 10.58203125 C5.09039062 9.95119629 4.64953125 9.32036133 4.1953125 8.67041016 C3.22529925 7.31484833 2.19861571 5.99996749 1.15625 4.69921875 C0 3 0 3 0 0 Z " fill="#3C3C3B" transform="translate(314,923)"/>
<path d="M0 0 C0.33 0 0.66 0 1 0 C1 198.99 1 397.98 1 603 C-8.57 607.29 -18.14 611.58 -28 616 C-33.03065547 618.29479709 -38.06043265 620.58977576 -43.08306885 622.90176392 C-55.55342954 628.63937568 -68.0681789 634.26694595 -80.625 639.8125 C-94.53010933 645.95415649 -108.33424742 652.29595103 -122.11212158 658.71743774 C-134.74964311 664.60457099 -147.44191216 670.34581293 -160.19873047 675.96923828 C-172.36667725 681.3373708 -184.44574526 686.88158685 -196.5 692.5 C-210.00736029 698.7956966 -223.56246463 704.95813731 -237.19873047 710.96923828 C-249.36667725 716.3373708 -261.44574526 721.88158685 -273.5 727.5 C-287.00736029 733.7956966 -300.56246463 739.95813731 -314.19873047 745.96923828 C-326.36667725 751.3373708 -338.44574526 756.88158685 -350.5 762.5 C-364.00736029 768.7956966 -377.56246463 774.95813731 -391.19873047 780.96923828 C-404.23683453 786.72125804 -417.16949293 792.68481121 -430.08557129 798.70516968 C-444.03870103 805.2054209 -458.05782257 811.54030088 -472.14257812 817.75 C-472.83770508 818.05666595 -473.53283203 818.36333191 -474.24902344 818.67929077 C-475.59293985 819.2717203 -476.93732621 819.86308514 -478.28222656 820.45327759 C-481.48525131 821.86413132 -484.66780532 823.30551095 -487.82617188 824.81396484 C-489.00244141 825.37422363 -490.17871094 825.93448242 -491.390625 826.51171875 C-492.42735352 827.01533936 -493.46408203 827.51895996 -494.53222656 828.0378418 C-495.3465918 828.355354 -496.16095703 828.67286621 -497 829 C-497.66 828.67 -498.32 828.34 -499 828 C-482.28711254 799.28945979 -482.28711254 799.28945979 -477.125 791.1875 C-472.2200444 783.48017474 -467.58837035 775.61194024 -462.9375 767.75 C-456.80328533 757.38379165 -450.63611647 747.04012473 -444.375 736.75 C-444.02788971 736.17934814 -443.68077942 735.60869629 -443.32315063 735.02075195 C-440.53772222 730.44258514 -437.74812004 725.86696603 -434.95825195 721.29150391 C-432.51182879 717.27888853 -430.06724706 713.26515859 -427.625 709.25 C-427.27774872 708.67924744 -426.93049744 708.10849487 -426.57272339 707.52044678 C-420.37935791 697.33433678 -414.29407597 687.08592153 -408.22515869 676.82531738 C-402.27456942 666.76978579 -396.20976841 656.79527049 -390.05615234 646.86230469 C-384.79163671 638.3412933 -379.66149197 629.74576968 -374.5625 621.125 C-368.55338676 610.96700386 -362.50949814 600.8328441 -356.375 590.75 C-356.02734589 590.17844177 -355.67969177 589.60688354 -355.32150269 589.01800537 C-352.53662426 584.44075371 -349.7475642 579.86605443 -346.95825195 575.29150391 C-344.51182881 571.27888858 -342.06716557 567.26520814 -339.625 563.25 C-339.10512009 562.39536667 -339.10512009 562.39536667 -338.57473755 561.52346802 C-332.34047445 551.26805553 -326.2077531 540.95384135 -320.09240723 530.62719727 C-313.40822044 519.34220658 -306.63265304 508.11672205 -299.78955078 496.92724609 C-296.45720522 491.47638344 -293.13214189 486.02110597 -289.8125 480.5625 C-289.46092834 479.98454681 -289.10935669 479.40659363 -288.74713135 478.81112671 C-282.4282014 468.41649595 -276.21740218 457.95944837 -270.02383423 447.48977661 C-264.77472842 438.62052526 -259.44634129 429.81186054 -253.98242188 421.07275391 C-249.12027955 413.26381256 -244.43341532 405.35431935 -239.75 397.4375 C-233.67822045 387.17546495 -227.57280572 376.93648721 -221.375 366.75 C-221.0276178 366.17889496 -220.6802356 365.60778992 -220.32232666 365.01937866 C-217.53717324 360.44166942 -214.74784212 355.86651023 -211.95825195 351.29150391 C-209.51182881 347.27888858 -207.06716557 343.26520814 -204.625 339.25 C-204.27841339 338.68024445 -203.93182678 338.11048889 -203.57473755 337.52346802 C-197.34047445 327.26805553 -191.2077531 316.95384135 -185.09240723 306.62719727 C-178.40822044 295.34220658 -171.63265304 284.11672205 -164.78955078 272.92724609 C-161.45720526 267.47638351 -158.13211648 262.02112137 -154.8125 256.5625 C-154.45993134 255.98288513 -154.10736267 255.40327026 -153.74411011 254.80609131 C-147.4944103 244.52489401 -141.35111783 234.18244137 -135.22598267 223.82669067 C-129.27511683 213.77070217 -123.21004965 203.79572445 -117.05615234 193.86230469 C-111.79163671 185.3412933 -106.66149197 176.74576968 -101.5625 168.125 C-95.55338676 157.96700386 -89.50949814 147.8328441 -83.375 137.75 C-83.02734589 137.17844177 -82.67969177 136.60688354 -82.32150269 136.01800537 C-79.53662426 131.44075371 -76.7475642 126.86605443 -73.95825195 122.29150391 C-71.51182881 118.27888858 -69.06716557 114.26520814 -66.625 110.25 C-66.27841339 109.68024445 -65.93182678 109.11048889 -65.57473755 108.52346802 C-59.34047445 98.26805553 -53.2077531 87.95384135 -47.09240723 77.62719727 C-40.42458371 66.36983289 -33.66511831 55.17228413 -26.83789062 44.01074219 C-24.76642991 40.61737695 -22.70253229 37.21948801 -20.640625 33.8203125 C-20.26563873 33.20216675 -19.89065247 32.584021 -19.50430298 31.94714355 C-18.02469384 29.50778473 -16.54526803 27.06831504 -15.06634521 24.62854004 C-13.38797491 21.86001843 -11.70762984 19.09272749 -10.02441406 16.32714844 C-8.59537483 13.97850557 -7.17066223 11.62751878 -5.74902344 9.27441406 C-5.0177617 8.07085198 -4.28632195 6.86739804 -3.5546875 5.6640625 C-2.89710449 4.57818848 -2.23952148 3.49231445 -1.56201172 2.37353516 C-1.04654785 1.59026855 -0.53108398 0.80700195 0 0 Z " fill="#8B8B8B" transform="translate(813,0)"/>
<path d="M0 0 C0 172.59 0 345.18 0 523 C-5.99447725 519.73028514 -11.5941774 516.66941528 -17.2734375 513.03515625 C-19.42401019 511.74578575 -21.63138573 510.81421116 -24 510 C-24 509.34 -24 508.68 -24 508 C-24.639375 507.773125 -25.27875 507.54625 -25.9375 507.3125 C-30.1408239 505.51107547 -34.02909089 503.26169171 -38 501 C-39.03382813 500.42121094 -40.06765625 499.84242188 -41.1328125 499.24609375 C-47.58766055 495.60697099 -53.92349305 491.83399525 -60.1875 487.875 C-70.03422843 480.60945232 -70.03422843 480.60945232 -81 477 C-81.59296875 476.401875 -82.1859375 475.80375 -82.796875 475.1875 C-85.14479466 472.85623225 -87.32942617 471.53538738 -90.25 470 C-91.21035156 469.49210937 -92.17070313 468.98421875 -93.16015625 468.4609375 C-96.7591668 466.60945202 -100.36630493 464.78256739 -104 463 C-104 462.34 -104 461.68 -104 461 C-104.99 461 -105.98 461 -107 461 C-107 460.34 -107 459.68 -107 459 C-108.175625 458.690625 -108.175625 458.690625 -109.375 458.375 C-121.63829787 453.72340426 -121.63829787 453.72340426 -124 449 C-125.6630584 448.32438252 -127.33094605 447.66066719 -129 447 C-134.07004192 444.45938297 -138.85864494 441.47116425 -143.63745117 438.42919922 C-151.5404933 433.40144513 -159.52583638 428.99874596 -168 425 C-168 424.34 -168 423.68 -168 423 C-168.680625 422.7525 -169.36125 422.505 -170.0625 422.25 C-176.97584151 419.30815255 -183.34502424 415.00634525 -189.74609375 411.09179688 C-192.47582187 409.43901017 -194.96180424 408.01273192 -198 407 C-198 406.34 -198 405.68 -198 405 C-200.31 404.34 -202.62 403.68 -205 403 C-205 402.34 -205 401.68 -205 401 C-205.87269531 400.74347656 -206.74539063 400.48695313 -207.64453125 400.22265625 C-211.05455965 398.98011971 -213.67710398 397.44862928 -216.6875 395.4375 C-219.51813309 393.5543264 -221.76984475 392.07671842 -225 391 C-225 390.34 -225 389.68 -225 389 C-226.175625 388.690625 -226.175625 388.690625 -227.375 388.375 C-231.28942222 386.89021916 -234.5353183 384.97100426 -238.0859375 382.77734375 C-242.49879178 380.08585756 -247.00724866 377.5686552 -251.5078125 375.02734375 C-255.40685767 372.79290373 -259.19806609 370.39463399 -263 368 C-266.11922233 366.05306488 -269.24569739 364.11818176 -272.375 362.1875 C-273.58349609 361.43436523 -273.58349609 361.43436523 -274.81640625 360.66601562 C-275.58597656 360.19228516 -276.35554687 359.71855469 -277.1484375 359.23046875 C-277.84114746 358.80145264 -278.53385742 358.37243652 -279.24755859 357.93041992 C-280.96372453 356.8436889 -280.96372453 356.8436889 -283 357 C-283 356.34 -283 355.68 -283 355 C-283.721875 354.731875 -284.44375 354.46375 -285.1875 354.1875 C-288 353 -288 353 -290.5625 351.4375 C-292.87540056 349.91803109 -292.87540056 349.91803109 -295.25 349.4375 C-295.8275 349.293125 -296.405 349.14875 -297 349 C-297.33 348.34 -297.66 347.68 -298 347 C-300.11015954 345.87293294 -300.11015954 345.87293294 -302.5625 344.875 C-303.38878906 344.52179688 -304.21507812 344.16859375 -305.06640625 343.8046875 C-305.70449219 343.53914063 -306.34257812 343.27359375 -307 343 C-307 342.34 -307 341.68 -307 341 C-307.99 341 -308.98 341 -310 341 C-310 340.34 -310 339.68 -310 339 C-311.175625 338.690625 -311.175625 338.690625 -312.375 338.375 C-324.63829787 333.72340426 -324.63829787 333.72340426 -327 329 C-328.6630584 328.32438252 -330.33094605 327.66066719 -332 327 C-338.58696617 323.69924654 -344.7546173 319.66497298 -350.97583008 315.7355957 C-355.75925731 312.73071581 -360.61991019 309.95236809 -365.609375 307.30078125 C-368.47196913 305.74319327 -371.21756639 304.04276669 -373.953125 302.2734375 C-376.29452857 300.81676276 -378.68923899 299.46292187 -381.08691406 298.1015625 C-385.01676237 295.8387402 -388.87759605 293.45756112 -392.74609375 291.09179688 C-395.47582187 289.43901017 -397.96180424 288.01273192 -401 287 C-401 286.34 -401 285.68 -401 285 C-403.31 284.34 -405.62 283.68 -408 283 C-408 282.34 -408 281.68 -408 281 C-408.83402344 280.76667969 -409.66804688 280.53335937 -410.52734375 280.29296875 C-414.61237779 278.77199432 -417.9301627 276.68720074 -421.5625 274.3125 C-427.6185748 270.43135145 -433.73650485 266.93141052 -440.10546875 263.5859375 C-443.52519989 261.71223866 -446.70412377 259.59427589 -449.9140625 257.38671875 C-452.6387956 255.57533252 -455.47690099 254.03883788 -458.3515625 252.48046875 C-462.44734962 250.19093583 -466.44672959 247.74352276 -470.45996094 245.31298828 C-474.7285046 242.73647018 -479.04057607 240.28217093 -483.4609375 237.97265625 C-485 237 -485 237 -486 235 C-487.65697379 234.30959426 -489.3255761 233.6469365 -491 233 C-491.845625 232.484375 -492.69125 231.96875 -493.5625 231.4375 C-495.87048808 229.90717065 -495.87048808 229.90717065 -498.25 229.5 C-498.8275 229.335 -499.405 229.17 -500 229 C-500.33 228.01 -500.66 227.02 -501 226 C-499.93652344 225.55914063 -498.87304688 225.11828125 -497.77734375 224.6640625 C-485.53457423 219.5268381 -473.47835707 214.02708517 -461.4375 208.4375 C-448.71519991 202.53160761 -435.9591942 196.72113092 -423.125 191.0625 C-409.30119684 184.96541181 -395.5808639 178.66464276 -381.88677979 172.28201294 C-369.24962286 166.39506974 -356.55771189 160.65402134 -343.80126953 155.03076172 C-331.63332275 149.6626292 -319.55425474 144.11841315 -307.5 138.5 C-293.99263971 132.2043034 -280.43753537 126.04186269 -266.80126953 120.03076172 C-254.63332275 114.6626292 -242.55425474 109.11841315 -230.5 103.5 C-216.99263971 97.2043034 -203.43753537 91.04186269 -189.80126953 85.03076172 C-177.63332275 79.6626292 -165.55425474 74.11841315 -153.5 68.5 C-139.99263971 62.2043034 -126.43753537 56.04186269 -112.80126953 50.03076172 C-99.76180075 44.27813988 -86.82757458 38.31436631 -73.91040039 32.29281616 C-60.07747708 25.84769347 -46.17997078 19.56584486 -32.20898438 13.42578125 C-30.83714983 12.82181841 -29.46540335 12.21765549 -28.09375 11.61328125 C-27.43548218 11.32385651 -26.77721436 11.03443176 -26.09899902 10.73623657 C-22.47351927 9.13178807 -18.87765021 7.47738795 -15.30078125 5.76708984 C-14.52464478 5.39633835 -13.7485083 5.02558685 -12.94885254 4.64360046 C-11.45263699 3.9252979 -9.95892835 3.20174311 -8.46813965 2.47224426 C-3.32712271 0 -3.32712271 0 0 0 Z " fill="#393939" transform="translate(814,603)"/>
<path d="M0 0 C6.13824601 2.046082 11.7899276 4.13794328 17.58203125 6.88671875 C18.38090256 7.2604512 19.17977386 7.63418365 20.00285339 8.01924133 C21.71595686 8.82084193 23.42811765 9.62445973 25.1394043 10.42993164 C29.73970049 12.59415903 34.34800622 14.7411562 38.95703125 16.88671875 C39.89201447 17.32208954 40.82699768 17.75746033 41.79031372 18.20602417 C50.48100988 22.24261401 59.23036522 26.1386592 68 30 C81.78346018 36.07408997 95.46159021 42.35506586 109.11376953 48.71826172 C121.0242352 54.26667067 132.97698582 59.70004816 145 65 C158.78277745 71.07568582 172.46155166 77.3550479 186.11376953 83.71826172 C198.0242352 89.26667067 209.97698582 94.70004816 222 100 C235.78277745 106.07568582 249.46155166 112.3550479 263.11376953 118.71826172 C275.0242352 124.26667067 286.97698582 129.70004816 299 135 C312.78277745 141.07568582 326.46155166 147.3550479 340.11376953 153.71826172 C352.0242352 159.26667067 363.97698582 164.70004816 376 170 C389.77837446 176.0737449 403.45293763 182.35077962 417.10067749 188.71221924 C430.02106224 194.73142391 442.99848352 200.60224406 456.03845215 206.35742188 C470.44738769 212.71837538 484.74531624 219.30092537 499 226 C497.64436944 230.06689167 495.09497306 230.85869527 491.5 232.75 C484.32438763 236.65455857 477.30267209 240.77293568 470.3125 245 C461.12057801 250.54476833 451.89227356 256.01998544 442.625 261.4375 C429.76349806 268.95809989 416.94049278 276.54130218 404.12792969 284.14501953 C399.31754971 286.99775658 394.50287619 289.84320687 389.6875 292.6875 C388.79877197 293.2124707 387.91004395 293.73744141 386.99438477 294.27832031 C385.21942915 295.32670774 383.44444559 296.37504786 381.66943359 297.42333984 C377.11251506 300.11481413 372.55629881 302.80747679 368 305.5 C366.16666991 306.58333881 364.33333658 307.66667215 362.5 308.75 C361.5925 309.28625 360.685 309.8225 359.75 310.375 C307.50000002 341.24999999 307.50000002 341.24999999 304.7512207 342.87426758 C302.9138054 343.96002039 301.07640311 345.04579521 299.23901367 346.1315918 C294.71823958 348.80308561 290.19725666 351.47422455 285.67578125 354.14453125 C275.61244711 360.08837188 265.55389578 366.04020729 255.5 372 C244.56202683 378.48386001 233.61796327 384.95732388 222.66943359 391.42333984 C218.11251506 394.11481413 213.55629881 396.80747679 209 399.5 C207.16666991 400.58333881 205.33333658 401.66667215 203.5 402.75 C202.13875 403.554375 202.13875 403.554375 200.75 404.375 C104.50000001 461.25 104.50000001 461.25 101.7512207 462.87426758 C99.9138054 463.96002039 98.07640311 465.04579521 96.23901367 466.1315918 C91.71823958 468.80308561 87.19725666 471.47422455 82.67578125 474.14453125 C72.03678125 480.42838505 61.40330323 486.72148372 50.77468872 493.02288818 C44.82628934 496.5495154 38.87690576 500.07442313 32.921875 503.58984375 C31.97022461 504.1516333 31.01857422 504.71342285 30.03808594 505.29223633 C28.20830278 506.37200066 26.37823399 507.45128114 24.54785156 508.5300293 C20.47628222 510.93252939 16.4138644 513.34753727 12.375 515.8046875 C11.67213867 516.23144775 10.96927734 516.65820801 10.24511719 517.09790039 C8.95687541 517.88216408 7.67089112 518.67015363 6.38769531 519.46264648 C2.22017823 522 2.22017823 522 0 522 C0 349.74 0 177.48 0 0 Z " fill="#141414" transform="translate(815,603)"/>
<path d="M0 0 C7.37215664 3.97242747 14.65243908 8.07474452 21.875 12.3125 C23.4065271 13.20884155 23.4065271 13.20884155 24.96899414 14.12329102 C27.16576996 15.40930126 29.36212866 16.69602427 31.55810547 17.98339844 C34.4786417 19.69453685 37.40069203 21.40302222 40.32373047 23.10987854 C53.44398454 30.77182567 66.52513684 38.49121036 79.54003906 46.33129883 C90.58683262 52.97534665 101.71783201 59.47392721 112.84532166 65.98144531 C121.03449203 70.77252426 129.19813062 75.60677744 137.36279297 80.43945312 C141.90719099 83.12856553 146.45372726 85.8140587 151 88.5 C152.83334305 89.58331689 154.66667639 90.66665021 156.5 91.75 C157.4075 92.28625 158.315 92.8225 159.25 93.375 C295.375 173.8125 295.375 173.8125 453.5 267.25 C454.40862793 267.78689453 455.31725586 268.32378906 456.25341797 268.87695312 C458.07543594 269.95364428 459.89737683 271.03046589 461.71923828 272.10742188 C466.47505282 274.91848904 471.23243126 277.72686141 475.9921875 280.53125 C476.97703125 281.11197266 477.961875 281.69269531 478.9765625 282.29101562 C480.84845871 283.39472801 482.72082165 284.49764938 484.59375 285.59960938 C485.44710938 286.10298828 486.30046875 286.60636719 487.1796875 287.125 C487.91944824 287.56070312 488.65920898 287.99640625 489.42138672 288.4453125 C490.2723291 288.95835937 491.12327148 289.47140625 492 290 C492.97415808 290.33456468 492.97415808 290.33456468 493.96799612 290.67588824 C496.62191658 291.80624477 498.11191766 292.79587746 500 295 C501.25225441 300.36267672 501.04484774 305.73295716 500.96203613 311.204422 C500.96552411 312.90404067 500.97252761 314.60365516 500.98274946 316.30324668 C501.00066679 320.97854611 500.96860222 325.65238379 500.92852497 330.32749689 C500.89402713 335.3669925 500.90566467 340.40640344 500.91174316 345.44598389 C500.9159412 354.17891336 500.89080842 362.91136524 500.84584045 371.64417458 C500.78086676 384.27031793 500.75999332 396.89622999 500.74993652 409.52252241 C500.73242071 430.00692651 500.67916293 450.49107598 500.60351562 470.9753418 C500.53010093 490.87571945 500.473465 510.77602797 500.43945312 530.67651367 C500.43735134 531.90285524 500.43524955 533.1291968 500.43308407 534.39270023 C500.42264389 540.54479991 500.4125342 546.69690008 500.40258884 552.84900057 C500.31963397 603.89950972 500.17871034 654.94974245 500 706 C497.40752644 703.44891015 495.17310097 701.00747766 493.15234375 697.98046875 C492.63534912 697.21331543 492.11835449 696.44616211 491.58569336 695.65576172 C491.04178955 694.84123535 490.49788574 694.02670898 489.9375 693.1875 C485.87258889 687.17044834 481.76341958 681.20762041 477.4375 675.375 C471.48804629 667.34550662 465.74267503 659.17811828 460 651 C453.9264198 642.35790113 447.82655845 633.73837452 441.625 625.1875 C436.41376776 618.00145213 431.30724949 610.74723058 426.2331543 603.46386719 C422.3585303 597.91226336 418.42058329 592.41168318 414.4375 586.9375 C409.97411462 580.80051443 405.6367868 574.59107022 401.375 568.3125 C397.0667321 561.9662776 392.65663202 555.72068231 388.09106445 549.55737305 C382.59625797 542.13117937 377.30852251 534.55984359 372 527 C365.92642035 518.35790192 359.8266053 509.73834002 353.625 501.1875 C348.29453074 493.83779171 343.07239076 486.41679716 337.87939453 478.96948242 C334.95788867 474.78368242 332.02049419 470.61534283 329 466.5 C324.72661647 460.67762884 320.61693288 454.74270812 316.48657227 448.81860352 C312.52617648 443.14969856 308.50639576 437.5289064 304.4375 431.9375 C299.97407437 425.80054393 295.63678598 419.59106902 291.375 413.3125 C287.0667321 406.9662776 282.65663202 400.72068231 278.09106445 394.55737305 C272.59625797 387.13117937 267.30852251 379.55984359 262 372 C260.02255116 369.18628753 258.0434093 366.37377732 256.0625 363.5625 C255.32290039 362.51255859 255.32290039 362.51255859 254.56835938 361.44140625 C250.9417973 356.30495257 247.25882038 351.21138485 243.5625 346.125 C239.0590758 339.92462359 234.67893295 333.65285332 230.375 327.3125 C226.06671551 320.9662878 221.65663267 314.72068317 217.09106445 308.55737305 C211.59625797 301.13117937 206.30852251 293.55984359 201 286 C194.78027097 277.14994593 188.53020269 268.32498846 182.1875 259.5625 C180.12432687 256.70881925 178.06202565 253.85450995 176 251 C175.5875 250.43007324 175.175 249.86014648 174.75 249.27294922 C173.72418653 247.85221538 172.7054581 246.42637275 171.6875 245 C170.88892578 243.88625 170.88892578 243.88625 170.07421875 242.75 C169 241 169 241 169 239 C168.34 239 167.68 239 167 239 C165.73046875 237.2265625 165.73046875 237.2265625 164.1875 234.625 C160.94164638 229.37237381 157.44879509 224.364472 153.8125 219.375 C149.48060647 213.42331707 145.17518646 207.45671879 140.9375 201.4375 C140.44604492 200.73987549 139.95458984 200.04225098 139.44824219 199.32348633 C137.4710277 196.51507579 135.49581115 193.70526272 133.52050781 190.89550781 C127.93731296 182.95684513 122.32310459 175.04419888 116.625 167.1875 C111.41376776 160.00145213 106.30724949 152.74723058 101.2331543 145.46386719 C97.3585303 139.91226336 93.42058329 134.41168318 89.4375 128.9375 C84.97411462 122.80051443 80.6367868 116.59107022 76.375 110.3125 C72.06973067 103.9706946 67.66442752 97.72802451 63.09985352 91.57055664 C59.06793278 86.12449307 55.1617229 80.59458085 51.26708984 75.04980469 C48.56953958 71.21270393 45.84502154 67.40127923 43.0625 63.625 C39.48732517 58.74436714 36.0875889 53.75308647 32.6875 48.75 C28.28056845 42.2695913 23.77995834 35.88230107 19.11206055 29.58764648 C14.9739941 23.99932664 10.96396571 18.3245852 6.97045898 12.63232422 C6.49552002 11.95572754 6.02058105 11.27913086 5.53125 10.58203125 C5.09039062 9.95119629 4.64953125 9.32036133 4.1953125 8.67041016 C3.22529925 7.31484833 2.19861571 5.99996749 1.15625 4.69921875 C0 3 0 3 0 0 Z " fill="#8B8B8B" transform="translate(314,923)"/>
</svg>
