<?xml version="1.0" encoding="UTF-8"?>
<svg version="1.1" xmlns="http://www.w3.org/2000/svg" width="736" height="736">
<path d="M0 0 C3.16092145 0.01071912 6.32127335 0.00003546 9.48217773 -0.01269531 C22.35094453 -0.02020532 34.95644394 0.70120949 47.73022461 2.26074219 C47.73022461 2.92074219 47.73022461 3.58074219 47.73022461 4.26074219 C48.41084961 4.23753906 49.09147461 4.21433594 49.79272461 4.19042969 C61.00853343 3.98162474 71.94991167 5.06561329 82.73022461 8.26074219 C83.90584961 8.42574219 85.08147461 8.59074219 86.29272461 8.76074219 C89.68563027 9.25425574 92.50246178 10.12153178 95.73022461 11.26074219 C101.02466035 12.95045572 106.20259248 14.53342217 111.73022461 15.26074219 C111.73022461 15.92074219 111.73022461 16.58074219 111.73022461 17.26074219 C112.33350586 17.32132813 112.93678711 17.38191406 113.55834961 17.44433594 C114.35756836 17.528125 115.15678711 17.61191406 115.98022461 17.69824219 C116.76913086 17.77945312 117.55803711 17.86066406 118.37084961 17.94433594 C120.553871 18.23709212 122.60754281 18.68138637 124.73022461 19.26074219 C124.73022461 19.92074219 124.73022461 20.58074219 124.73022461 21.26074219 C128.69022461 21.75574219 128.69022461 21.75574219 132.73022461 22.26074219 C132.73022461 22.92074219 132.73022461 23.58074219 132.73022461 24.26074219 C133.67897461 24.34324219 134.62772461 24.42574219 135.60522461 24.51074219 C144.43459765 25.8272491 152.42901731 30.51436034 160.28466797 34.53051758 C163.07670501 35.95595639 165.75098931 37.26766376 168.73022461 38.26074219 C168.73022461 38.92074219 168.73022461 39.58074219 168.73022461 40.26074219 C169.51397461 40.30199219 170.29772461 40.34324219 171.10522461 40.38574219 C175.51260947 41.4495937 178.66615192 43.46096609 182.46069336 45.88574219 C184.76142996 47.39398734 184.76142996 47.39398734 187.73022461 48.26074219 C187.73022461 48.92074219 187.73022461 49.58074219 187.73022461 50.26074219 C188.30256836 50.38320313 188.87491211 50.50566406 189.46459961 50.63183594 C191.82975652 51.28837087 193.80229258 52.19797731 195.98022461 53.32324219 C197.03983398 53.86658203 197.03983398 53.86658203 198.12084961 54.42089844 C198.65194336 54.69804688 199.18303711 54.97519531 199.73022461 55.26074219 C199.73022461 55.92074219 199.73022461 56.58074219 199.73022461 57.26074219 C201.05022461 57.59074219 202.37022461 57.92074219 203.73022461 58.26074219 C203.73022461 58.92074219 203.73022461 59.58074219 203.73022461 60.26074219 C206.20522461 60.75574219 206.20522461 60.75574219 208.73022461 61.26074219 C208.73022461 61.92074219 208.73022461 62.58074219 208.73022461 63.26074219 C209.4559668 63.52886719 210.18170898 63.79699219 210.92944336 64.07324219 C213.69886485 65.247446 216.03941895 66.60017459 218.54272461 68.26074219 C219.33291992 68.77636719 220.12311523 69.29199219 220.93725586 69.82324219 C221.52893555 70.29761719 222.12061523 70.77199219 222.73022461 71.26074219 C222.73022461 71.92074219 222.73022461 72.58074219 222.73022461 73.26074219 C225.20522461 74.25074219 225.20522461 74.25074219 227.73022461 75.26074219 C227.73022461 75.92074219 227.73022461 76.58074219 227.73022461 77.26074219 C228.45209961 77.32261719 229.17397461 77.38449219 229.91772461 77.44824219 C233.63611793 78.5224447 235.10654671 80.44508785 237.73022461 83.26074219 C238.82338075 84.1699787 239.92759853 85.06608846 241.04272461 85.94824219 C241.92959961 86.71136719 242.81647461 87.47449219 243.73022461 88.26074219 C243.73022461 88.92074219 243.73022461 89.58074219 243.73022461 90.26074219 C245.05022461 90.59074219 246.37022461 90.92074219 247.73022461 91.26074219 C247.73022461 91.92074219 247.73022461 92.58074219 247.73022461 93.26074219 C248.72022461 93.59074219 249.71022461 93.92074219 250.73022461 94.26074219 C250.73022461 94.92074219 250.73022461 95.58074219 250.73022461 96.26074219 C251.28709961 96.48761719 251.84397461 96.71449219 252.41772461 96.94824219 C255.38262433 98.63102311 257.34673961 100.8218273 259.73022461 103.26074219 C261.59349098 104.84063679 263.47471093 106.39328017 265.37475586 107.92871094 C265.82206055 108.36828125 266.26936523 108.80785156 266.73022461 109.26074219 C266.73022461 109.92074219 266.73022461 110.58074219 266.73022461 111.26074219 C267.39022461 111.26074219 268.05022461 111.26074219 268.73022461 111.26074219 C273.73022461 116.73693266 273.73022461 116.73693266 273.73022461 119.26074219 C274.32963867 119.51082031 274.92905273 119.76089844 275.54663086 120.01855469 C278.04066102 121.43734108 279.06246479 122.77898955 280.66772461 125.13574219 C282.54280028 127.77226991 283.97832044 129.45921885 286.54272461 131.51074219 C288.73022461 133.26074219 288.73022461 133.26074219 289.54272461 135.51074219 C289.63553711 136.37699219 289.63553711 136.37699219 289.73022461 137.26074219 C290.39022461 137.26074219 291.05022461 137.26074219 291.73022461 137.26074219 C293.01928711 138.72167969 293.01928711 138.72167969 294.35522461 140.63574219 C295.02424805 141.57546875 295.02424805 141.57546875 295.70678711 142.53417969 C296.73022461 144.26074219 296.73022461 144.26074219 296.73022461 146.26074219 C297.39022461 146.26074219 298.05022461 146.26074219 298.73022461 146.26074219 C299.06022461 147.58074219 299.39022461 148.90074219 299.73022461 150.26074219 C300.39022461 150.26074219 301.05022461 150.26074219 301.73022461 150.26074219 C302.06022461 151.91074219 302.39022461 153.56074219 302.73022461 155.26074219 C303.72022461 155.59074219 304.71022461 155.92074219 305.73022461 156.26074219 C306.41772461 158.32324219 306.41772461 158.32324219 306.73022461 160.26074219 C307.39022461 160.26074219 308.05022461 160.26074219 308.73022461 160.26074219 C312.73022461 165.55485983 312.73022461 165.55485983 312.73022461 169.26074219 C313.39022461 169.26074219 314.05022461 169.26074219 314.73022461 169.26074219 C316.06880985 171.54948392 317.40123475 173.84143875 318.73022461 176.13574219 C319.30256836 177.11220703 319.30256836 177.11220703 319.88647461 178.10839844 C322.73022461 183.03417969 322.73022461 183.03417969 322.73022461 185.26074219 C323.39022461 185.26074219 324.05022461 185.26074219 324.73022461 185.26074219 C326.06980382 188.04945396 327.40080896 190.84217281 328.73022461 193.63574219 C329.30256836 194.82683594 329.30256836 194.82683594 329.88647461 196.04199219 C330.42788086 197.1828125 330.42788086 197.1828125 330.98022461 198.34667969 C331.31538086 199.04841309 331.65053711 199.75014648 331.99584961 200.47314453 C332.73022461 202.26074219 332.73022461 202.26074219 332.73022461 204.26074219 C333.39022461 204.26074219 334.05022461 204.26074219 334.73022461 204.26074219 C335.05635742 205.05738281 335.38249023 205.85402344 335.71850586 206.67480469 C337.90053183 211.96573493 340.12228173 217.16339929 342.73022461 222.26074219 C344.71520521 226.45125678 346.15509019 229.58722084 345.73022461 234.26074219 C346.39022461 234.26074219 347.05022461 234.26074219 347.73022461 234.26074219 C348.57299891 236.65361923 349.40459463 239.04945238 350.23022461 241.44824219 C350.46870117 242.12177734 350.70717773 242.7953125 350.95288086 243.48925781 C352.21750053 247.19278686 353.03473681 250.34014754 352.73022461 254.26074219 C353.39022461 254.26074219 354.05022461 254.26074219 354.73022461 254.26074219 C355.06022461 256.90074219 355.39022461 259.54074219 355.73022461 262.26074219 C356.39022461 262.26074219 357.05022461 262.26074219 357.73022461 262.26074219 C357.85139648 262.90140625 357.97256836 263.54207031 358.09741211 264.20214844 C358.3487793 265.49958984 358.3487793 265.49958984 358.60522461 266.82324219 C358.76764648 267.67015625 358.93006836 268.51707031 359.09741211 269.38964844 C359.83296769 272.72689135 360.79049417 275.97514053 361.73022461 279.26074219 C362.48273895 282.2094048 363.17537469 285.16958215 363.85522461 288.13574219 C364.12786133 289.26302734 364.12786133 289.26302734 364.40600586 290.41308594 C365.63642912 295.8065954 365.8951803 300.72922797 365.73022461 306.26074219 C366.39022461 306.26074219 367.05022461 306.26074219 367.73022461 306.26074219 C369.83251684 318.59106821 370.02457592 330.68126167 369.99584961 343.16308594 C369.9972009 345.25566147 369.99914527 347.34823669 370.00164795 349.44081116 C370.00457806 353.80358908 370.00037059 358.16628449 369.9909668 362.52905273 C369.97958077 368.07719727 369.98614001 373.62514805 369.99811172 379.17328548 C370.00539384 383.48797524 370.00301335 387.80262026 369.99785614 392.11731148 C369.99653677 394.16111843 369.99810612 396.20492966 370.00281525 398.24873161 C370.02412307 410.09245522 369.57070537 421.5457476 367.73022461 433.26074219 C367.07022461 433.26074219 366.41022461 433.26074219 365.73022461 433.26074219 C365.85397461 434.96230469 365.85397461 434.96230469 365.98022461 436.69824219 C366.01078326 443.09518574 364.25913215 449.11453557 362.70288086 455.27246094 C361.86924813 458.58091612 361.23537734 461.884195 360.73022461 465.26074219 C360.07022461 465.26074219 359.41022461 465.26074219 358.73022461 465.26074219 C358.40022461 468.56074219 358.07022461 471.86074219 357.73022461 475.26074219 C357.07022461 475.26074219 356.41022461 475.26074219 355.73022461 475.26074219 C355.40022461 478.56074219 355.07022461 481.86074219 354.73022461 485.26074219 C354.07022461 485.26074219 353.41022461 485.26074219 352.73022461 485.26074219 C352.64772461 486.16824219 352.56522461 487.07574219 352.48022461 488.01074219 C351.70333591 493.63448872 349.61219232 498.92995923 347.73022461 504.26074219 C347.07022461 504.26074219 346.41022461 504.26074219 345.73022461 504.26074219 C345.64772461 505.20949219 345.56522461 506.15824219 345.48022461 507.13574219 C344.79030694 512.15051685 342.72684817 516.64529144 340.73022461 521.26074219 C340.07022461 521.26074219 339.41022461 521.26074219 338.73022461 521.26074219 C338.40022461 523.57074219 338.07022461 525.88074219 337.73022461 528.26074219 C337.07022461 528.26074219 336.41022461 528.26074219 335.73022461 528.26074219 C335.40022461 530.24074219 335.07022461 532.22074219 334.73022461 534.26074219 C334.07022461 534.26074219 333.41022461 534.26074219 332.73022461 534.26074219 C332.60647461 535.25074219 332.60647461 535.25074219 332.48022461 536.26074219 C331.4826267 540.25113382 329.65855778 543.64623862 327.73022461 547.26074219 C327.07022461 547.26074219 326.41022461 547.26074219 325.73022461 547.26074219 C325.57553711 548.34355469 325.57553711 548.34355469 325.41772461 549.44824219 C324.66228513 552.5386764 323.57491146 554.6781806 321.73022461 557.26074219 C321.07022461 557.26074219 320.41022461 557.26074219 319.73022461 557.26074219 C319.40022461 559.24074219 319.07022461 561.22074219 318.73022461 563.26074219 C317.74022461 563.59074219 316.75022461 563.92074219 315.73022461 564.26074219 C315.33978255 565.57848415 315.02067375 566.91741491 314.73022461 568.26074219 C313.7613488 570.27600387 312.76609251 572.27908185 311.73022461 574.26074219 C311.07022461 574.26074219 310.41022461 574.26074219 309.73022461 574.26074219 C309.40022461 575.58074219 309.07022461 576.90074219 308.73022461 578.26074219 C308.07022461 578.26074219 307.41022461 578.26074219 306.73022461 578.26074219 C306.07022461 580.24074219 305.41022461 582.22074219 304.73022461 584.26074219 C304.07022461 584.26074219 303.41022461 584.26074219 302.73022461 584.26074219 C302.40022461 585.25074219 302.07022461 586.24074219 301.73022461 587.26074219 C301.07022461 587.26074219 300.41022461 587.26074219 299.73022461 587.26074219 C299.64772461 587.79699219 299.56522461 588.33324219 299.48022461 588.88574219 C298.4544119 592.1341491 296.76458567 594.54826077 294.73022461 597.26074219 C294.07022461 597.26074219 293.41022461 597.26074219 292.73022461 597.26074219 C292.44147461 597.85886719 292.15272461 598.45699219 291.85522461 599.07324219 C290.73022461 601.26074219 290.73022461 601.26074219 288.73022461 604.26074219 C288.07022461 604.26074219 287.41022461 604.26074219 286.73022461 604.26074219 C286.40022461 605.25074219 286.07022461 606.24074219 285.73022461 607.26074219 C285.07022461 607.26074219 284.41022461 607.26074219 283.73022461 607.26074219 C283.52397461 607.94136719 283.31772461 608.62199219 283.10522461 609.32324219 C281.26752433 613.24923824 278.65442333 616.09660922 275.73022461 619.26074219 C274.98772461 620.06511719 274.24522461 620.86949219 273.48022461 621.69824219 C271.73022461 623.26074219 271.73022461 623.26074219 269.73022461 623.26074219 C269.50334961 623.79699219 269.27647461 624.33324219 269.04272461 624.88574219 C266.5240755 629.44329771 263.18070233 633.49837671 258.73022461 636.26074219 C258.07022461 636.26074219 257.41022461 636.26074219 256.73022461 636.26074219 C256.40022461 637.25074219 256.07022461 638.24074219 255.73022461 639.26074219 C254.06807193 640.59969851 252.40058854 641.93204361 250.73022461 643.26074219 C249.87773574 644.3079353 249.0445308 645.37109033 248.23022461 646.44824219 C245.73022461 649.26074219 245.73022461 649.26074219 242.91772461 650.13574219 C241.83491211 650.19761719 241.83491211 650.19761719 240.73022461 650.26074219 C240.40022461 651.25074219 240.07022461 652.24074219 239.73022461 653.26074219 C239.07022461 653.26074219 238.41022461 653.26074219 237.73022461 653.26074219 C237.40022461 654.25074219 237.07022461 655.24074219 236.73022461 656.26074219 C234.74947434 657.622508 232.74942798 658.95667335 230.73022461 660.26074219 C230.40022461 660.92074219 230.07022461 661.58074219 229.73022461 662.26074219 C227.32394667 663.88660566 225.32824836 665.12784802 222.48022461 665.76074219 C221.90272461 665.92574219 221.32522461 666.09074219 220.73022461 666.26074219 C220.40022461 667.25074219 220.07022461 668.24074219 219.73022461 669.26074219 C214.47308175 673.26074219 214.47308175 673.26074219 210.73022461 673.26074219 C210.40022461 674.25074219 210.07022461 675.24074219 209.73022461 676.26074219 C208.74022461 676.26074219 207.75022461 676.26074219 206.73022461 676.26074219 C206.73022461 676.92074219 206.73022461 677.58074219 206.73022461 678.26074219 C201.43610696 682.26074219 201.43610696 682.26074219 197.73022461 682.26074219 C197.73022461 682.92074219 197.73022461 683.58074219 197.73022461 684.26074219 C195.08283545 685.72137069 193.83574127 686.26074219 190.73022461 686.26074219 C190.73022461 686.92074219 190.73022461 687.58074219 190.73022461 688.26074219 C184.10522461 692.26074219 184.10522461 692.26074219 180.73022461 692.26074219 C180.73022461 692.92074219 180.73022461 693.58074219 180.73022461 694.26074219 C178.94069276 695.09865008 177.14852766 695.93093615 175.35522461 696.76074219 C174.35749023 697.22480469 173.35975586 697.68886719 172.33178711 698.16699219 C169.73022461 699.26074219 169.73022461 699.26074219 167.73022461 699.26074219 C167.73022461 699.92074219 167.73022461 700.58074219 167.73022461 701.26074219 C166.12872575 701.93379236 164.52391432 702.59896445 162.91772461 703.26074219 C162.0244043 703.63199219 161.13108398 704.00324219 160.21069336 704.38574219 C157.73022461 705.26074219 157.73022461 705.26074219 154.73022461 705.26074219 C154.73022461 705.92074219 154.73022461 706.58074219 154.73022461 707.26074219 C151.11049059 708.5770091 148.6345533 709.26074219 144.73022461 709.26074219 C144.73022461 709.92074219 144.73022461 710.58074219 144.73022461 711.26074219 C140.0675287 712.93878211 135.40042343 714.60373395 130.73022461 716.26074219 C129.80854492 716.59074219 128.88686523 716.92074219 127.93725586 717.26074219 C127.16768555 717.52886719 126.39811523 717.79699219 125.60522461 718.07324219 C124.94264648 718.3065625 124.28006836 718.53988281 123.59741211 718.78027344 C121.73022461 719.26074219 121.73022461 719.26074219 117.73022461 719.26074219 C117.73022461 719.92074219 117.73022461 720.58074219 117.73022461 721.26074219 C114.76022461 721.59074219 111.79022461 721.92074219 108.73022461 722.26074219 C108.73022461 722.92074219 108.73022461 723.58074219 108.73022461 724.26074219 C107.99416992 724.38191406 107.25811523 724.50308594 106.49975586 724.62792969 C105.03602539 724.87929687 105.03602539 724.87929687 103.54272461 725.13574219 C102.57979492 725.29816406 101.61686523 725.46058594 100.62475586 725.62792969 C97.81112457 726.24305556 95.37777674 727.1443577 92.73022461 728.26074219 C86.60011599 729.99567859 80.37173798 731.10726692 74.10205078 732.20776367 C70.62188842 732.58062296 70.62188842 732.58062296 67.73022461 734.26074219 C55.13749368 736.60527834 42.48939698 736.55581034 29.73022461 736.52636719 C27.63907832 736.52771876 25.54793234 736.52966336 23.45678711 736.53216553 C19.09998548 736.53509365 14.74326653 736.53089428 10.38647461 736.52148438 C4.84620579 736.51009134 -0.69386913 736.51666331 -6.23413086 736.5286293 C-10.54452941 736.53591079 -14.85488319 736.53353134 -19.1652832 736.52837372 C-21.20629907 736.52705455 -23.24731922 736.52862297 -25.28833008 736.53333282 C-37.12192065 736.55465798 -48.56472386 736.09882726 -60.26977539 734.26074219 C-60.26977539 733.60074219 -60.26977539 732.94074219 -60.26977539 732.26074219 C-61.61555664 732.22207031 -61.61555664 732.22207031 -62.98852539 732.18261719 C-72.87708585 731.73313717 -81.74128356 729.95844554 -91.26977539 727.26074219 C-92.4724707 726.92042969 -93.67516602 726.58011719 -94.91430664 726.22949219 C-98.59873291 725.16576958 -102.26865586 724.05950765 -105.93774414 722.94433594 C-108.03852115 722.32853028 -110.1420196 721.77433841 -112.26977539 721.26074219 C-112.26977539 720.60074219 -112.26977539 719.94074219 -112.26977539 719.26074219 C-112.8846582 719.20015625 -113.49954102 719.13957031 -114.13305664 719.07714844 C-114.94129883 718.99335937 -115.74954102 718.90957031 -116.58227539 718.82324219 C-117.3827832 718.74203125 -118.18329102 718.66082031 -119.00805664 718.57714844 C-121.26977539 718.26074219 -121.26977539 718.26074219 -124.26977539 717.26074219 C-124.26977539 716.60074219 -124.26977539 715.94074219 -124.26977539 715.26074219 C-126.90977539 714.93074219 -129.54977539 714.60074219 -132.26977539 714.26074219 C-132.26977539 713.60074219 -132.26977539 712.94074219 -132.26977539 712.26074219 C-133.23915039 712.19886719 -134.20852539 712.13699219 -135.20727539 712.07324219 C-139.39986219 711.49729087 -142.4507409 709.6060654 -146.04711914 707.47167969 C-149.05786985 705.83137613 -151.94171731 705.0396494 -155.26977539 704.26074219 C-155.26977539 703.60074219 -155.26977539 702.94074219 -155.26977539 702.26074219 C-157.24977539 701.93074219 -159.22977539 701.60074219 -161.26977539 701.26074219 C-161.26977539 700.60074219 -161.26977539 699.94074219 -161.26977539 699.26074219 C-163.24977539 698.93074219 -165.22977539 698.60074219 -167.26977539 698.26074219 C-167.26977539 697.60074219 -167.26977539 696.94074219 -167.26977539 696.26074219 C-168.17727539 696.15761719 -169.08477539 696.05449219 -170.01977539 695.94824219 C-173.34907513 695.24396724 -174.70696598 694.38168791 -177.26977539 692.26074219 C-178.25977539 691.93074219 -179.24977539 691.60074219 -180.26977539 691.26074219 C-180.26977539 690.60074219 -180.26977539 689.94074219 -180.26977539 689.26074219 C-180.99938477 689.15761719 -181.72899414 689.05449219 -182.48071289 688.94824219 C-185.5346386 688.19545378 -187.34838158 687.08084498 -189.89477539 685.26074219 C-192.4477367 683.44840105 -194.27665664 682.25844844 -197.26977539 681.26074219 C-197.26977539 680.60074219 -197.26977539 679.94074219 -197.26977539 679.26074219 C-198.58977539 678.93074219 -199.90977539 678.60074219 -201.26977539 678.26074219 C-201.26977539 677.60074219 -201.26977539 676.94074219 -201.26977539 676.26074219 C-202.07415039 676.13699219 -202.87852539 676.01324219 -203.70727539 675.88574219 C-204.55290039 675.67949219 -205.39852539 675.47324219 -206.26977539 675.26074219 C-206.59977539 674.60074219 -206.92977539 673.94074219 -207.26977539 673.26074219 C-209.28647366 672.12723685 -209.28647366 672.12723685 -211.26977539 671.26074219 C-211.26977539 670.60074219 -211.26977539 669.94074219 -211.26977539 669.26074219 C-212.07415039 669.13699219 -212.87852539 669.01324219 -213.70727539 668.88574219 C-214.55290039 668.67949219 -215.39852539 668.47324219 -216.26977539 668.26074219 C-216.59977539 667.60074219 -216.92977539 666.94074219 -217.26977539 666.26074219 C-218.25977539 665.93074219 -219.24977539 665.60074219 -220.26977539 665.26074219 C-220.26977539 664.60074219 -220.26977539 663.94074219 -220.26977539 663.26074219 C-220.82665039 662.99261719 -221.38352539 662.72449219 -221.95727539 662.44824219 C-226.89792643 659.91115111 -230.3392549 657.19126268 -234.26977539 653.26074219 C-236.90798566 651.15017397 -239.57273179 649.08052876 -242.25805664 647.03027344 C-242.92192383 646.44632813 -243.58579102 645.86238281 -244.26977539 645.26074219 C-244.26977539 644.60074219 -244.26977539 643.94074219 -244.26977539 643.26074219 C-245.25977539 642.93074219 -246.24977539 642.60074219 -247.26977539 642.26074219 C-247.26977539 641.60074219 -247.26977539 640.94074219 -247.26977539 640.26074219 C-247.82665039 640.03386719 -248.38352539 639.80699219 -248.95727539 639.57324219 C-252.95416425 637.3047377 -255.80944188 634.64174273 -257.26977539 630.26074219 C-258.25977539 629.93074219 -259.24977539 629.60074219 -260.26977539 629.26074219 C-260.26977539 628.60074219 -260.26977539 627.94074219 -260.26977539 627.26074219 C-260.99165039 627.05449219 -261.71352539 626.84824219 -262.45727539 626.63574219 C-266.24195923 624.78545231 -267.79236192 622.65833781 -270.26977539 619.26074219 C-270.26977539 618.60074219 -270.26977539 617.94074219 -270.26977539 617.26074219 C-271.25977539 616.93074219 -272.24977539 616.60074219 -273.26977539 616.26074219 C-273.26977539 615.60074219 -273.26977539 614.94074219 -273.26977539 614.26074219 C-273.92977539 614.26074219 -274.58977539 614.26074219 -275.26977539 614.26074219 C-275.37290039 613.62136719 -275.47602539 612.98199219 -275.58227539 612.32324219 C-275.80915039 611.64261719 -276.03602539 610.96199219 -276.26977539 610.26074219 C-277.25977539 609.93074219 -278.24977539 609.60074219 -279.26977539 609.26074219 C-283.26977539 604.80359933 -283.26977539 604.80359933 -283.26977539 602.26074219 C-283.92977539 602.26074219 -284.58977539 602.26074219 -285.26977539 602.26074219 C-289.26977539 597.90780101 -289.26977539 597.90780101 -289.26977539 594.26074219 C-290.25977539 593.93074219 -291.24977539 593.60074219 -292.26977539 593.26074219 C-292.95727539 591.19824219 -292.95727539 591.19824219 -293.26977539 589.26074219 C-293.92977539 589.26074219 -294.58977539 589.26074219 -295.26977539 589.26074219 C-297.05204603 586.87647331 -298.7067784 584.49841933 -300.33227539 582.01074219 C-301.02160156 580.98787109 -301.02160156 580.98787109 -301.72485352 579.94433594 C-303.86257606 576.71106983 -305.48589311 574.09917183 -306.26977539 570.26074219 C-306.92977539 570.26074219 -307.58977539 570.26074219 -308.26977539 570.26074219 C-308.59977539 568.94074219 -308.92977539 567.62074219 -309.26977539 566.26074219 C-309.92977539 566.26074219 -310.58977539 566.26074219 -311.26977539 566.26074219 C-311.92070129 565.01338652 -312.56529208 563.76272387 -313.20727539 562.51074219 C-313.56692383 561.81464844 -313.92657227 561.11855469 -314.29711914 560.40136719 C-315.22535721 558.35849786 -315.80144117 556.44958843 -316.26977539 554.26074219 C-316.92977539 554.26074219 -317.58977539 554.26074219 -318.26977539 554.26074219 C-318.93800501 552.92428294 -319.60538156 551.58739371 -320.26977539 550.24902344 C-321.02857893 548.74030859 -321.80205215 547.23896092 -322.58227539 545.74121094 C-323.03602539 544.86078125 -323.48977539 543.98035156 -323.95727539 543.07324219 C-324.39426758 542.2340625 -324.83125977 541.39488281 -325.28149414 540.53027344 C-326.26977539 538.26074219 -326.26977539 538.26074219 -326.26977539 535.26074219 C-326.92977539 535.26074219 -327.58977539 535.26074219 -328.26977539 535.26074219 C-330.31913536 530.89146068 -332.36077162 526.5187333 -334.39331055 522.14160156 C-335.13098888 520.55857262 -335.87714176 518.9794967 -336.62524414 517.40136719 C-336.98231445 516.63308594 -337.33938477 515.86480469 -337.70727539 515.07324219 C-338.01536133 514.4196875 -338.32344727 513.76613281 -338.64086914 513.09277344 C-339.26977539 511.26074219 -339.26977539 511.26074219 -339.26977539 507.26074219 C-339.92977539 507.26074219 -340.58977539 507.26074219 -341.26977539 507.26074219 C-341.76477539 503.30074219 -341.76477539 503.30074219 -342.26977539 499.26074219 C-342.92977539 499.26074219 -343.58977539 499.26074219 -344.26977539 499.26074219 C-344.76477539 495.30074219 -344.76477539 495.30074219 -345.26977539 491.26074219 C-345.92977539 491.26074219 -346.58977539 491.26074219 -347.26977539 491.26074219 C-347.55981445 490.04837891 -347.55981445 490.04837891 -347.85571289 488.81152344 C-348.11610352 487.74289062 -348.37649414 486.67425781 -348.64477539 485.57324219 C-348.90000977 484.5175 -349.15524414 483.46175781 -349.41821289 482.37402344 C-350.17920097 479.34550267 -350.17920097 479.34550267 -351.24243164 476.88183594 C-352.63195484 473.33670261 -353.45708044 469.71118624 -354.33227539 466.01074219 C-355.09409887 461.25717596 -355.09409887 461.25717596 -357.26977539 457.26074219 C-358.25079676 453.0001836 -358.98102778 448.68554346 -359.76977539 444.38574219 C-359.99536133 443.19464844 -360.22094727 442.00355469 -360.45336914 440.77636719 C-361.65553641 434.27470517 -362.60233091 427.86767526 -363.04125977 421.26806641 C-363.05834234 419.26464597 -363.05834234 419.26464597 -364.26977539 418.26074219 C-367.85663529 391.26645306 -366.91376694 363.30236913 -365.33227539 336.19824219 C-365.28889038 335.44693024 -365.24550537 334.69561829 -365.20080566 333.92153931 C-365.07579727 331.81404322 -364.94258516 329.70729031 -364.80493164 327.60058594 C-364.72637939 326.39781006 -364.64782715 325.19503418 -364.56689453 323.95581055 C-364.26977539 321.26074219 -364.26977539 321.26074219 -363.26977539 320.26074219 C-362.99543197 318.57886513 -362.77831112 316.88757573 -362.58618164 315.19433594 C-362.46307617 314.15083984 -362.3399707 313.10734375 -362.21313477 312.03222656 C-361.96236221 309.83700218 -361.71234262 307.64169163 -361.46313477 305.44628906 C-360.76705165 299.55663247 -359.81875711 293.98354913 -358.26977539 288.26074219 C-358.10477539 287.06449219 -357.93977539 285.86824219 -357.76977539 284.63574219 C-357.27618288 281.30399271 -356.3734215 278.43372474 -355.26977539 275.26074219 C-354.90871442 273.59986174 -354.56515366 271.93455238 -354.26977539 270.26074219 C-353.60977539 270.26074219 -352.94977539 270.26074219 -352.26977539 270.26074219 C-351.93977539 266.96074219 -351.60977539 263.66074219 -351.26977539 260.26074219 C-350.60977539 260.26074219 -349.94977539 260.26074219 -349.26977539 260.26074219 C-349.23239258 259.70386719 -349.19500977 259.14699219 -349.15649414 258.57324219 C-348.67218072 252.951408 -347.39332106 248.4811253 -345.26977539 243.26074219 C-344.91623106 241.93262499 -344.5773033 240.6002628 -344.26977539 239.26074219 C-343.60977539 239.26074219 -342.94977539 239.26074219 -342.26977539 239.26074219 C-341.93977539 236.95074219 -341.60977539 234.64074219 -341.26977539 232.26074219 C-340.60977539 232.26074219 -339.94977539 232.26074219 -339.26977539 232.26074219 C-339.18727539 231.12636719 -339.10477539 229.99199219 -339.01977539 228.82324219 C-338.42413825 223.85367259 -336.48215266 219.70607699 -334.26977539 215.26074219 C-333.60977539 215.26074219 -332.94977539 215.26074219 -332.26977539 215.26074219 C-331.77477539 212.29074219 -331.77477539 212.29074219 -331.26977539 209.26074219 C-330.60977539 209.26074219 -329.94977539 209.26074219 -329.26977539 209.26074219 C-328.77477539 206.29074219 -328.77477539 206.29074219 -328.26977539 203.26074219 C-327.60977539 203.26074219 -326.94977539 203.26074219 -326.26977539 203.26074219 C-325.60977539 200.62074219 -324.94977539 197.98074219 -324.26977539 195.26074219 C-323.60977539 195.26074219 -322.94977539 195.26074219 -322.26977539 195.26074219 C-321.77477539 192.29074219 -321.77477539 192.29074219 -321.26977539 189.26074219 C-320.60977539 189.26074219 -319.94977539 189.26074219 -319.26977539 189.26074219 C-318.93977539 187.94074219 -318.60977539 186.62074219 -318.26977539 185.26074219 C-317.60977539 185.26074219 -316.94977539 185.26074219 -316.26977539 185.26074219 C-316.18727539 184.41511719 -316.10477539 183.56949219 -316.01977539 182.69824219 C-315.11243687 178.53960728 -313.50436266 175.8649152 -311.26977539 172.26074219 C-310.60977539 172.26074219 -309.94977539 172.26074219 -309.26977539 172.26074219 C-308.93977539 170.94074219 -308.60977539 169.62074219 -308.26977539 168.26074219 C-307.60977539 168.26074219 -306.94977539 168.26074219 -306.26977539 168.26074219 C-305.93977539 166.61074219 -305.60977539 164.96074219 -305.26977539 163.26074219 C-304.60977539 163.26074219 -303.94977539 163.26074219 -303.26977539 163.26074219 C-303.00165039 162.53886719 -302.73352539 161.81699219 -302.45727539 161.07324219 C-301.27076177 158.26307836 -299.994919 155.77657662 -298.26977539 153.26074219 C-297.60977539 153.26074219 -296.94977539 153.26074219 -296.26977539 153.26074219 C-295.93977539 151.94074219 -295.60977539 150.62074219 -295.26977539 149.26074219 C-294.60977539 149.26074219 -293.94977539 149.26074219 -293.26977539 149.26074219 C-293.00165039 148.70386719 -292.73352539 148.14699219 -292.45727539 147.57324219 C-291.16078043 145.04848885 -289.84501216 142.62359734 -288.26977539 140.26074219 C-287.60977539 140.26074219 -286.94977539 140.26074219 -286.26977539 140.26074219 C-285.93977539 138.94074219 -285.60977539 137.62074219 -285.26977539 136.26074219 C-284.60977539 136.26074219 -283.94977539 136.26074219 -283.26977539 136.26074219 C-282.93977539 135.27074219 -282.60977539 134.28074219 -282.26977539 133.26074219 C-281.1259099 132.08323359 -279.97602968 130.91083663 -278.79321289 129.77246094 C-274.60050358 125.61200324 -270.79820107 121.12922975 -267.45727539 116.26074219 C-266.73540039 115.27074219 -266.01352539 114.28074219 -265.26977539 113.26074219 C-264.60977539 113.26074219 -263.94977539 113.26074219 -263.26977539 113.26074219 C-262.77477539 111.77574219 -262.77477539 111.77574219 -262.26977539 110.26074219 C-260.61188754 108.91650879 -258.94401222 107.58455735 -257.26977539 106.26074219 C-256.69227539 105.49761719 -256.11477539 104.73449219 -255.51977539 103.94824219 C-252.84155613 100.74925808 -249.82857708 98.48327837 -246.48852539 96.00683594 C-244.19385445 94.28855504 -244.19385445 94.28855504 -242.17602539 92.04589844 C-240.26977539 90.26074219 -240.26977539 90.26074219 -237.26977539 90.26074219 C-236.93977539 89.27074219 -236.60977539 88.28074219 -236.26977539 87.26074219 C-233.98058775 85.16637903 -231.67936905 83.20828115 -229.26977539 81.26074219 C-228.40610352 80.5453125 -227.54243164 79.82988281 -226.65258789 79.09277344 C-219.53028424 73.26074219 -219.53028424 73.26074219 -217.26977539 73.26074219 C-217.26977539 72.60074219 -217.26977539 71.94074219 -217.26977539 71.26074219 C-215.94977539 70.93074219 -214.62977539 70.60074219 -213.26977539 70.26074219 C-213.26977539 69.60074219 -213.26977539 68.94074219 -213.26977539 68.26074219 C-212.31264648 67.75414063 -212.31264648 67.75414063 -211.33618164 67.23730469 C-210.50989258 66.79128906 -209.68360352 66.34527344 -208.83227539 65.88574219 C-208.00856445 65.44488281 -207.18485352 65.00402344 -206.33618164 64.54980469 C-204.13510961 63.4265566 -204.13510961 63.4265566 -203.26977539 61.26074219 C-200.70727539 60.63574219 -200.70727539 60.63574219 -198.26977539 60.26074219 C-198.26977539 59.60074219 -198.26977539 58.94074219 -198.26977539 58.26074219 C-191.64477539 54.26074219 -191.64477539 54.26074219 -188.26977539 54.26074219 C-187.93977539 53.27074219 -187.60977539 52.28074219 -187.26977539 51.26074219 C-184.29977539 50.76574219 -184.29977539 50.76574219 -181.26977539 50.26074219 C-181.26977539 49.60074219 -181.26977539 48.94074219 -181.26977539 48.26074219 C-179.94977539 47.93074219 -178.62977539 47.60074219 -177.26977539 47.26074219 C-177.26977539 46.60074219 -177.26977539 45.94074219 -177.26977539 45.26074219 C-174.29977539 44.76574219 -174.29977539 44.76574219 -171.26977539 44.26074219 C-171.26977539 43.60074219 -171.26977539 42.94074219 -171.26977539 42.26074219 C-168.62977539 41.60074219 -165.98977539 40.94074219 -163.26977539 40.26074219 C-163.26977539 39.60074219 -163.26977539 38.94074219 -163.26977539 38.26074219 C-160.29977539 37.76574219 -160.29977539 37.76574219 -157.26977539 37.26074219 C-157.26977539 36.60074219 -157.26977539 35.94074219 -157.26977539 35.26074219 C-154.29977539 34.76574219 -154.29977539 34.76574219 -151.26977539 34.26074219 C-151.26977539 33.60074219 -151.26977539 32.94074219 -151.26977539 32.26074219 C-149.18977528 31.41912365 -147.10563393 30.58773456 -145.01977539 29.76074219 C-143.85961914 29.29667969 -142.69946289 28.83261719 -141.50415039 28.35449219 C-138.26977539 27.26074219 -138.26977539 27.26074219 -134.26977539 27.26074219 C-134.26977539 26.60074219 -134.26977539 25.94074219 -134.26977539 25.26074219 C-132.35572172 24.58661008 -130.43841513 23.92170899 -128.51977539 23.26074219 C-127.45243164 22.88949219 -126.38508789 22.51824219 -125.28540039 22.13574219 C-122.26977539 21.26074219 -122.26977539 21.26074219 -118.26977539 21.26074219 C-118.26977539 20.60074219 -118.26977539 19.94074219 -118.26977539 19.26074219 C-113.73276045 17.80889741 -110.08916063 17.02565022 -105.26977539 17.26074219 C-105.26977539 16.60074219 -105.26977539 15.94074219 -105.26977539 15.26074219 C-101.96977539 14.93074219 -98.66977539 14.60074219 -95.26977539 14.26074219 C-95.26977539 13.60074219 -95.26977539 12.94074219 -95.26977539 12.26074219 C-91.96977539 11.93074219 -88.66977539 11.60074219 -85.26977539 11.26074219 C-85.26977539 10.60074219 -85.26977539 9.94074219 -85.26977539 9.26074219 C-84.40094727 9.13957031 -83.53211914 9.01839844 -82.63696289 8.89355469 C-81.48454102 8.72597656 -80.33211914 8.55839844 -79.14477539 8.38574219 C-78.00782227 8.22332031 -76.87086914 8.06089844 -75.69946289 7.89355469 C-72.40379637 7.28547043 -69.4395172 6.32735816 -66.26977539 5.26074219 C-57.71869262 3.82426869 -48.90896432 4.15581277 -40.26977539 4.26074219 C-40.26977539 3.60074219 -40.26977539 2.94074219 -40.26977539 2.26074219 C-26.81663206 0.5114849 -13.56159979 -0.05451057 0 0 Z " fill="#DADADF" transform="translate(366.269775390625,-0.2607421875)"/>
<path d="M0 0 C4.50119495 4.50119495 4.50119495 4.50119495 6.33984375 7.5546875 C6.75621094 8.24046875 7.17257812 8.92625 7.6015625 9.6328125 C8.04242188 10.37273437 8.48328125 11.11265625 8.9375 11.875 C9.41058594 12.65875 9.88367188 13.4425 10.37109375 14.25 C14.68498392 21.41734877 18.92569313 28.62860649 23.1706543 35.83691406 C27.35472312 42.93423864 31.62290037 49.97520816 35.93359375 56.99609375 C40.11988356 63.81658003 44.26478202 70.66228407 48.41473389 77.50491333 C52.20614569 83.75630294 56.00005278 90.00597583 59.81640625 96.2421875 C65.63331055 105.75252684 71.36142697 115.29641059 76.90576172 124.96826172 C80.15811517 130.61423422 83.54702634 136.16231334 87 141.6875 C92.61333967 150.67226103 98.044359 159.75720347 103.4375 168.875 C110.72026656 181.18566476 118.09857645 193.43141564 125.55859375 205.63574219 C129.07440868 211.40253619 132.53389079 217.20325565 136 223 C143.9356348 236.28903149 143.9356348 236.28903149 152 249.5 C156.87853522 257.39234107 161.63085935 265.36015039 166.39599609 273.32128906 C169.11493712 277.86196197 171.83898827 282.3995677 174.5625 286.9375 C177.48627589 291.81030293 177.48627589 291.81030293 178.82080078 294.04638672 C179.80230955 295.67248055 180.81703846 297.2784657 181.83984375 298.87890625 C183 301 183 301 183 304 C181.2253418 305.37182617 181.2253418 305.37182617 178.69921875 306.79296875 C177.28443237 307.60181519 177.28443237 307.60181519 175.84106445 308.42700195 C174.80038818 309.00796631 173.75971191 309.58893066 172.6875 310.1875 C170.46549371 311.45458627 168.24416364 312.72285895 166.0234375 313.9921875 C165.44549942 314.32062149 164.86756134 314.64905548 164.27210999 314.98744202 C158.07026522 318.51393074 151.94143851 322.16105417 145.8125 325.8125 C136.24968895 331.49383707 126.66377887 337.13397984 117.0625 342.75 C108.23750993 347.91242938 99.43925361 353.11485236 90.68505859 358.39672852 C83.22230266 362.88920672 75.70612618 367.28949666 68.1875 371.6875 C59.67179917 376.66888416 51.16942079 381.66792851 42.72265625 386.765625 C36.88986072 390.27805696 31.01989084 393.72894397 25.14672852 397.17333984 C20.88109614 399.67973789 16.63908971 402.20467223 12.46875 404.8671875 C11.79070312 405.29451172 11.11265625 405.72183594 10.4140625 406.16210938 C9.1809869 406.94347667 7.95618995 407.73814427 6.7421875 408.54882812 C4.00899073 410.26841045 2.2545368 411.00331428 -1 410.9609375 C-4.50442822 409.83842534 -7.42202159 408.21636749 -10.5 406.25 C-11.82478805 405.4298048 -13.15035883 404.61087301 -14.4765625 403.79296875 C-15.19618164 403.34614746 -15.91580078 402.89932617 -16.65722656 402.43896484 C-21.0279285 399.7544174 -25.45497964 397.16473497 -29.875 394.5625 C-31.77216246 393.44275414 -33.66929807 392.32296282 -35.56640625 391.203125 C-43.04063058 386.79588737 -50.51917541 382.39602295 -58 378 C-92.17573869 357.91700918 -92.17573869 357.91700918 -106.5625 349.25 C-114.90116945 344.22948621 -123.28806115 339.29286662 -131.6875 334.375 C-132.3172876 334.00625763 -132.9470752 333.63751526 -133.59594727 333.25759888 C-136.64988917 331.46981877 -139.70421176 329.68269034 -142.75878906 327.89599609 C-148.79636872 324.36422119 -154.83150184 320.82865686 -160.8515625 317.26708984 C-162.44603321 316.3267145 -164.04273991 315.39012827 -165.640625 314.45556641 C-168.45201319 312.81057425 -171.25759649 311.15601977 -174.0625 309.5 C-174.95138916 308.98268311 -175.84027832 308.46536621 -176.75610352 307.93237305 C-177.57006592 307.44937744 -178.38402832 306.96638184 -179.22265625 306.46875 C-179.95234619 306.04013672 -180.68203613 305.61152344 -181.43383789 305.16992188 C-181.95067139 304.78384766 -182.46750488 304.39777344 -183 304 C-183 303.34 -183 302.68 -183 302 C-178.4289153 299.9177147 -173.85736709 297.83645154 -169.28540039 295.75610352 C-167.73254049 295.049348 -166.17980404 294.34232117 -164.62719727 293.63500977 C-162.38590972 292.61401874 -160.14416903 291.59402842 -157.90234375 290.57421875 C-157.21663803 290.26159592 -156.53093231 289.94897308 -155.82444763 289.62687683 C-151.57289807 287.69426586 -147.29414569 285.83661857 -143 284 C-141.2531863 283.21306671 -139.50950742 282.41912578 -137.76953125 281.6171875 C-136.33275024 280.95638184 -136.33275024 280.95638184 -134.86694336 280.28222656 C-133.85897705 279.8178418 -132.85101074 279.35345703 -131.8125 278.875 C-124.03558726 275.29981751 -116.24862857 271.7498013 -108.4375 268.25 C-101.34524636 265.07192722 -94.2897342 261.82548456 -87.26171875 258.5078125 C-84.48511876 257.22425849 -81.68817509 256.01075758 -78.87547302 254.80950928 C-75.90361834 253.52676945 -72.95859312 252.18663261 -70.01171875 250.84765625 C-69.35947327 250.55140854 -68.70722778 250.25516083 -68.03521729 249.94993591 C-65.91892614 248.98830245 -63.80319265 248.02544942 -61.6875 247.0625 C-60.96023712 246.73185547 -60.23297424 246.40121094 -59.4836731 246.06054688 C-49.61857393 241.5752938 -39.77055077 237.0551297 -29.9375 232.5 C-22.81223441 229.20331675 -15.68247304 225.92051454 -8.5 222.75 C-7.85281006 222.46189453 -7.20562012 222.17378906 -6.53881836 221.87695312 C-2.24104942 220 -2.24104942 220 0 220 C0 147.4 0 74.8 0 0 Z " fill="#333333" transform="translate(368,71)"/>
<path d="M0 0 C0.99 0 1.98 0 3 0 C2.67 0.66 2.34 1.32 2 2 C1.89186027 4.85920829 1.84508694 7.69471083 1.84178162 10.55459595 C1.83684364 11.45060276 1.83190566 12.34660958 1.82681805 13.26976812 C1.81138707 16.29003227 1.80306732 19.31027508 1.79467773 22.33056641 C1.78510361 24.48847137 1.77509381 26.64637444 1.76467896 28.80427551 C1.73757338 34.67792462 1.71659448 40.55158182 1.69667697 46.42525911 C1.6748522 52.55788437 1.64744639 58.69048455 1.62062073 64.8230896 C1.57064628 76.44298817 1.52572512 88.06290062 1.48259836 99.6828264 C1.43326654 112.90875621 1.37833341 126.13466087 1.32291877 139.36056638 C1.20902579 166.57368747 1.10220273 193.78683267 1 221 C-3.1311984 222.90952995 -7.26282832 224.81812448 -11.39453125 226.7265625 C-12.55343872 227.26224854 -13.71234619 227.79793457 -14.90637207 228.34985352 C-23.06215066 232.11627234 -31.23934384 235.83085572 -39.4375 239.50390625 C-43.89952888 241.50357493 -48.35669107 243.51386653 -52.8125 245.52734375 C-53.5007637 245.83835022 -54.1890274 246.14935669 -54.89814758 246.4697876 C-57.67140903 247.72309833 -60.44458603 248.97659563 -63.21762085 250.23040771 C-65.15929573 251.10827089 -67.10109501 251.98585807 -69.04296875 252.86328125 C-69.66342575 253.14371277 -70.28388275 253.42414429 -70.92314148 253.71307373 C-74.10533758 255.14990878 -77.29256526 256.57399557 -80.48828125 257.98046875 C-84.35687682 259.69324081 -88.18866301 261.48222932 -92.01953125 263.27734375 C-97.41721028 265.80647625 -102.83030072 268.29805677 -108.26171875 270.75390625 C-108.95355255 271.06693695 -109.64538635 271.37996765 -110.35818481 271.70248413 C-113.17792799 272.97765878 -115.99810092 274.25186386 -118.81958008 275.52319336 C-126.74773318 279.09745768 -134.61468531 282.72420423 -142.34423828 286.71704102 C-145.23899175 288.11545336 -148.17306768 289.26040327 -151.1875 290.375 C-157.31042458 292.64247629 -163.14798893 295.35288768 -169.00073242 298.23388672 C-173.27838086 300.30940804 -177.38939093 301.82628098 -182 303 C-178.45661334 296.31620007 -174.71067701 289.77461631 -170.79760742 283.30200195 C-167.45166922 277.76537623 -164.15877602 272.19868631 -160.875 266.625 C-154.19787733 255.30253327 -147.43841749 244.03006871 -140.66235352 232.76660156 C-139.60340027 231.00421968 -138.5463852 229.24067072 -137.49194336 227.47558594 C-134.19072262 221.95129678 -130.82924683 216.46672864 -127.44384766 210.99365234 C-121.02013576 200.60846905 -114.69889318 190.17232596 -108.52001953 179.63891602 C-104.98077005 173.61909602 -101.33480457 167.679534 -97.60498047 161.77636719 C-93.26962245 154.89152809 -89.1796982 147.86598513 -85.078125 140.84033203 C-83.2294455 137.68468301 -81.34566745 134.55044174 -79.45727539 131.41845703 C-76.0191548 125.71263988 -72.59635318 119.99760039 -69.17578125 114.28125 C-63.80513895 105.31035363 -58.40148396 96.36144875 -52.93920898 87.44604492 C-48.57932041 80.32523541 -44.28397664 73.1666525 -40 66 C-35.70220666 58.81106496 -31.39996913 51.62707871 -27 44.5 C-22.60053482 37.37251999 -18.29940876 30.18804905 -14 23 C-11.8553123 19.41597947 -9.70917286 15.83283177 -7.5625 12.25 C-7.04204102 11.37980225 -6.52158203 10.50960449 -5.98535156 9.61303711 C-5.49647461 8.79714111 -5.00759766 7.98124512 -4.50390625 7.140625 C-4.06892822 6.41391602 -3.6339502 5.68720703 -3.18579102 4.93847656 C-2.16355784 3.26737682 -1.08663702 1.62995552 0 0 Z " fill="#8C8C8C" transform="translate(367,70)"/>
<path d="M0 0 C0 63.03 0 126.06 0 191 C-3.23805206 189.70477918 -5.87001027 188.60645958 -8.80078125 186.890625 C-9.87670532 186.26426147 -9.87670532 186.26426147 -10.97436523 185.62524414 C-11.74594971 185.17141357 -12.51753418 184.71758301 -13.3125 184.25 C-14.54625366 183.52961548 -14.54625366 183.52961548 -15.80493164 182.79467773 C-17.59305676 181.75034347 -19.38037884 180.7046333 -21.16699219 179.65771484 C-24.06877662 177.95975584 -26.97517764 176.26995007 -29.8828125 174.58203125 C-39.98964371 168.71029522 -50.06143932 162.78782987 -60.07006836 156.75024414 C-67.51055859 152.27155237 -75.00311886 147.88328674 -82.5 143.5 C-90.69280086 138.7095805 -98.87376669 133.90289289 -107 129 C-115.190902 124.05940115 -123.43270337 119.20775186 -131.6875 114.375 C-132.31792206 114.00589508 -132.94834412 113.63679016 -133.59786987 113.25650024 C-136.65117272 111.46908943 -139.70484776 109.68231581 -142.75878906 107.89599609 C-148.79636872 104.36422119 -154.83150184 100.82865686 -160.8515625 97.26708984 C-162.44603321 96.3267145 -164.04273991 95.39012827 -165.640625 94.45556641 C-168.45201319 92.81057425 -171.25759649 91.15601977 -174.0625 89.5 C-174.95138916 88.98268311 -175.84027832 88.46536621 -176.75610352 87.93237305 C-177.57006592 87.44937744 -178.38402832 86.96638184 -179.22265625 86.46875 C-179.95234619 86.04013672 -180.68203613 85.61152344 -181.43383789 85.16992188 C-181.95067139 84.78384766 -182.46750488 84.39777344 -183 84 C-183 83.34 -183 82.68 -183 82 C-178.4289153 79.9177147 -173.85736709 77.83645154 -169.28540039 75.75610352 C-167.73254049 75.049348 -166.17980404 74.34232117 -164.62719727 73.63500977 C-162.38590972 72.61401874 -160.14416903 71.59402842 -157.90234375 70.57421875 C-156.87378517 70.1052845 -156.87378517 70.1052845 -155.82444763 69.62687683 C-151.57289807 67.69426586 -147.29414569 65.83661857 -143 64 C-141.2531863 63.21306671 -139.50950742 62.41912578 -137.76953125 61.6171875 C-136.81167725 61.17665039 -135.85382324 60.73611328 -134.86694336 60.28222656 C-133.3549939 59.58564941 -133.3549939 59.58564941 -131.8125 58.875 C-124.03558726 55.29981751 -116.24862857 51.7498013 -108.4375 48.25 C-101.34524636 45.07192722 -94.2897342 41.82548456 -87.26171875 38.5078125 C-84.48511876 37.22425849 -81.68817509 36.01075758 -78.87547302 34.80950928 C-75.90361834 33.52676945 -72.95859312 32.18663261 -70.01171875 30.84765625 C-69.35947327 30.55140854 -68.70722778 30.25516083 -68.03521729 29.94993591 C-65.91892614 28.98830245 -63.80319265 28.02544942 -61.6875 27.0625 C-60.96023712 26.73185547 -60.23297424 26.40121094 -59.4836731 26.06054688 C-49.61857393 21.5752938 -39.77055077 17.0551297 -29.9375 12.5 C-22.81223441 9.20331675 -15.68247304 5.92051454 -8.5 2.75 C-7.52921509 2.3178418 -7.52921509 2.3178418 -6.53881836 1.87695312 C-2.24104942 0 -2.24104942 0 0 0 Z " fill="#383838" transform="translate(368,291)"/>
<path d="M0 0 C5.56126867 1.85375622 10.70154735 3.63260626 16 6 C16 6.66 16 7.32 16 8 C16.72703125 8.12761719 17.4540625 8.25523437 18.203125 8.38671875 C30.20297871 11.01797159 41.86195961 17.81974041 52.71484375 23.39453125 C54.03162109 24.06548828 54.03162109 24.06548828 55.375 24.75 C56.16648437 25.15734375 56.95796875 25.5646875 57.7734375 25.984375 C59.85020002 26.93167018 61.77198572 27.53201527 64 28 C64 28.66 64 29.32 64 30 C64.66773438 29.92394531 65.33546875 29.84789062 66.0234375 29.76953125 C70.05992227 30.08206747 73.11691162 31.81551936 76.625 33.6875 C78.05654667 34.42722478 79.48884139 35.16550368 80.921875 35.90234375 C81.61861328 36.26312012 82.31535156 36.62389648 83.03320312 36.99560547 C90.48222951 40.79963905 98.20859286 43.97470308 106 47 C106 47.66 106 48.32 106 49 C106.5671875 49.12890625 107.134375 49.2578125 107.71875 49.390625 C111.95542006 50.52233823 115.94856704 52.33801714 120 54 C120.93328125 54.37253906 121.8665625 54.74507813 122.828125 55.12890625 C128.9722138 57.61775506 134.88908015 60.40030653 140.79248047 63.41552734 C144.43105387 65.25929771 148.09173281 66.91496564 151.875 68.4375 C157.48843516 70.70243832 162.84935817 73.36056378 168.21826172 76.14624023 C172.71467883 78.45383759 177.23994082 80.2969566 182 82 C180.81789957 85.54630128 180.17354784 85.77634959 177.0390625 87.57421875 C176.18948975 88.06825195 175.33991699 88.56228516 174.46459961 89.07128906 C173.52753174 89.60463867 172.59046387 90.13798828 171.625 90.6875 C169.59733873 91.8627336 167.57000934 93.03853993 165.54296875 94.21484375 C164.47095215 94.83343262 163.39893555 95.45202148 162.29443359 96.08935547 C156.81648724 99.26635326 151.3796937 102.51227958 145.9375 105.75 C135.71244138 111.81770605 125.45995867 117.83745714 115.19723511 123.84118652 C106.99477801 128.64108182 98.82237961 133.48704559 90.68505859 138.39672852 C83.22230266 142.88920672 75.70612618 147.28949666 68.1875 151.6875 C59.67179917 156.66888416 51.16942079 161.66792851 42.72265625 166.765625 C36.89164311 170.27698363 31.02025405 173.72092494 25.15551758 177.17553711 C20.86558445 179.70499825 16.58266468 182.24339249 12.328125 184.83203125 C11.63203125 185.25484375 10.9359375 185.67765625 10.21875 186.11328125 C8.94035642 186.89198527 7.66417329 187.67433414 6.390625 188.4609375 C2.21999762 191 2.21999762 191 0 191 C0 127.97 0 64.94 0 0 Z " fill="#131313" transform="translate(368,291)"/>
<path d="M0 0 C0.99 0.495 0.99 0.495 2 1 C1.43841187 1.63071411 1.43841187 1.63071411 0.86547852 2.27416992 C-2.77736491 6.43372873 -5.99352055 10.7186487 -9.0625 15.3125 C-13.09246819 21.2593052 -17.21515326 27.12571207 -21.4375 32.9375 C-26.17252783 39.45838162 -30.84917522 46.01609405 -35.48242188 52.60961914 C-39.08832663 57.73196516 -42.75397031 62.80828756 -46.4375 67.875 C-50.92548114 74.05158824 -55.28140425 80.30345969 -59.5625 86.625 C-64.07080016 93.27895089 -68.75189884 99.75561986 -73.61914062 106.15063477 C-77.55600825 111.34540181 -81.26089926 116.67292995 -84.921875 122.06445312 C-88.06344766 126.67722335 -91.3054701 131.20130486 -94.625 135.6875 C-98.71823375 141.21963254 -102.67050472 146.83019582 -106.56640625 152.50390625 C-109.95855354 157.40936369 -113.4794954 162.22247632 -116.98071289 167.05029297 C-121.30772468 173.02349852 -125.57130856 179.03902559 -129.8137207 185.07250977 C-133.25131894 189.95594004 -136.739087 194.79713783 -140.28125 199.60546875 C-141.50529114 201.31078062 -142.69169363 203.04337752 -143.8515625 204.79296875 C-146.43073512 208.64297006 -149.14702458 212.37971536 -151.875 216.125 C-157.91212637 224.4470531 -163.83003977 232.84829751 -169.7109375 241.28125 C-170.51096191 242.42400391 -170.51096191 242.42400391 -171.32714844 243.58984375 C-172.53039954 245.32342445 -173.71950033 247.06685807 -174.89941406 248.81640625 C-175.52299805 249.73292969 -176.14658203 250.64945313 -176.7890625 251.59375 C-177.63911865 252.85735352 -177.63911865 252.85735352 -178.50634766 254.14648438 C-179.24570557 255.06397461 -179.24570557 255.06397461 -180 256 C-180.66 256 -181.32 256 -182 256 C-182.21027842 236.807047 -182.36896653 217.61432783 -182.46630955 198.42046165 C-182.51271009 189.50826885 -182.57596363 180.5967919 -182.67895508 171.68505859 C-182.76868447 163.91717033 -182.82672914 156.14980045 -182.84679645 148.38140833 C-182.85852687 144.26807837 -182.88607166 140.15623131 -182.95157051 136.04337692 C-183.01274864 132.1703868 -183.03148924 128.29948714 -183.01796913 124.42605972 C-183.02044153 123.00618873 -183.0383001 121.58624657 -183.07284927 120.16679382 C-183.32109272 109.43988431 -183.32109272 109.43988431 -180.02878666 105.85153675 C-177.74045808 104.30263398 -175.52121737 103.11934325 -173 102 C-172.0510083 101.41919678 -171.1020166 100.83839355 -170.12426758 100.23999023 C-169.30595459 99.76762939 -168.4876416 99.29526855 -167.64453125 98.80859375 C-166.70359619 98.26299805 -165.76266113 97.71740234 -164.79321289 97.15527344 C-163.80957764 96.5884082 -162.82594238 96.02154297 -161.8125 95.4375 C-159.6819766 94.20236623 -157.55177541 92.96667652 -155.421875 91.73046875 C-154.35130859 91.10962402 -153.28074219 90.4887793 -152.17773438 89.84912109 C-147.29210393 87.00617664 -142.42627116 84.13013568 -137.5625 81.25 C-135.73439188 80.16794023 -133.90626727 79.08590832 -132.078125 78.00390625 C-131.21380859 77.49230957 -130.34949219 76.98071289 -129.45898438 76.45361328 C-125.9141465 74.35810447 -122.36352118 72.27250727 -118.8125 70.1875 C-113.16516562 66.87127243 -107.52945831 63.53581816 -101.89802551 60.19265747 C-100.14037537 59.14922947 -98.38270425 58.10583685 -96.625 57.0625 C-95.75042648 56.54336029 -95.75042648 56.54336029 -94.85818481 56.01373291 C-87.51257086 51.65508824 -80.15036615 47.32763749 -72.75 43.0625 C-66.88445636 39.68160606 -61.05139974 36.25568891 -55.25390625 32.75952148 C-48.7698855 28.85228728 -42.26156619 24.98609087 -35.75 21.125 C-34.87649902 20.60696304 -34.87649902 20.60696304 -33.98535156 20.07846069 C-25.57015775 15.09011627 -17.13065434 10.14586355 -8.64746094 5.27392578 C-7.93879883 4.8664209 -7.23013672 4.45891602 -6.5 4.0390625 C-5.8915625 3.69053223 -5.283125 3.34200195 -4.65625 2.98291016 C-3.07111033 2.04220079 -1.53368378 1.02245585 0 0 Z " fill="#333333" transform="translate(550,409)"/>
<path d="M0 0 C10.45966281 4.9271402 20.23495979 10.66550967 30.03808594 16.77978516 C36.80878208 20.99082788 43.69901755 25.00170247 50.58984375 29.01171875 C60.76439967 34.9439627 70.9160421 40.91485299 81 47 C82.72869224 48.04245381 84.45786469 49.08411168 86.1875 50.125 C87.32251953 50.80949219 87.32251953 50.80949219 88.48046875 51.5078125 C90.32464623 52.60002304 92.18212 53.669868 94.046875 54.7265625 C99.44458645 57.80079428 104.74323109 61.04278206 110.0625 64.25 C129.73987101 76.14363289 129.73987101 76.14363289 150 87 C150 87.66 150 88.32 150 89 C150.66386719 89.24105469 151.32773437 89.48210937 152.01171875 89.73046875 C155.77612288 91.32972541 159.26174698 93.29019758 162.8125 95.3125 C163.87936035 95.9159021 163.87936035 95.9159021 164.96777344 96.53149414 C169.72550534 99.23594078 174.37910345 102.06750796 179 105 C180.32 105.66 181.64 106.32 183 107 C182.505 180.26 182.505 180.26 182 255 C182.66 255.33 183.32 255.66 184 256 C183.01 256 182.02 256 181 256 C179.29860194 253.92991533 177.80335821 251.90208964 176.3125 249.6875 C175.41582836 248.39290782 174.51868762 247.09864043 173.62109375 245.8046875 C172.9556958 244.83547363 172.9556958 244.83547363 172.27685547 243.84667969 C170.51869111 241.30389666 168.70073754 238.80707209 166.875 236.3125 C166.24078125 235.43980469 165.6065625 234.56710937 164.953125 233.66796875 C163.5772628 231.78854099 162.19084277 229.91681966 160.796875 228.05078125 C160.08015625 227.08527344 159.3634375 226.11976563 158.625 225.125 C157.97789062 224.26132812 157.33078125 223.39765625 156.6640625 222.5078125 C155.04214938 220.06352089 153.97826714 217.75693466 153 215 C152.34 215 151.68 215 151 215 C149.5546875 212.98046875 149.5546875 212.98046875 147.875 210.1875 C144.77922632 205.17774177 141.46315949 200.42120661 137.96875 195.68359375 C136.10771518 193.14682605 134.295666 190.5833104 132.5 188 C130.06864556 184.50458342 127.58405366 181.05588587 125.0625 177.625 C122.26004952 173.79660426 119.59756667 169.90755787 117 165.9375 C113.84099035 161.13979303 110.44022539 156.66363733 106.76171875 152.25390625 C105 150 105 150 103.6484375 147.7421875 C101.30724452 143.84759633 98.61416603 140.23175979 95.9375 136.5625 C94.76664482 134.94942359 93.59607497 133.33614004 92.42578125 131.72265625 C91.84650879 130.9248877 91.26723633 130.12711914 90.67041016 129.30517578 C83.84666918 119.88837333 77.10131377 110.41159462 70.5078125 100.83203125 C66.49413305 95.03116618 62.32200802 89.35617895 58.125 83.6875 C53.36698151 77.26012169 48.72611452 70.78277656 44.21484375 64.1796875 C41.66952887 60.52556702 39.02841316 56.95089058 36.375 53.375 C32.54292385 48.20633675 28.99776046 42.94383456 25.60546875 37.47265625 C23.52911908 34.27477465 21.18659118 31.34365644 18.80859375 28.3671875 C16.05084259 24.75769031 13.61985912 20.94337304 11.1328125 17.14453125 C8.15760357 12.75800527 4.93849434 8.5829944 1.6875 4.3984375 C0 2 0 2 0 0 Z " fill="#8C8C8C" transform="translate(186,410)"/>
<path d="M0 0 C0.33 0 0.66 0 1 0 C1.05039358 4.40672442 1.0861752 8.813285 1.10986328 13.22021484 C1.11976443 14.71145558 1.13328888 16.20267779 1.15087891 17.69384766 C1.27260379 28.29823297 0.57481044 38.51073269 -1 49 C-1.66 49 -2.32 49 -3 49 C-2.9175 50.134375 -2.835 51.26875 -2.75 52.4375 C-2.71944135 58.83444355 -4.47109246 64.85379338 -6.02734375 71.01171875 C-6.86097648 74.32017394 -7.49484727 77.62345282 -8 81 C-8.66 81 -9.32 81 -10 81 C-10.33 84.3 -10.66 87.6 -11 91 C-11.66 91 -12.32 91 -13 91 C-13.33 94.3 -13.66 97.6 -14 101 C-14.66 101 -15.32 101 -16 101 C-16.0825 101.9075 -16.165 102.815 -16.25 103.75 C-17.0268887 109.37374653 -19.11803229 114.66921705 -21 120 C-21.66 120 -22.32 120 -23 120 C-23.0825 120.94875 -23.165 121.8975 -23.25 122.875 C-23.93991766 127.88977467 -26.00337644 132.38454926 -28 137 C-28.66 137 -29.32 137 -30 137 C-30.33 139.31 -30.66 141.62 -31 144 C-31.66 144 -32.32 144 -33 144 C-33.33 145.98 -33.66 147.96 -34 150 C-34.66 150 -35.32 150 -36 150 C-36.0825 150.66 -36.165 151.32 -36.25 152 C-37.24759791 155.99039163 -39.07166683 159.38549643 -41 163 C-41.66 163 -42.32 163 -43 163 C-43.103125 163.721875 -43.20625 164.44375 -43.3125 165.1875 C-44.06793947 168.27793421 -45.15531315 170.41743841 -47 173 C-47.66 173 -48.32 173 -49 173 C-49.33 174.98 -49.66 176.96 -50 179 C-50.99 179.33 -51.98 179.66 -53 180 C-53.39044206 181.31774196 -53.70955086 182.65667272 -54 184 C-54.96887581 186.01526169 -55.9641321 188.01833966 -57 190 C-57.66 190 -58.32 190 -59 190 C-59.33 191.32 -59.66 192.64 -60 194 C-60.66 194 -61.32 194 -62 194 C-62.66 195.98 -63.32 197.96 -64 200 C-64.66 200 -65.32 200 -66 200 C-66.33 200.99 -66.66 201.98 -67 203 C-67.66 203 -68.32 203 -69 203 C-69.0825 203.53625 -69.165 204.0725 -69.25 204.625 C-70.27581271 207.87340691 -71.96563894 210.28751859 -74 213 C-74.66 213 -75.32 213 -76 213 C-76.28875 213.598125 -76.5775 214.19625 -76.875 214.8125 C-78 217 -78 217 -80 220 C-80.66 220 -81.32 220 -82 220 C-82.33 220.99 -82.66 221.98 -83 223 C-83.66 223 -84.32 223 -85 223 C-85.20625 223.680625 -85.4125 224.36125 -85.625 225.0625 C-87.46270028 228.98849605 -90.07580128 231.83586703 -93 235 C-94.11375 236.2065625 -94.11375 236.2065625 -95.25 237.4375 C-97 239 -97 239 -99 239 C-99.3403125 239.804375 -99.3403125 239.804375 -99.6875 240.625 C-102.20614911 245.18255553 -105.54952228 249.23763452 -110 252 C-110.66 252 -111.32 252 -112 252 C-112.33 252.99 -112.66 253.98 -113 255 C-114.66215268 256.33895632 -116.32963607 257.67130142 -118 259 C-118.85248887 260.04719312 -119.68569381 261.11034814 -120.5 262.1875 C-123 265 -123 265 -125.8125 265.875 C-126.534375 265.91625 -127.25625 265.9575 -128 266 C-128.33 266.99 -128.66 267.98 -129 269 C-129.66 269 -130.32 269 -131 269 C-131.33 269.99 -131.66 270.98 -132 272 C-133.98075027 273.36176581 -135.98079663 274.69593116 -138 276 C-138.33 276.66 -138.66 277.32 -139 278 C-141.40627794 279.62586347 -143.40197625 280.86710583 -146.25 281.5 C-146.8275 281.665 -147.405 281.83 -148 282 C-148.33 282.99 -148.66 283.98 -149 285 C-154.25714286 289 -154.25714286 289 -158 289 C-158.33 289.99 -158.66 290.98 -159 292 C-159.99 292 -160.98 292 -162 292 C-162 292.66 -162 293.32 -162 294 C-167.29411765 298 -167.29411765 298 -171 298 C-171 298.66 -171 299.32 -171 300 C-173.64738916 301.4606285 -174.89448334 302 -178 302 C-178 302.66 -178 303.32 -178 304 C-184.625 308 -184.625 308 -188 308 C-188 308.66 -188 309.32 -188 310 C-189.78953185 310.83790789 -191.58169695 311.67019396 -193.375 312.5 C-194.37273437 312.9640625 -195.37046875 313.428125 -196.3984375 313.90625 C-199 315 -199 315 -201 315 C-201 315.66 -201 316.32 -201 317 C-202.60149886 317.67305018 -204.20631029 318.33822227 -205.8125 319 C-206.70582031 319.37125 -207.59914063 319.7425 -208.51953125 320.125 C-211 321 -211 321 -214 321 C-214 321.66 -214 322.32 -214 323 C-217.61973402 324.31626692 -220.09567131 325 -224 325 C-224 325.66 -224 326.32 -224 327 C-228.66269591 328.67803992 -233.32980118 330.34299176 -238 332 C-238.92167969 332.33 -239.84335937 332.66 -240.79296875 333 C-241.56253906 333.268125 -242.33210938 333.53625 -243.125 333.8125 C-243.78757812 334.04582031 -244.45015625 334.27914063 -245.1328125 334.51953125 C-247 335 -247 335 -251 335 C-251 335.66 -251 336.32 -251 337 C-253.97 337.33 -256.94 337.66 -260 338 C-260 338.66 -260 339.32 -260 340 C-260.73605469 340.12117188 -261.47210938 340.24234375 -262.23046875 340.3671875 C-263.20628906 340.53476562 -264.18210937 340.70234375 -265.1875 340.875 C-266.15042969 341.03742188 -267.11335938 341.19984375 -268.10546875 341.3671875 C-270.91910004 341.98231337 -273.35244786 342.88361552 -276 344 C-282.13010862 345.7349364 -288.35848663 346.84652473 -294.62817383 347.94702148 C-298.10833619 348.31988077 -298.10833619 348.31988077 -301 350 C-312.31334472 352.02529738 -323.54137995 352.25582871 -335 352.125 C-336.56509831 352.11492984 -338.13020304 352.10581126 -339.6953125 352.09765625 C-343.46370563 352.07600877 -347.23177778 352.04171227 -351 352 C-351 351.67 -351 351.34 -351 351 C-349.741875 350.95101563 -348.48375 350.90203125 -347.1875 350.8515625 C-332.39600941 350.22683595 -318.09673269 348.7673962 -303.578125 345.71484375 C-300.24499192 345.04894489 -296.92819035 344.53087809 -293.5625 344.0625 C-282.36498496 342.40004685 -271.49398201 339.3137809 -260.76953125 335.734375 C-258.04453509 335.01180902 -255.80324172 334.85650682 -253 335 C-253 334.34 -253 333.68 -253 333 C-251.948125 332.72736328 -251.948125 332.72736328 -250.875 332.44921875 C-245.10647142 330.92087218 -239.54207823 329.20552093 -234 327 C-226.4109589 324 -226.4109589 324 -223 324 C-223 323.34 -223 322.68 -223 322 C-222.46375 321.8040625 -221.9275 321.608125 -221.375 321.40625 C-208.30832849 316.42028324 -195.17260845 309.85456474 -183.38671875 302.33203125 C-181 301 -181 301 -178 301 C-177.67 300.01 -177.34 299.02 -177 298 C-174.953125 296.7109375 -174.953125 296.7109375 -172.25 295.375 C-166.91530766 292.6062737 -162.09643976 289.41373096 -157.24121094 285.89599609 C-153.19849481 283 -153.19849481 283 -151 283 C-151 282.34 -151 281.68 -151 281 C-149.68 280.67 -148.36 280.34 -147 280 C-147 279.34 -147 278.68 -147 278 C-145.68 277.67 -144.36 277.34 -143 277 C-143 276.34 -143 275.68 -143 275 C-137.58823529 271 -137.58823529 271 -135 271 C-135 270.34 -135 269.68 -135 269 C-134.34 269 -133.68 269 -133 269 C-133 268.34 -133 267.68 -133 267 C-131.20703125 265.44921875 -131.20703125 265.44921875 -128.8125 263.6875 C-125.25183641 261.00167864 -122.11412553 258.20062902 -119 255 C-117.33333333 253.66666667 -115.66666667 252.33333333 -114 251 C-112.32338335 249.34334307 -110.65825842 247.67503271 -109 246 C-108.04797461 245.05748175 -107.09483294 244.11608982 -106.140625 243.17578125 C-105.17707098 242.22136663 -104.21352938 241.26693948 -103.25 240.3125 C-102.75628906 239.82716797 -102.26257813 239.34183594 -101.75390625 238.84179688 C-99.03384724 236.18159783 -99.03384724 236.18159783 -97 233 C-96.34 233 -95.68 233 -95 233 C-95 232.34 -95 231.68 -95 231 C-93.84629465 229.84629465 -92.68756249 228.69717467 -91.50390625 227.57421875 C-89.15974377 225.12045906 -87.27608673 222.34924253 -85.33203125 219.57421875 C-84.89246094 219.05472656 -84.45289063 218.53523437 -84 218 C-83.34 218 -82.68 218 -82 218 C-82 217.34 -82 216.68 -82 216 C-81.34 216 -80.68 216 -80 216 C-79.67 214.68 -79.34 213.36 -79 212 C-78.34 212 -77.68 212 -77 212 C-77 211.34 -77 210.68 -77 210 C-76.34 210 -75.68 210 -75 210 C-74.34 208.02 -73.68 206.04 -73 204 C-72.34 204 -71.68 204 -71 204 C-70.67 202.68 -70.34 201.36 -70 200 C-69.34 200 -68.68 200 -68 200 C-67.86851562 199.17048828 -67.86851562 199.17048828 -67.734375 198.32421875 C-66.78002447 195.30380085 -65.17692638 193.32257515 -63.25 190.8125 C-59.70548848 186.06948458 -56.70274927 181.26256467 -54 176 C-53.34 176 -52.68 176 -52 176 C-51.896875 175.46375 -51.79375 174.9275 -51.6875 174.375 C-50.32803447 169.67866455 -47.8909806 165.79437439 -45.125 161.8125 C-42.29430314 157.64683252 -40.22580807 153.37738288 -38.22265625 148.765625 C-37.02714162 146.06139384 -35.72600999 143.4419284 -34.375 140.8125 C-32.25244732 136.62765639 -30.55690302 132.42488228 -29 128 C-28.34 128 -27.68 128 -27 128 C-26.896875 127.175 -26.79375 126.35 -26.6875 125.5 C-26.06917713 122.35217449 -25.13708606 119.60715867 -23.96484375 116.6328125 C-21.72163468 110.5116671 -19.91304418 104.2306261 -18 98 C-17.34 98 -16.68 98 -16 98 C-15.88398437 97.03191406 -15.76796875 96.06382812 -15.6484375 95.06640625 C-15.00731229 90.58640326 -13.82474077 86.29508244 -12.625 81.9375 C-10.78478638 75.10232663 -9.10879735 68.26893136 -7.6875 61.33203125 C-7.21300541 59.03235007 -6.71126688 56.73818072 -6.1875 54.44921875 C-4.69983416 47.9049195 -3.67665939 41.59417258 -3.24609375 34.8984375 C-3.00340316 32.04008166 -2.54029574 29.31584785 -2 26.5 C-0.43436983 17.76051219 -0.33248526 8.85460757 0 0 Z " fill="#FAFBFC" transform="translate(735,384)"/>
<path d="M0 0 C0.66 0.33 1.32 0.66 2 1 C1.12601563 1.98871094 0.25203125 2.97742188 -0.6484375 3.99609375 C-3.93694319 7.83397106 -6.8037521 11.87446109 -9.625 16.0625 C-10.0890625 16.74376953 -10.553125 17.42503906 -11.03125 18.12695312 C-13.71189111 22.06840425 -16.36167775 26.03013013 -19 30 C-21.18286549 27.53241292 -21.97249246 26.19648241 -22.4375 22.875 C-22.623125 21.92625 -22.80875 20.9775 -23 20 C-24.95163118 18.56362302 -24.95163118 18.56362302 -27 18 C-27 17.34 -27 16.68 -27 16 C-25.59814453 14.95019531 -25.59814453 14.95019531 -23.6328125 13.828125 C-22.91617432 13.41344971 -22.19953613 12.99877441 -21.46118164 12.5715332 C-20.6902417 12.13542725 -19.91930176 11.69932129 -19.125 11.25 C-17.5634674 10.35344725 -16.00226822 9.45631353 -14.44140625 8.55859375 C-13.67973145 8.12272949 -12.91805664 7.68686523 -12.13330078 7.23779297 C-8.62782597 5.20383127 -5.20400291 3.03891094 -1.78515625 0.86328125 C-1.19605469 0.57839844 -0.60695313 0.29351562 0 0 Z " fill="#373738" transform="translate(550,409)"/>
<path d="M0 0 C1.32 1.32 2.64 2.64 4 4 C3.01 4.33 2.02 4.66 1 5 C1.24417637 5.87282556 1.24417637 5.87282556 1.4932856 6.76328397 C2.29597512 10.30648013 2.11267187 13.87742286 2.08229065 17.49139404 C2.07906152 18.35644129 2.07583239 19.22148854 2.07250541 20.11274934 C2.06042517 23.01629167 2.04105331 25.9197397 2.02172852 28.82324219 C2.01158628 30.90262141 2.00189254 32.98200285 1.99261475 35.06138611 C1.96612827 40.71182614 1.93334982 46.3622144 1.89946485 52.01261425 C1.86512729 57.91563805 1.83654418 63.81868961 1.80735779 69.72174072 C1.75119909 80.9024526 1.68984474 92.08312972 1.62663645 103.26380372 C1.55493394 115.99156624 1.4890042 128.71935659 1.42356598 141.44715261 C1.28881323 167.6314712 1.14678943 193.81574632 1 220 C0.67 220 0.34 220 0 220 C0 147.4 0 74.8 0 0 Z " fill="#434343" transform="translate(368,71)"/>
<path d="M0 0 C0.66 0 1.32 0 2 0 C2.33 2.64 2.66 5.28 3 8 C3.66 8 4.32 8 5 8 C5.12117187 8.64066406 5.24234375 9.28132813 5.3671875 9.94140625 C5.53476562 10.80636719 5.70234375 11.67132813 5.875 12.5625 C6.03742187 13.40941406 6.19984375 14.25632812 6.3671875 15.12890625 C7.10274308 18.46614917 8.06026956 21.71439834 9 25 C9.75251434 27.94866261 10.44515008 30.90883996 11.125 33.875 C11.30675781 34.62652344 11.48851562 35.37804687 11.67578125 36.15234375 C12.90620451 41.54585321 13.16495569 46.46848578 13 52 C13.66 52 14.32 52 15 52 C16.69375198 62.57210576 17.25919254 72.74893763 17.125 83.4375 C17.11492845 84.86262377 17.10581014 86.2877546 17.09765625 87.71289062 C17.07602292 91.14207846 17.04173497 94.57099067 17 98 C16.67 98 16.34 98 16 98 C15.9498877 97.40799805 15.89977539 96.81599609 15.84814453 96.20605469 C14.32949216 71.63376685 14.32949216 71.63376685 10.5234375 47.37646484 C9.98316118 44.92354989 9.54882641 42.46776129 9.125 39.9921875 C8.01298916 33.82001251 6.54304516 27.76419517 5 21.6875 C4.73960937 20.64271484 4.47921875 19.59792969 4.2109375 18.52148438 C3.19012594 14.46659402 2.16330319 10.47862876 0.8125 6.51953125 C0 4 0 4 0 0 Z " fill="#F8F9FB" transform="translate(719,254)"/>
<path d="M0 0 C0.99 0.495 0.99 0.495 2 1 C2 61.72 2 122.44 2 185 C3.32 185 4.64 185 6 185 C5.01 185.99 5.01 185.99 4 187 C4 187.99 4 188.98 4 190 C2.68 190.33 1.36 190.66 0 191 C0 127.97 0 64.94 0 0 Z " fill="#1E1E1F" transform="translate(368,291)"/>
<path d="M0 0 C0.99 0.33 1.98 0.66 3 1 C3.6875 3.0625 3.6875 3.0625 4 5 C4.66 5 5.32 5 6 5 C10 10.29411765 10 10.29411765 10 14 C10.66 14 11.32 14 12 14 C13.33858524 16.28874173 14.67101014 18.58069656 16 20.875 C16.3815625 21.52597656 16.763125 22.17695313 17.15625 22.84765625 C20 27.7734375 20 27.7734375 20 30 C20.66 30 21.32 30 22 30 C23.33957921 32.78871177 24.67058435 35.58143062 26 38.375 C26.57234375 39.56609375 26.57234375 39.56609375 27.15625 40.78125 C27.5171875 41.54179687 27.878125 42.30234375 28.25 43.0859375 C28.58515625 43.7876709 28.9203125 44.4894043 29.265625 45.21240234 C30 47 30 47 30 49 C30.66 49 31.32 49 32 49 C32.32613281 49.79664063 32.65226563 50.59328125 32.98828125 51.4140625 C35.17030722 56.70499274 37.39205712 61.9026571 40 67 C41.9849806 71.19051459 43.42486558 74.32647866 43 79 C40.2027092 76.93243723 39.97307727 75.85559629 39.3125 72.3125 C39.1578125 70.6728125 39.1578125 70.6728125 39 69 C38.34 69 37.68 69 37 69 C36.54560547 67.74896484 36.54560547 67.74896484 36.08203125 66.47265625 C33.87328467 60.53962312 31.59652671 54.91471734 28.38671875 49.45703125 C25.96169351 45.1602964 23.88449556 40.67909009 21.74609375 36.234375 C20.0848347 33.15714347 18.18287262 30.71371795 16 28 C15.04511511 25.67134204 14.58009342 23.46539702 14 21 C13.34 21 12.68 21 12 21 C10.44921875 18.65625 10.44921875 18.65625 8.6875 15.5 C6.54881883 11.71927702 4.39767713 7.97539213 2.0625 4.3125 C0 1 0 1 0 0 Z " fill="#FAFAFC" transform="translate(669,155)"/>
<path d="M0 0 C3.48672455 1.5487544 6.18554031 3.64512345 9.125 6.0625 C12.38551023 8.80448747 12.38551023 8.80448747 16 11 C16 11.66 16 12.32 16 13 C16.66 13 17.32 13 18 13 C18 13.66 18 14.32 18 15 C19.32 15.33 20.64 15.66 22 16 C22 16.66 22 17.32 22 18 C22.5775 18.28875 23.155 18.5775 23.75 18.875 C25.83333333 19.91666667 27.91666667 20.95833333 30 22 C30 22.66 30 23.32 30 24 C30.72574219 24.268125 31.45148438 24.53625 32.19921875 24.8125 C34.96864024 25.98670381 37.30919434 27.3394324 39.8125 29 C40.60269531 29.515625 41.39289063 30.03125 42.20703125 30.5625 C42.79871094 31.036875 43.39039063 31.51125 44 32 C44 32.66 44 33.32 44 34 C44.53625 34.103125 45.0725 34.20625 45.625 34.3125 C48.62502044 35.18092697 51.2379535 36.55620296 54 38 C54 38.66 54 39.32 54 40 C55.29164063 40.37705078 55.29164063 40.37705078 56.609375 40.76171875 C60.19885458 42.07262316 63.04101086 43.74562646 66.25 45.8125 C71.66864915 49.25012922 77.19137348 52.27269906 83 55 C80 56 80 56 77 55 C77 54.34 77 53.68 77 53 C76.0925 52.896875 75.185 52.79375 74.25 52.6875 C70.92070026 51.98322506 69.56280941 51.12094572 67 49 C65.515 48.505 65.515 48.505 64 48 C64 47.34 64 46.68 64 46 C63.27039063 45.896875 62.54078125 45.79375 61.7890625 45.6875 C58.73513679 44.93471159 56.92139381 43.8201028 54.375 42 C51.82203869 40.18765887 49.99311875 38.99770625 47 38 C47 37.34 47 36.68 47 36 C45.68 35.67 44.36 35.34 43 35 C43 34.34 43 33.68 43 33 C41.7934375 32.814375 41.7934375 32.814375 40.5625 32.625 C39.716875 32.41875 38.87125 32.2125 38 32 C37.505 31.01 37.505 31.01 37 30 C34.98330173 28.86649466 34.98330173 28.86649466 33 28 C33 27.34 33 26.68 33 26 C32.195625 25.87625 31.39125 25.7525 30.5625 25.625 C29.716875 25.41875 28.87125 25.2125 28 25 C27.67 24.34 27.34 23.68 27 23 C26.01 22.67 25.02 22.34 24 22 C24 21.34 24 20.68 24 20 C23.443125 19.731875 22.88625 19.46375 22.3125 19.1875 C17.37184896 16.65040893 13.93052049 13.93052049 10 10 C7.36178973 7.88943178 4.6970436 5.81978657 2.01171875 3.76953125 C1.34785156 3.18558594 0.68398437 2.60164062 0 2 C0 1.34 0 0.68 0 0 Z " fill="#F9F9FB" transform="translate(122,643)"/>
<path d="M0 0 C0.66 0.33 1.32 0.66 2 1 C0.625 2.5 0.625 2.5 -1 4 C-1.66 4 -2.32 4 -3 4 C-2.67 52.51 -2.34 101.02 -2 151 C-2.66 151 -3.32 151 -4 151 C-4.09336927 131.75505289 -4.16394279 112.51015164 -4.20724869 93.26502514 C-4.22788927 84.3295199 -4.25603832 75.39415525 -4.30175781 66.45874023 C-4.34157993 58.67220684 -4.36742192 50.88577524 -4.37635398 43.09914285 C-4.38157662 38.974696 -4.39388238 34.85054041 -4.42292023 30.72618675 C-4.45001652 26.84626128 -4.45845689 22.96674778 -4.45243073 19.08673668 C-4.45353358 17.66086083 -4.46152224 16.23497159 -4.4768219 14.8091774 C-4.49665499 12.86602427 -4.48957019 10.92265141 -4.48101807 8.97941589 C-4.48470524 7.89077838 -4.48839241 6.80214087 -4.49219131 5.68051434 C-4 3 -4 3 -1.96993637 1.12628651 C-1.31985737 0.75461196 -0.66977837 0.38293741 0 0 Z " fill="#434443" transform="translate(372,514)"/>
<path d="M0 0 C22.15779468 1.15779468 22.15779468 1.15779468 26 5 C28.89471921 5.36341457 31.77569468 5.66918612 34.6796875 5.9375 C36.00348923 6.06499634 36.00348923 6.06499634 37.35403442 6.19506836 C40.1939752 6.46755555 43.03446186 6.73381967 45.875 7 C47.7526426 7.17928542 49.63024731 7.35896818 51.5078125 7.5390625 C60.33630646 8.38337969 69.16630205 9.21178627 78 10 C78 10.33 78 10.66 78 11 C45.48571149 11.41277905 45.48571149 11.41277905 32 9 C32 8.34 32 7.68 32 7 C31.1028125 6.97421875 30.205625 6.9484375 29.28125 6.921875 C22.02428898 6.59201314 15.1850269 5.81947667 8.125 4.0625 C7.42955078 3.89266602 6.73410156 3.72283203 6.01757812 3.54785156 C4.32496305 3.10220316 2.65857099 2.55918742 1 2 C0.67 1.34 0.34 0.68 0 0 Z " fill="#F7F8FA" transform="translate(274,725)"/>
<path d="M0 0 C3.35019856 1.39771725 4.90609174 2.89260006 6.9375 5.875 C8.81257567 8.51152772 10.24809583 10.19847666 12.8125 12.25 C15 14 15 14 15.8125 16.25 C15.874375 16.8275 15.93625 17.405 16 18 C16.66 18 17.32 18 18 18 C19.2890625 19.4609375 19.2890625 19.4609375 20.625 21.375 C21.07101562 22.00148437 21.51703125 22.62796875 21.9765625 23.2734375 C23 25 23 25 23 27 C23.66 27 24.32 27 25 27 C25.33 28.32 25.66 29.64 26 31 C26.66 31 27.32 31 28 31 C28.33 32.65 28.66 34.3 29 36 C28.34 35.67 27.68 35.34 27 35 C27 34.34 27 33.68 27 33 C26.34 33 25.68 33 25 33 C23.78514615 31.27578573 22.65181296 29.49365116 21.5625 27.6875 C19.57419378 24.40228561 17.71145654 21.6948727 15 19 C15 18.34 15 17.68 15 17 C14.34 17 13.68 17 13 17 C8.16980619 11.75951946 3.76364534 6.0545599 0 0 Z " fill="#FAFBFB" transform="translate(640,119)"/>
<path d="M0 0 C1.32 0.33 2.64 0.66 4 1 C4 1.66 4 2.32 4 3 C4.99 3.33 5.98 3.66 7 4 C7 4.66 7 5.32 7 6 C7.556875 6.226875 8.11375 6.45375 8.6875 6.6875 C11.65239972 8.37028092 13.616515 10.56108512 16 13 C17.86326637 14.57989461 19.74448632 16.13253798 21.64453125 17.66796875 C22.09183594 18.10753906 22.53914062 18.54710938 23 19 C23 19.66 23 20.32 23 21 C23.66 21 24.32 21 25 21 C26.7143618 22.95927063 28.38405168 24.95880212 30 27 C29.67 27.66 29.34 28.32 29 29 C28.5875 28.58226318 28.175 28.16452637 27.75 27.73413086 C17.98990868 17.80750719 17.98990868 17.80750719 7.65234375 8.49609375 C4.79923823 5.91278544 2.43091822 2.97787482 0 0 Z " fill="#F9F9FB" transform="translate(610,90)"/>
<path d="M0 0 C1.08287842 3.24863525 0.85269793 3.87344094 0 7 C0 8.32 0 9.64 0 11 C-0.33 11.66 -0.66 12.32 -1 13 C-3.31 12.67 -5.62 12.34 -8 12 C-6.85573734 10.186508 -5.70954608 8.37423275 -4.5625 6.5625 C-3.60537109 5.04849609 -3.60537109 5.04849609 -2.62890625 3.50390625 C-1 1 -1 1 0 0 Z " fill="#D4D4D9" transform="translate(438,568)"/>
<path d="M0 0 C0.66 0.66 1.32 1.32 2 2 C1.01 2.33 0.02 2.66 -1 3 C-0.67 4.65 -0.34 6.3 0 8 C-3.28696233 8.79953138 -4.71023192 9.09658936 -8 8 C-10.00875442 8.27571139 -12.01178687 8.60235737 -14 9 C-11.48367951 6.14015453 -8.66114447 4.58531178 -5.3125 2.8125 C-4.31863281 2.28269531 -3.32476562 1.75289063 -2.30078125 1.20703125 C-1.54152344 0.80871094 -0.78226562 0.41039062 0 0 Z " fill="#D6D7DB" transform="translate(389,470)"/>
<path d="M0 0 C0 2.62113708 -0.31292445 4.50935112 -1 7 C-1.66 7 -2.32 7 -3 7 C-3 6.34 -3 5.68 -3 5 C-4.32 5.33 -5.64 5.66 -7 6 C-7 6.66 -7 7.32 -7 8 C-8.32 7.67 -9.64 7.34 -11 7 C-11.33 7.66 -11.66 8.32 -12 9 C-12.99 8.34 -13.98 7.68 -15 7 C-13.06730041 5.82539808 -11.12866687 4.66055528 -9.1875 3.5 C-8.10855469 2.8503125 -7.02960937 2.200625 -5.91796875 1.53125 C-3 0 -3 0 0 0 Z " fill="#D1D2D6" transform="translate(525,391)"/>
<path d="M0 0 C0.66 0.66 1.32 1.32 2 2 C1.21625 2.598125 0.4325 3.19625 -0.375 3.8125 C-3.14574323 5.91085249 -3.14574323 5.91085249 -5 9 C-8.5 9.8125 -8.5 9.8125 -12 10 C-12.66 9.34 -13.32 8.68 -14 8 C-9.38 5.36 -4.76 2.72 0 0 Z " fill="#3C3D40" transform="translate(467,458)"/>
<path d="M0 0 C2.97 0.33 5.94 0.66 9 1 C8.34 1.66 7.68 2.32 7 3 C7.99 3.66 8.98 4.32 10 5 C9.67 6.32 9.34 7.64 9 9 C5.7 7.02 2.4 5.04 -1 3 C-0.67 2.01 -0.34 1.02 0 0 Z " fill="#404042" transform="translate(276,425)"/>
<path d="M0 0 C3.25535512 4.88303268 3 9.32544023 3 15 C-0.51098025 10.98745115 -2.76537994 6.79016959 -5 2 C-3.68 2.33 -2.36 2.66 -1 3 C-0.67 2.01 -0.34 1.02 0 0 Z " fill="#D0D1D4" transform="translate(396,105)"/>
<path d="M0 0 C0.66 0 1.32 0 2 0 C2.8427743 2.39287704 3.67437002 4.78871019 4.5 7.1875 C4.73847656 7.86103516 4.97695313 8.53457031 5.22265625 9.22851562 C6.48727592 12.93204467 7.30451221 16.07940536 7 20 C5 19 5 19 4.21875 16.890625 C3.9815625 16.01921875 3.744375 15.1478125 3.5 14.25 C2.71328415 11.44657601 1.92546335 8.81954285 0.8125 6.125 C0 4 0 4 0 0 Z " fill="#F9FAFC" transform="translate(712,234)"/>
<path d="M0 0 C0 0.99 0 1.98 0 3 C-0.99 3.66 -1.98 4.32 -3 5 C-2.67 5.66 -2.34 6.32 -2 7 C-2.61875 7.144375 -3.2375 7.28875 -3.875 7.4375 C-6.03258322 7.93152225 -6.03258322 7.93152225 -8 9 C-8.99 8.34 -9.98 7.68 -11 7 C-4.36842105 0 -4.36842105 0 0 0 Z " fill="#3B3D3D" transform="translate(447,471)"/>
<path d="M0 0 C0.66 0.33 1.32 0.66 2 1 C1.61328125 1.43570312 1.2265625 1.87140625 0.828125 2.3203125 C-2.43984501 6.05744652 -5.34140589 9.8076016 -8 14 C-9.23668049 10.28995854 -9.26281849 8.71417204 -8 5 C-5.55705323 2.89456561 -2.98658478 1.2276146 0 0 Z " fill="#3F4043" transform="translate(550,409)"/>
<path d="M0 0 C2 4 2 4 1.25 7.6875 C0 11 0 11 -2 12 C-2.66 11.34 -3.32 10.68 -4 10 C-4.66 9.67 -5.32 9.34 -6 9 C-4.02 6.03 -2.04 3.06 0 0 Z " fill="#D2D3D7" transform="translate(533,434)"/>
<path d="M0 0 C0 0.99 0 1.98 0 3 C-1.65 3 -3.3 3 -5 3 C-4.67 3.99 -4.34 4.98 -4 6 C-7.6441774 8.4294516 -9.71241272 8.16179575 -14 8 C-4.57142857 0 -4.57142857 0 0 0 Z " fill="#CBCBCE" transform="translate(475,420)"/>
<path d="M0 0 C4.42857143 5.14285714 4.42857143 5.14285714 5 9 C3.68 9.33 2.36 9.66 1 10 C1 9.34 1 8.68 1 8 C0.34 8 -0.32 8 -1 8 C-1.93065133 5.39417629 -2.14917407 4.35801776 -1.0625 1.75 C-0.711875 1.1725 -0.36125 0.595 0 0 Z " fill="#3A3C3C" transform="translate(387,101)"/>
<path d="M0 0 C0.66 0 1.32 0 2 0 C2 0.66 2 1.32 2 2 C3.32 1.67 4.64 1.34 6 1 C6 1.99 6 2.98 6 4 C4.02 4.99 2.04 5.98 0 7 C-2 5 -2 5 -3 2 C-2.01 2 -1.02 2 0 2 C0 1.34 0 0.68 0 0 Z " fill="#1B1B1D" transform="translate(452,426)"/>
<path d="M0 0 C1.485 0.99 1.485 0.99 3 2 C3.66 1.67 4.32 1.34 5 1 C6.25 7.625 6.25 7.625 4 11 C0 4.5 0 4.5 0 0 Z " fill="#D3D4D7" transform="translate(489,266)"/>
<path d="M0 0 C4.90579632 0.42049683 6.7185393 2.47843242 10 6 C11.96296057 7.71642761 13.97718225 9.35352044 16 11 C15.67 11.66 15.34 12.32 15 13 C14.37351562 12.50628906 13.74703125 12.01257813 13.1015625 11.50390625 C12.28429687 10.86324219 11.46703125 10.22257812 10.625 9.5625 C9.81289063 8.92441406 9.00078125 8.28632812 8.1640625 7.62890625 C6.10601894 5.97776453 6.10601894 5.97776453 4 5 C4 4.34 4 3.68 4 3 C2.68 2.34 1.36 1.68 0 1 C0 0.67 0 0.34 0 0 Z " fill="#F8F9F9" transform="translate(594,77)"/>
<path d="M0 0 C0.66 0.99 1.32 1.98 2 3 C0.02 5.97 -1.96 8.94 -4 12 C-4.66 10.68 -5.32 9.36 -6 8 C-4.68 7.01 -3.36 6.02 -2 5 C-2.66 4.67 -3.32 4.34 -4 4 C-2.68 2.68 -1.36 1.36 0 0 Z " fill="#3C3E3F" transform="translate(520,448)"/>
<path d="M0 0 C0.66 0.33 1.32 0.66 2 1 C1.40072174 4.35595828 0.15377564 6.37801226 -2 9 C-2.99 8.67 -3.98 8.34 -5 8 C-4.67 6.35 -4.34 4.7 -4 3 C-2.68 2.67 -1.36 2.34 0 2 C0 1.34 0 0.68 0 0 Z " fill="#3A3A3B" transform="translate(462,529)"/>
<path d="M0 0 C-2.54456151 2.96865509 -5.48994665 4.3619751 -9 6 C-9.66 5.34 -10.32 4.68 -11 4 C-10.34 4 -9.68 4 -9 4 C-9 2.68 -9 1.36 -9 0 C-3.375 -1.125 -3.375 -1.125 0 0 Z " fill="#1A1B1C" transform="translate(476,418)"/>
<path d="M0 0 C0.66 0.33 1.32 0.66 2 1 C1.4739075 4.78786597 0.61896089 7.17152224 -2 10 C-2.66 10 -3.32 10 -4 10 C-3.67 8.02 -3.34 6.04 -3 4 C-2.01 3.67 -1.02 3.34 0 3 C0 2.01 0 1.02 0 0 Z " fill="#383A3B" transform="translate(437,563)"/>
<path d="M0 0 C0.99 0 1.98 0 3 0 C2.34 2.97 1.68 5.94 1 9 C0.34 8.34 -0.32 7.68 -1 7 C-1.33 7.66 -1.66 8.32 -2 9 C-2.99 8.67 -3.98 8.34 -5 8 C-4.24266726 6.6589523 -3.46867264 5.32730219 -2.6875 4 C-2.25824219 3.2575 -1.82898438 2.515 -1.38671875 1.75 C-0.70029297 0.88375 -0.70029297 0.88375 0 0 Z " fill="#919295" transform="translate(367,70)"/>
<path d="M0 0 C0.66 0.33 1.32 0.66 2 1 C2 1.99 2 2.98 2 4 C-1.465 5.485 -1.465 5.485 -5 7 C-5.33 5.35 -5.66 3.7 -6 2 C-5.01 2 -4.02 2 -3 2 C-2.01 1.34 -1.02 0.68 0 0 Z " fill="#D4D4D9" transform="translate(430,476)"/>
<path d="M0 0 C-0.3125 1.875 -0.3125 1.875 -1 4 C-4 6 -4 6 -6.6875 5.625 C-7.450625 5.41875 -8.21375 5.2125 -9 5 C-2.87096774 0 -2.87096774 0 0 0 Z " fill="#404043" transform="translate(501,439)"/>
<path d="M0 0 C3.96 1.98 3.96 1.98 8 4 C8 4.66 8 5.32 8 6 C6.35 6.33 4.7 6.66 3 7 C1.68 5.02 0.36 3.04 -1 1 C-0.67 0.67 -0.34 0.34 0 0 Z " fill="#D3D4D9" transform="translate(282,432)"/>
<path d="M0 0 C0.66 0 1.32 0 2 0 C2 0.66 2 1.32 2 2 C2.66 2 3.32 2 4 2 C4 2.99 4 3.98 4 5 C1.6875 6.75 1.6875 6.75 -1 8 C-1.99 7.67 -2.98 7.34 -4 7 C-3.525625 6.401875 -3.05125 5.80375 -2.5625 5.1875 C-0.83534256 2.99617076 -0.83534256 2.99617076 0 0 Z " fill="#1A1A1E" transform="translate(493,402)"/>
<path d="M0 0 C0.66 0.33 1.32 0.66 2 1 C1.34 1.66 0.68 2.32 0 3 C-0.66 2.67 -1.32 2.34 -2 2 C-1.67 3.98 -1.34 5.96 -1 8 C-2.98 7.01 -4.96 6.02 -7 5 C-7 4.34 -7 3.68 -7 3 C-4.69631264 1.93347808 -2.35981813 0.93578995 0 0 Z " fill="#48494A" transform="translate(192,370)"/>
<path d="M0 0 C0.33 0.66 0.66 1.32 1 2 C-0.4375 4.625 -0.4375 4.625 -2 7 C-4.31 6.67 -6.62 6.34 -9 6 C-6.11912454 3.59927045 -3.43595166 1.52708963 0 0 Z " fill="#404042" transform="translate(540,415)"/>
<path d="M0 0 C2.91227269 3.28804981 4.49701212 5.59885603 5 10 C2.37098712 8.47793991 0.15634036 7.15634036 -2 5 C-1.34 3.35 -0.68 1.7 0 0 Z " fill="#3C3E3D" transform="translate(546,365)"/>
<path d="M0 0 C0.99 0 1.98 0 3 0 C4.75 2.25 4.75 2.25 6 5 C5.6875 7.3125 5.6875 7.3125 5 9 C3.0625 7.875 3.0625 7.875 1 6 C0.25 2.8125 0.25 2.8125 0 0 Z " fill="#3E3E41" transform="translate(467,237)"/>
<path d="M0 0 C2.72426311 2.35277269 3.8141763 4.62496331 5 8 C4.34 8.66 3.68 9.32 3 10 C2.30289269 8.71349294 1.61757124 7.42059335 0.9375 6.125 C0.36322266 5.04605469 0.36322266 5.04605469 -0.22265625 3.9453125 C-0.47917969 3.30335938 -0.73570312 2.66140625 -1 2 C-0.67 1.34 -0.34 0.68 0 0 Z " fill="#3B3D3D" transform="translate(483,261)"/>
<path d="M0 0 C2.19963566 2.19963566 2.57049648 2.99347539 3 6 C2.5625 8.75 2.5625 8.75 2 11 C-2 6.5 -2 6.5 -2 2 C-1.34 2 -0.68 2 0 2 C0 1.34 0 0.68 0 0 Z " fill="#D4D5D9" transform="translate(467,225)"/>
<path d="M0 0 C0.99 0.33 1.98 0.66 3 1 C1.02 3.97 1.02 3.97 -1 7 C-3 5.625 -3 5.625 -5 4 C-5 3.34 -5 2.68 -5 2 C-3.68 2.33 -2.36 2.66 -1 3 C-0.67 2.01 -0.34 1.02 0 0 Z " fill="#3C3C3D" transform="translate(383,641)"/>
<path d="M0 0 C1.98 0 3.96 0 6 0 C7.125 3.75 7.125 3.75 6 6 C3.96166576 4.7260411 1.96147874 3.38938077 0 2 C0 1.34 0 0.68 0 0 Z " fill="#414245" transform="translate(341,465)"/>
<path d="M0 0 C1.36741555 2.25221384 2.04066478 3.52557758 1.8125 6.1875 C1.544375 6.785625 1.27625 7.38375 1 8 C0.01 8.33 -0.98 8.66 -2 9 C-2.66 8.34 -3.32 7.68 -4 7 C-2.68 4.69 -1.36 2.38 0 0 Z " fill="#919194" transform="translate(260,247)"/>
<path d="M0 0 C0.99 0 1.98 0 3 0 C2.25 4.75 2.25 4.75 0 7 C-0.99 6.01 -1.98 5.02 -3 4 C-1.6875 2 -1.6875 2 0 0 Z " fill="#39393B" transform="translate(399,616)"/>
<path d="M0 0 C1.32 0.66 2.64 1.32 4 2 C3.34 2 2.68 2 2 2 C1.67 2.99 1.34 3.98 1 5 C-2.0625 6.1875 -2.0625 6.1875 -5 7 C-1.125 1.125 -1.125 1.125 0 0 Z " fill="#D2D3D7" transform="translate(474,518)"/>
<path d="M0 0 C3.96 1.98 3.96 1.98 8 4 C7.67 4.99 7.34 5.98 7 7 C5.35 6.67 3.7 6.34 2 6 C1.34 4.02 0.68 2.04 0 0 Z " fill="#D0CFD4" transform="translate(350,472)"/>
<path d="M0 0 C0.66 0.33 1.32 0.66 2 1 C2 2.32 2 3.64 2 5 C-0.97 5 -3.94 5 -7 5 C-4.702779 3.25728062 -2.40133271 1.60088848 0 0 Z " fill="#CFCED2" transform="translate(488,411)"/>
<path d="M0 0 C0.99 0.33 1.98 0.66 3 1 C3.33 1.99 3.66 2.98 4 4 C1 5 1 5 -2.1875 3.5625 C-3.115625 3.046875 -4.04375 2.53125 -5 2 C-4.360625 1.855625 -3.72125 1.71125 -3.0625 1.5625 C-1.02454854 1.18992819 -1.02454854 1.18992819 0 0 Z M4 1 C6 2 6 2 6 2 Z " fill="#424243" transform="translate(225,394)"/>
<path d="M0 0 C4 2 4 2 6 5 C6 5.99 6 6.98 6 8 C5.01 8.33 4.02 8.66 3 9 C2.01 6.03 1.02 3.06 0 0 Z " fill="#3A3A3B" transform="translate(514,315)"/>
<path d="M0 0 C2.0625 2.25 2.0625 2.25 4 5 C3.75 7.3125 3.75 7.3125 3 9 C2.34 9 1.68 9 1 9 C1 7.68 1 6.36 1 5 C0.34 4.67 -0.32 4.34 -1 4 C-1 1 -1 1 0 0 Z " fill="#404042" transform="translate(443,194)"/>
<path d="M0 0 C0.8353125 0.37125 0.8353125 0.37125 1.6875 0.75 C1.3575 1.74 1.0275 2.73 0.6875 3.75 C-1.9525 3.75 -4.5925 3.75 -7.3125 3.75 C-2.88173077 -0.31153846 -2.88173077 -0.31153846 0 0 Z " fill="#D0D1D4" transform="translate(436.3125,443.25)"/>
<path d="M0 0 C2.9719385 1.12451727 5.33440687 2.22293791 8 4 C8 4.66 8 5.32 8 6 C5.36 5.34 2.72 4.68 0 4 C0 2.68 0 1.36 0 0 Z " fill="#D4D5D9" transform="translate(214,392)"/>
<path d="M0 0 C-4.5 4 -4.5 4 -9 4 C-8.1875 2.0625 -8.1875 2.0625 -7 0 C-3.86650268 -1.04449911 -3.01031744 -0.93423645 0 0 Z " fill="#1A1B1F" transform="translate(529,387)"/>
<path d="M0 0 C2 1 4 2 6 3 C6 3.99 6 4.98 6 6 C6.66 6.33 7.32 6.66 8 7 C6.68 7.33 5.36 7.66 4 8 C2.68 5.36 1.36 2.72 0 0 Z " fill="#D2D2D6" transform="translate(475,246)"/>
<path d="M0 0 C2.0625 0.4375 2.0625 0.4375 4 1 C2.7260411 3.03833424 1.38938077 5.03852126 0 7 C-0.66 7 -1.32 7 -2 7 C-1.125 1.125 -1.125 1.125 0 0 Z " fill="#3A3A3C" transform="translate(508,464)"/>
<path d="M0 0 C0.33 1.32 0.66 2.64 1 4 C0.34 4 -0.32 4 -1 4 C-0.67 5.65 -0.34 7.3 0 9 C-1.32 9.33 -2.64 9.66 -4 10 C-3.43454163 6.04179141 -2.19097652 3.3340947 0 0 Z " fill="#929296" transform="translate(333,126)"/>
<path d="M0 0 C0.99 0.33 1.98 0.66 3 1 C3.12375 1.680625 3.2475 2.36125 3.375 3.0625 C4.09100877 6.4277412 5.02945125 9.70013425 6 13 C2.67467889 10.30807339 1.47545057 6.93453485 0 3 C0 2.01 0 1.02 0 0 Z " fill="#F2F3F6" transform="translate(31,517)"/>
<path d="M0 0 C0.99 0.33 1.98 0.66 3 1 C1.84826645 3.46800047 0.95216435 5.04783565 -1 7 C-1.625 4.625 -1.625 4.625 -2 2 C-1.34 1.34 -0.68 0.68 0 0 Z " fill="#393A3E" transform="translate(466,523)"/>
<path d="M0 0 C-2.36292656 2.52588702 -3.66462511 3.88820837 -7 5 C-7.33 3.68 -7.66 2.36 -8 1 C-5.29120665 -0.35439668 -2.99066732 -0.06501451 0 0 Z " fill="#D1D2D5" transform="translate(441,473)"/>
<path d="M0 0 C2.2477975 2.05233685 3.0022242 3.00667261 4 6 C3.34 6.66 2.68 7.32 2 8 C2 7.34 2 6.68 2 6 C0.68 5.34 -0.64 4.68 -2 4 C-1.34 2.68 -0.68 1.36 0 0 Z " fill="#404144" transform="translate(494,279)"/>
<path d="M0 0 C0.99 0.33 1.98 0.66 3 1 C1.70700306 3.88437779 0.34058637 5.87219421 -2 8 C-2.33 7.01 -2.66 6.02 -3 5 C-1.5625 2.3125 -1.5625 2.3125 0 0 Z " fill="#939495" transform="translate(248,267)"/>
<path d="M0 0 C5.28137429 0.51525603 8.57221156 2.25477117 13 5 C12.01 5.495 12.01 5.495 11 6 C9 5 7 4 5 3 C3.68 3 2.36 3 1 3 C0.67 2.01 0.34 1.02 0 0 Z " fill="#F2F3F6" transform="translate(517,31)"/>
<path d="M0 0 C0.99 0.33 1.98 0.66 3 1 C3 1.66 3 2.32 3 3 C3.99 2.67 4.98 2.34 6 2 C6.33 2.66 6.66 3.32 7 4 C6.01 5.32 5.02 6.64 4 8 C2.68 5.36 1.36 2.72 0 0 Z " fill="#D0D1D5" transform="translate(432,175)"/>
<path d="M0 0 C0.99 0.33 1.98 0.66 3 1 C2.67 1.99 2.34 2.98 2 4 C-0.31 4 -2.62 4 -5 4 C-3.36587557 2.29159719 -2.13093906 1.06546953 0 0 Z " fill="#CFD0D5" transform="translate(453,432)"/>
<path d="M0 0 C1.98 0.99 1.98 0.99 4 2 C3.34 3.65 2.68 5.3 2 7 C0 5 0 5 -0.125 2.375 C-0.08375 1.59125 -0.0425 0.8075 0 0 Z " fill="#D4D5D7" transform="translate(317,144)"/>
<path d="M0 0 C2.25245881 2.68841859 3.88213958 4.64641875 5 8 C4.01 7.67 3.02 7.34 2 7 C2 6.34 2 5.68 2 5 C1.01 5.33 0.02 5.66 -1 6 C-0.67 4.02 -0.34 2.04 0 0 Z " fill="#424347" transform="translate(402,126)"/>
<path d="M0 0 C1 2 1 2 0.375 4.5 C-1 7 -1 7 -6 9 C-4.02 6.03 -2.04 3.06 0 0 Z " fill="#C9CACF" transform="translate(393,631)"/>
<path d="M0 0 C0.99 0.33 1.98 0.66 3 1 C-1.75 4.875 -1.75 4.875 -4 6 C-4.66 5.34 -5.32 4.68 -6 4 C-3.1875 1.9375 -3.1875 1.9375 0 0 Z " fill="#48484B" transform="translate(380,509)"/>
<path d="M0 0 C1.32 1.65 2.64 3.3 4 5 C3.34 5 2.68 5 2 5 C1.67 5.66 1.34 6.32 1 7 C0.01 5.68 -0.98 4.36 -2 3 C-1 1 -1 1 0 0 Z " fill="#D3D4D9" transform="translate(251,503)"/>
<path d="M0 0 C0.99 0 1.98 0 3 0 C3 1.32 3 2.64 3 4 C1.35 4.33 -0.3 4.66 -2 5 C-1.125 1.125 -1.125 1.125 0 0 Z " fill="#D4D4D4" transform="translate(493,491)"/>
<path d="M0 0 C0.66 0.66 1.32 1.32 2 2 C-0.8125 3.5625 -0.8125 3.5625 -4 5 C-4.99 4.67 -5.98 4.34 -7 4 C-4.61426621 2.10786631 -2.92824652 0.97608217 0 0 Z " fill="#3E3E3E" transform="translate(230,353)"/>
<path d="M0 0 C0.6875 1.75 0.6875 1.75 1 4 C-0.3125 6.25 -0.3125 6.25 -2 8 C-2.66 8 -3.32 8 -4 8 C-2.87548273 5.0280615 -1.77706209 2.66559313 0 0 Z " fill="#CFCED2" transform="translate(429,580)"/>
<path d="M0 0 C0.66 1.32 1.32 2.64 2 4 C1.01 4.99 0.02 5.98 -1 7 C-1 6.34 -1 5.68 -1 5 C-1.66 4.67 -2.32 4.34 -3 4 C-2.01 2.68 -1.02 1.36 0 0 Z " fill="#CACBD0" transform="translate(467,527)"/>
<path d="M0 0 C0.33 0.99 0.66 1.98 1 3 C-1.35438733 4.42944945 -2.48032433 5.08661261 -5.25 4.625 C-5.8275 4.41875 -6.405 4.2125 -7 4 C-4.69 2.68 -2.38 1.36 0 0 Z " fill="#434546" transform="translate(411,491)"/>
<path d="M0 0 C0 0.66 0 1.32 0 2 C-0.66 2 -1.32 2 -2 2 C-2 1.34 -2 0.68 -2 0 C-2.99 0 -3.98 0 -5 0 C-5.33 0.66 -5.66 1.32 -6 2 C-6.99 1.01 -7.98 0.02 -9 -1 C-5.79937313 -2.60031344 -3.27728194 -1.03173691 0 0 Z " fill="#CDCED3" transform="translate(371,483)"/>
<path d="M0 0 C0.66 0.99 1.32 1.98 2 3 C-0.97 3.66 -3.94 4.32 -7 5 C-4.49183541 2.49183541 -3.09162264 1.38589981 0 0 Z " fill="#C5C4C9" transform="translate(382,474)"/>
<path d="M0 0 C1.98 0.99 1.98 0.99 4 2 C4 2.66 4 3.32 4 4 C4.66 4.33 5.32 4.66 6 5 C5.01 5.33 4.02 5.66 3 6 C1.5 4.6875 1.5 4.6875 0 3 C0 2.01 0 1.02 0 0 Z " fill="#1A1A1C" transform="translate(408,451)"/>
<path d="M0 0 C1.32 0.66 2.64 1.32 4 2 C2.68 2.99 1.36 3.98 0 5 C-0.99 4.01 -1.98 3.02 -3 2 C-2.01 1.34 -1.02 0.68 0 0 Z " fill="#1B1B1B" transform="translate(430,441)"/>
<path d="M0 0 C0.33 0.66 0.66 1.32 1 2 C1.66 2.33 2.32 2.66 3 3 C1.68 4.65 0.36 6.3 -1 8 C-1.93065133 5.39417629 -2.14917407 4.35801776 -1.0625 1.75 C-0.711875 1.1725 -0.36125 0.595 0 0 Z " fill="#3C3D40" transform="translate(531,431)"/>
<path d="M0 0 C1.32 1.32 2.64 2.64 4 4 C3.67 4.66 3.34 5.32 3 6 C1.68 5.67 0.36 5.34 -1 5 C-0.67 3.35 -0.34 1.7 0 0 Z " fill="#D3D4D8" transform="translate(189,416)"/>
<path d="M0 0 C0.66 0.99 1.32 1.98 2 3 C1.125 5.6875 1.125 5.6875 0 8 C-0.99 7.67 -1.98 7.34 -3 7 C-2.01 4.69 -1.02 2.38 0 0 Z " fill="#313131" transform="translate(541,415)"/>
<path d="M0 0 C2 3.75 2 3.75 2 6 C0.35 6.33 -1.3 6.66 -3 7 C-1.125 2.25 -1.125 2.25 0 0 Z " fill="#969698" transform="translate(213,325)"/>
</svg>
