<?xml version="1.0" encoding="UTF-8"?>
<svg version="1.1" xmlns="http://www.w3.org/2000/svg" width="2500" height="2500">
<path d="M0 0 C4.35948068 0.00460645 8.71868061 -0.00222045 13.078125 -0.02050781 C37.15301256 -0.12036839 61.12765452 0.21923796 85.16259766 1.69458008 C86.668431 1.78692712 86.668431 1.78692712 88.20468521 1.88113976 C182.85319835 7.82154802 276.77139914 24.97087801 411.37078857 66.59753418 C413.40891368 67.30092139 415.4480313 68.00136602 417.48730469 68.70141602 C458.7338163 82.89088029 499.0344714 99.64930088 538.45166016 118.31567383 C539.510625 118.81695801 540.56958984 119.31824219 541.66064453 119.8347168 C548.94278655 123.29055572 556.20496223 126.78614317 563.45166016 130.31567383 C564.33547363 130.74589844 565.21928711 131.17612305 566.12988281 131.61938477 C578.42887586 137.6293066 590.48340924 144.03431945 602.45898438 150.66333008 C605.58782925 152.39085676 608.72440504 154.10375996 611.86181641 155.81567383 C628.35734713 164.85259776 644.45895401 174.42248764 660.45166016 184.31567383 C661.27408203 184.82066406 662.09650391 185.3256543 662.94384766 185.84594727 C699.01471163 208.01054394 734.07760542 232.27379778 767.45166016 258.31567383 C767.99564453 258.73880859 768.53962891 259.16194336 769.10009766 259.59790039 C778.04683662 266.56048354 786.86817214 273.67128828 795.64746094 280.84350586 C797.23439061 282.13838894 798.82514752 283.42857861 800.41650391 284.71801758 C807.26639795 290.28041318 813.96571498 296.00712878 820.64892578 301.76733398 C822.42651928 303.29408073 824.2111803 304.81209091 825.99853516 306.32739258 C832.96561247 312.24289024 839.76561628 318.29929969 846.45166016 324.53051758 C849.00534145 326.90971876 851.59462878 329.24488745 854.20166016 331.56567383 C867.7383855 343.72683281 880.73655571 356.43722113 893.58496094 369.31860352 C896.10577768 371.84485412 898.63199753 374.36561527 901.15869141 376.88598633 C902.79052307 378.51847777 904.42204506 380.15127884 906.05322266 381.78442383 C906.79496735 382.52414429 907.53671204 383.26386475 908.30093384 384.02600098 C912.32149481 388.06452856 916.17417581 392.1885478 919.87387085 396.52380371 C921.49750757 398.367742 923.19767961 400.09595991 924.95166016 401.81567383 C927.96579598 404.78302706 930.75083348 407.88912675 933.51025391 411.09301758 C935.73970077 413.64544266 938.03167397 416.13454897 940.32666016 418.62817383 C944.45072692 423.1447122 948.33102881 427.80700398 952.17041016 432.56567383 C954.51884984 435.39666961 956.96075918 438.1095098 959.45166016 440.81567383 C964.34540247 446.14541776 968.91273331 451.68337633 973.45166016 457.31567383 C974.44934821 458.53394946 975.44810926 459.7513469 976.44775391 460.96801758 C982.60853967 468.48005026 988.63112223 476.07812769 994.50317383 483.81811523 C997.87424105 488.26131225 1001.28798037 492.66674146 1004.7355957 497.05078125 C1010.84649404 504.83263491 1016.70274257 512.74248713 1022.34960938 520.86669922 C1024.75782349 524.32817074 1027.19022154 527.77142824 1029.63374329 531.20802307 C1036.34311445 540.65579756 1042.84764534 550.22969159 1049.26416016 559.87817383 C1050.04178207 561.04597382 1050.04178207 561.04597382 1050.83511353 562.23736572 C1064.35019715 582.54974979 1077.20015538 603.21521489 1089.45166016 624.31567383 C1089.95262207 625.17725098 1090.45358398 626.03882813 1090.96972656 626.92651367 C1135.33014091 703.39954016 1171.39375102 784.31612138 1227.45166016 973.31567383 C1227.76009857 974.69154663 1227.76009857 974.69154663 1228.07476807 976.09521484 C1240.20613127 1030.45915495 1248.81831162 1085.51246892 1253.70166016 1141.00317383 C1253.81749451 1142.30464859 1253.81749451 1142.30464859 1253.93566895 1143.63241577 C1254.51046578 1150.18893685 1254.99536101 1156.7499313 1255.45166016 1163.31567383 C1255.53886322 1164.5294873 1255.62606628 1165.74330078 1255.71591187 1166.99389648 C1257.48599832 1192.2816245 1257.7963046 1217.52025492 1257.76733398 1242.86401367 C1257.76272753 1247.22349435 1257.76955444 1251.58269429 1257.7878418 1255.94213867 C1257.88770238 1280.01702623 1257.54809603 1303.99166819 1256.07275391 1328.02661133 C1256.01118921 1329.03050022 1255.94962452 1330.03438911 1255.88619423 1331.06869888 C1249.94578596 1425.71721203 1232.79645597 1519.63541281 1191.1697998 1654.23480225 C1190.4664126 1656.27292735 1189.76596797 1658.31204498 1189.06591797 1660.35131836 C1174.87739222 1701.59510182 1158.13239365 1741.90773876 1139.45166016 1781.31567383 C1138.65042725 1783.01071045 1138.65042725 1783.01071045 1137.83300781 1784.73999023 C1125.45438413 1810.8582003 1112.42733821 1836.62479676 1097.9765625 1861.66430664 C1096.46148177 1864.29859686 1094.96379821 1866.94203189 1093.47119141 1869.58911133 C1076.25015978 1900.07852697 1057.34177394 1929.50613993 1037.45166016 1958.31567383 C1036.8301709 1959.21688965 1036.20868164 1960.11810547 1035.56835938 1961.04663086 C1023.98665658 1977.80772869 1011.98525602 1994.25320146 999.45166016 2010.31567383 C998.81695801 2011.13165039 998.81695801 2011.13165039 998.16943359 2011.96411133 C991.20685045 2020.91085029 984.0960457 2029.73218581 976.92382812 2038.51147461 C975.62894505 2040.09840429 974.33875537 2041.68916119 973.04931641 2043.28051758 C967.48559858 2050.1320399 961.75731833 2056.83266336 955.99560547 2063.51733398 C954.4812993 2065.28115107 952.97668633 2067.05274273 951.47509766 2068.82739258 C945.79437893 2075.52827995 939.97759309 2082.06305431 933.96899414 2088.47216797 C931.11292178 2091.51913686 928.30269012 2094.58805179 925.57666016 2097.75317383 C922.94785508 2100.80284671 920.16046966 2103.63041594 917.28663635 2106.44825745 C915.54451791 2108.22117446 913.92937372 2110.04831939 912.31860352 2111.94042969 C908.11177423 2116.77588875 903.61654474 2121.2945901 899.08056641 2125.81958008 C898.19940659 2126.70169662 897.31824677 2127.58381317 896.41038513 2128.49266052 C894.08589265 2130.81800192 891.75900108 2133.14091001 889.43127441 2135.4630127 C888.01521337 2136.87712206 886.60111695 2138.29316503 885.18774414 2139.70996094 C882.4463776 2142.45754102 879.70152982 2145.20159489 876.95556641 2147.94458008 C875.70520348 2149.19797935 875.70520348 2149.19797935 874.42958069 2150.47669983 C870.15023567 2154.73913375 865.80919937 2158.85617458 861.20933533 2162.77207947 C859.37533465 2164.38270306 857.6601766 2166.07319314 855.95166016 2167.81567383 C852.98430693 2170.82980965 849.87820723 2173.61484716 846.67431641 2176.37426758 C844.12189133 2178.60371444 841.63278502 2180.89568765 839.13916016 2183.19067383 C834.62262178 2187.31474059 829.96033 2191.19504248 825.20166016 2195.03442383 C822.37066437 2197.38286351 819.65782418 2199.82477285 816.95166016 2202.31567383 C811.62191622 2207.20941614 806.08395765 2211.77674698 800.45166016 2216.31567383 C799.23338452 2217.31336188 798.01598709 2218.31212294 796.79931641 2219.31176758 C789.28728372 2225.47255334 781.68920629 2231.4951359 773.94921875 2237.3671875 C769.50602173 2240.73825473 765.10059252 2244.15199404 760.71655273 2247.59960938 C752.93469908 2253.71050771 745.02484685 2259.56675625 736.90063477 2265.21362305 C733.43916324 2267.62183716 729.99590574 2270.05423522 726.55931091 2272.49775696 C717.11153643 2279.20712813 707.5376424 2285.71165901 697.88916016 2292.12817383 C696.72136017 2292.90579575 696.72136017 2292.90579575 695.52996826 2293.6991272 C675.21758419 2307.21421082 654.5521191 2320.06416905 633.45166016 2332.31567383 C632.59008301 2332.81663574 631.72850586 2333.31759766 630.84082031 2333.83374023 C554.36779382 2378.19415458 473.45121261 2414.25776469 284.45166016 2470.31567383 C283.07578735 2470.62411224 283.07578735 2470.62411224 281.67211914 2470.93878174 C227.30817904 2483.07014494 172.25486507 2491.68232529 116.76416016 2496.56567383 C115.46268539 2496.68150818 115.46268539 2496.68150818 114.13491821 2496.79968262 C107.57839713 2497.37447945 101.01740269 2497.85937468 94.45166016 2498.31567383 C93.23784668 2498.40287689 92.0240332 2498.49007996 90.7734375 2498.57992554 C65.48570949 2500.35001199 40.24707907 2500.66031828 14.90332031 2500.63134766 C10.54383963 2500.62674121 6.1846397 2500.63356811 1.82519531 2500.65185547 C-22.24969225 2500.75171605 -46.22433421 2500.4121097 -70.25927734 2498.93676758 C-71.26316624 2498.87520288 -72.26705513 2498.81363819 -73.3013649 2498.7502079 C-167.94987804 2492.80979963 -261.86807883 2475.66046964 -396.46746826 2434.03381348 C-398.50559337 2433.33042627 -400.54471099 2432.62998164 -402.58398438 2431.92993164 C-443.83049599 2417.74046737 -484.13115109 2400.98204678 -523.54833984 2382.31567383 C-524.60730469 2381.81438965 -525.66626953 2381.31310547 -526.75732422 2380.79663086 C-534.03946624 2377.34079194 -541.30164192 2373.84520448 -548.54833984 2370.31567383 C-549.43215332 2369.88544922 -550.3159668 2369.45522461 -551.2265625 2369.01196289 C-563.52555555 2363.00204106 -575.58008893 2356.59702821 -587.55566406 2349.96801758 C-590.68450893 2348.24049089 -593.82108472 2346.52758769 -596.95849609 2344.81567383 C-613.45402681 2335.77874989 -629.5556337 2326.20886001 -645.54833984 2316.31567383 C-646.37076172 2315.81068359 -647.19318359 2315.30569336 -648.04052734 2314.78540039 C-684.11139132 2292.62080371 -719.1742851 2268.35754988 -752.54833984 2242.31567383 C-753.09232422 2241.89253906 -753.63630859 2241.4694043 -754.19677734 2241.03344727 C-763.14351631 2234.07086412 -771.96485183 2226.96005937 -780.74414062 2219.7878418 C-782.3310703 2218.49295872 -783.92182721 2217.20276904 -785.51318359 2215.91333008 C-792.36307764 2210.35093448 -799.06239466 2204.62421888 -805.74560547 2198.86401367 C-807.52319897 2197.33726692 -809.30785999 2195.81925675 -811.09521484 2194.30395508 C-818.06229216 2188.38845742 -824.86229596 2182.33204796 -831.54833984 2176.10083008 C-834.10202114 2173.7216289 -836.69130847 2171.38646021 -839.29833984 2169.06567383 C-852.83506519 2156.90451485 -865.83323539 2144.19412652 -878.68164062 2131.31274414 C-881.20245737 2128.78649354 -883.72867722 2126.26573239 -886.25537109 2123.74536133 C-887.88720276 2122.11286988 -889.51872475 2120.48006882 -891.14990234 2118.84692383 C-891.89164703 2118.10720337 -892.63339172 2117.36748291 -893.39761353 2116.60534668 C-897.4181745 2112.56681909 -901.27085549 2108.44279986 -904.97055054 2104.10754395 C-906.59418725 2102.26360566 -908.2943593 2100.53538775 -910.04833984 2098.81567383 C-913.06247567 2095.8483206 -915.84751317 2092.7422209 -918.60693359 2089.53833008 C-920.83638046 2086.985905 -923.12835366 2084.49679869 -925.42333984 2082.00317383 C-929.54740661 2077.48663545 -933.42770849 2072.82434367 -937.26708984 2068.06567383 C-939.61552953 2065.23467804 -942.05743887 2062.52183785 -944.54833984 2059.81567383 C-949.44208216 2054.4859299 -954.009413 2048.94797132 -958.54833984 2043.31567383 C-959.54602789 2042.0973982 -960.54478895 2040.88000076 -961.54443359 2039.66333008 C-967.70521935 2032.1512974 -973.72780191 2024.55321997 -979.59985352 2016.81323242 C-982.97092074 2012.3700354 -986.38466006 2007.9646062 -989.83227539 2003.58056641 C-995.94317373 1995.79871275 -1001.79942226 1987.88886052 -1007.44628906 1979.76464844 C-1009.85450318 1976.30317691 -1012.28690123 1972.85991941 -1014.73042297 1969.42332458 C-1021.43979414 1959.9755501 -1027.94432503 1950.40165607 -1034.36083984 1940.75317383 C-1034.87925446 1939.9746405 -1035.39766907 1939.19610718 -1035.93179321 1938.39398193 C-1049.44687684 1918.08159787 -1062.29683507 1897.41613277 -1074.54833984 1876.31567383 C-1075.04930176 1875.45409668 -1075.55026367 1874.59251953 -1076.06640625 1873.70483398 C-1119.35529954 1799.07900525 -1154.20543332 1720.56364872 -1238.51708984 1363.42114258 C-1238.57956909 1362.75834793 -1238.64204834 1362.09555328 -1238.7064209 1361.41267395 C-1239.43256491 1353.38956666 -1239.97891355 1345.35110556 -1240.54833984 1337.31567383 C-1240.68820816 1335.36270638 -1240.68820816 1335.36270638 -1240.8309021 1333.37028503 C-1242.5768082 1308.1698119 -1242.89294188 1283.02212517 -1242.86401367 1257.76733398 C-1242.85940722 1253.40785331 -1242.86623412 1249.04865337 -1242.88452148 1244.68920898 C-1242.98438206 1220.61432142 -1242.64477571 1196.63967946 -1241.16943359 1172.60473633 C-1241.07708655 1171.09890299 -1241.07708655 1171.09890299 -1240.98287392 1169.56264877 C-1235.04246565 1074.91413563 -1217.89313566 980.99593484 -1176.26647949 846.39654541 C-1175.56309229 844.3584203 -1174.86264766 842.31930268 -1174.16259766 840.2800293 C-1159.97313338 799.03351769 -1143.21471279 758.73286258 -1124.54833984 719.31567383 C-1124.04705566 718.25670898 -1123.54577148 717.19774414 -1123.02929688 716.10668945 C-1119.57345795 708.82454743 -1116.0778705 701.56237176 -1112.54833984 694.31567383 C-1112.11811523 693.43186035 -1111.68789062 692.54804687 -1111.24462891 691.63745117 C-1105.23470707 679.33845813 -1098.82969422 667.28392474 -1092.20068359 655.30834961 C-1090.47315691 652.17950474 -1088.76025371 649.04292895 -1087.04833984 645.90551758 C-1078.01141591 629.40998686 -1068.44152603 613.30837997 -1058.54833984 597.31567383 C-1058.04334961 596.49325195 -1057.53835938 595.67083008 -1057.01806641 594.82348633 C-1034.85346973 558.75262236 -1010.59021589 523.68972857 -984.54833984 490.31567383 C-984.12520508 489.77168945 -983.70207031 489.22770508 -983.26611328 488.66723633 C-976.30481107 479.72214333 -969.19556007 470.90214169 -962.02490234 462.12426758 C-960.71786444 460.52331903 -959.41410629 458.91969407 -958.11083984 457.31567383 C-952.34902914 450.23687782 -946.4786596 443.25339385 -940.54833984 436.31567383 C-940.03223145 435.71174805 -939.51612305 435.10782227 -938.984375 434.4855957 C-932.23778505 426.60738594 -925.36722018 418.87072929 -918.29833984 411.28051758 C-915.93163403 408.73792986 -913.6083279 406.16003541 -911.29833984 403.56567383 C-899.13709546 390.02901633 -886.4267994 377.03078513 -873.54541016 364.18237305 C-871.01915955 361.6615563 -868.4983984 359.13533645 -865.97802734 356.60864258 C-864.3455359 354.97681091 -862.71273483 353.34528892 -861.07958984 351.71411133 C-860.33986938 350.97236664 -859.60014893 350.23062195 -858.8380127 349.46640015 C-854.79948511 345.44583917 -850.67546587 341.59315818 -846.34020996 337.89346313 C-844.49627167 336.26982642 -842.76805376 334.56965437 -841.04833984 332.81567383 C-838.08098662 329.801538 -834.97488692 327.0165005 -831.77099609 324.25708008 C-829.21857101 322.02763322 -826.72946471 319.73566001 -824.23583984 317.44067383 C-819.71930147 313.31660706 -815.05700969 309.43630518 -810.29833984 305.59692383 C-807.46734406 303.24848414 -804.75450387 300.8065748 -802.04833984 298.31567383 C-796.71859591 293.42193152 -791.18063734 288.85460067 -785.54833984 284.31567383 C-784.33006421 283.31798578 -783.11266677 282.31922472 -781.89599609 281.31958008 C-774.38396341 275.15879432 -766.78588598 269.13621176 -759.04589844 263.26416016 C-754.60270142 259.89309293 -750.19727221 256.47935362 -745.81323242 253.03173828 C-738.03137877 246.92083994 -730.12152654 241.06459141 -721.99731445 235.41772461 C-718.53584293 233.00951049 -715.09258543 230.57711244 -711.6559906 228.1335907 C-702.20821612 221.42421953 -692.63432208 214.91968864 -682.98583984 208.50317383 C-681.81803986 207.72555191 -681.81803986 207.72555191 -680.62664795 206.93222046 C-660.31426388 193.41713683 -639.64879878 180.56717861 -618.54833984 168.31567383 C-617.6867627 167.81471191 -616.82518555 167.31375 -615.9375 166.79760742 C-541.31167127 123.50871413 -462.79631473 88.65858035 -105.65380859 4.34692383 C-104.99101395 4.28444458 -104.3282193 4.22196533 -103.64533997 4.15759277 C-95.62223268 3.43144876 -87.58377158 2.88510012 -79.54833984 2.31567383 C-77.59537239 2.17580551 -77.59537239 2.17580551 -75.60295105 2.03311157 C-50.40247792 0.28720547 -25.25479119 -0.0289282 0 0 Z " fill="#203855" transform="translate(1242.54833984375,-0.315673828125)"/>
<path d="M0 0 C59.4 0 118.8 0 180 0 C180 59.4 180 118.8 180 180 C120.6 180 61.2 180 0 180 C0 120.6 0 61.2 0 0 Z " fill="#FFFFFF" transform="translate(613,1368)"/>
<path d="M0 0 C59.4 0 118.8 0 180 0 C180 59.4 180 118.8 180 180 C120.6 180 61.2 180 0 180 C0 120.6 0 61.2 0 0 Z " fill="#FFFFFF" transform="translate(990,990)"/>
<path d="M0 0 C59.4 0 118.8 0 180 0 C180 59.4 180 118.8 180 180 C120.6 180 61.2 180 0 180 C0 120.6 0 61.2 0 0 Z " fill="#FFFFFF" transform="translate(613,990)"/>
<path d="M0 0 C59.4 0 118.8 0 180 0 C180 59.4 180 118.8 180 180 C120.6 180 61.2 180 0 180 C0 120.6 0 61.2 0 0 Z " fill="#FFFFFF" transform="translate(1368,612)"/>
<path d="M0 0 C59.4 0 118.8 0 180 0 C180 59.4 180 118.8 180 180 C120.6 180 61.2 180 0 180 C0 120.6 0 61.2 0 0 Z " fill="#FFFFFF" transform="translate(990,612)"/>
<path d="M0 0 C59.4 0 118.8 0 180 0 C180 59.4 180 118.8 180 180 C120.6 180 61.2 180 0 180 C0 120.6 0 61.2 0 0 Z " fill="#FFFFFF" transform="translate(613,612)"/>
<path d="M0 0 C9.34675786 9.05515129 16.0141424 20.05960603 16.765625 33.25390625 C16.96669233 50.3948963 12.95138323 63.74610918 0.91796875 76.46484375 C-10.6096169 87.34244945 -24.18040818 91.18592754 -39.72265625 90.9375 C-44.95833567 90.58515144 -49.53745368 89.53444054 -54.4375 87.6875 C-55.66339844 87.22923828 -55.66339844 87.22923828 -56.9140625 86.76171875 C-68.15101349 81.85670046 -77.10858056 72.61089964 -82.4375 61.6875 C-82.83582031 60.90246094 -83.23414063 60.11742187 -83.64453125 59.30859375 C-88.6254777 48.90668791 -89.30444726 35.05237986 -86.23828125 23.9140625 C-80.5540686 8.10917854 -70.30782901 -2.86779099 -55.4375 -10.3125 C-36.22518977 -17.34997627 -15.39739885 -13.23800755 0 0 Z " fill="#FEFEFE" transform="translate(737.4375,1796.3125)"/>
<path d="M0 0 C10.58442458 7.7657463 18.68687253 18.52374452 21.6484375 31.44921875 C23.69768299 46.31763322 21.4632599 60.40652176 13 73 C4.56804165 83.97266143 -6.59532877 92.01259876 -20.359375 94.68359375 C-30.23393955 95.86678862 -39.66008894 95.52042802 -49 92 C-50.22589844 91.54173828 -50.22589844 91.54173828 -51.4765625 91.07421875 C-62.71351349 86.16920046 -71.67108056 76.92339964 -77 66 C-77.39832031 65.21496094 -77.79664063 64.42992187 -78.20703125 63.62109375 C-83.1879777 53.21918791 -83.86694726 39.36487986 -80.80078125 28.2265625 C-75.57802167 13.70474319 -66.01944351 1.86627588 -52 -5 C-34.39492197 -12.62962631 -16.01611789 -9.93523201 0 0 Z " fill="#FEFEFE" transform="translate(1110,1414)"/>
<path d="M0 0 C11.0485006 8.456477 20.05283662 19.87224793 22 34 C23.05322266 50.94235754 20.00331953 65.10083636 8.6875 78.3125 C-0.71689391 88.25248753 -12.83102136 94.35596469 -26.515625 95.22265625 C-34.50317608 95.40860127 -41.50680116 94.82435956 -49 92 C-50.22589844 91.54173828 -50.22589844 91.54173828 -51.4765625 91.07421875 C-63.80633378 85.69217573 -73.0906814 75.37477372 -78.20703125 63.10546875 C-83.05670549 50.30438516 -83.88511432 36.96050737 -79 24 C-78.69449219 23.18273438 -78.38898438 22.36546875 -78.07421875 21.5234375 C-72.53370997 8.83063556 -61.51207991 -0.87768853 -48.98046875 -6.30859375 C-32.46478536 -12.19396058 -14.50457646 -9.74061 0 0 Z " fill="#FEFEFE" transform="translate(1110,1792)"/>
<path d="M0 0 C11.0485006 8.456477 20.05283662 19.87224793 22 34 C23.05322266 50.94235754 20.00331953 65.10083636 8.6875 78.3125 C-0.71689391 88.25248753 -12.83102136 94.35596469 -26.515625 95.22265625 C-34.50317608 95.40860127 -41.50680116 94.82435956 -49 92 C-50.22589844 91.54173828 -50.22589844 91.54173828 -51.4765625 91.07421875 C-63.80633378 85.69217573 -73.0906814 75.37477372 -78.20703125 63.10546875 C-83.05670549 50.30438516 -83.88511432 36.96050737 -79 24 C-78.69449219 23.18273438 -78.38898438 22.36546875 -78.07421875 21.5234375 C-72.53370997 8.83063556 -61.51207991 -0.87768853 -48.98046875 -6.30859375 C-32.46478536 -12.19396058 -14.50457646 -9.74061 0 0 Z " fill="#FEFEFE" transform="translate(1488,1414)"/>
<path d="M0 0 C11.0485006 8.456477 20.05283662 19.87224793 22 34 C23.05322266 50.94235754 20.00331953 65.10083636 8.6875 78.3125 C-0.71689391 88.25248753 -12.83102136 94.35596469 -26.515625 95.22265625 C-34.50317608 95.40860127 -41.50680116 94.82435956 -49 92 C-50.22589844 91.54173828 -50.22589844 91.54173828 -51.4765625 91.07421875 C-63.80633378 85.69217573 -73.0906814 75.37477372 -78.20703125 63.10546875 C-83.05670549 50.30438516 -83.88511432 36.96050737 -79 24 C-78.69449219 23.18273438 -78.38898438 22.36546875 -78.07421875 21.5234375 C-72.53370997 8.83063556 -61.51207991 -0.87768853 -48.98046875 -6.30859375 C-32.46478536 -12.19396058 -14.50457646 -9.74061 0 0 Z " fill="#FEFEFE" transform="translate(1865,1037)"/>
<path d="M0 0 C11.0485006 8.456477 20.05283662 19.87224793 22 34 C23.05322266 50.94235754 20.00331953 65.10083636 8.6875 78.3125 C-0.71689391 88.25248753 -12.83102136 94.35596469 -26.515625 95.22265625 C-34.50317608 95.40860127 -41.50680116 94.82435956 -49 92 C-50.22589844 91.54173828 -50.22589844 91.54173828 -51.4765625 91.07421875 C-63.80633378 85.69217573 -73.0906814 75.37477372 -78.20703125 63.10546875 C-83.05670549 50.30438516 -83.88511432 36.96050737 -79 24 C-78.69449219 23.18273438 -78.38898438 22.36546875 -78.07421875 21.5234375 C-72.53370997 8.83063556 -61.51207991 -0.87768853 -48.98046875 -6.30859375 C-32.46478536 -12.19396058 -14.50457646 -9.74061 0 0 Z " fill="#FEFEFE" transform="translate(1488,1037)"/>
<path d="M0 0 C11.0485006 8.456477 20.05283662 19.87224793 22 34 C23.05322266 50.94235754 20.00331953 65.10083636 8.6875 78.3125 C-0.71689391 88.25248753 -12.83102136 94.35596469 -26.515625 95.22265625 C-34.50317608 95.40860127 -41.50680116 94.82435956 -49 92 C-50.22589844 91.54173828 -50.22589844 91.54173828 -51.4765625 91.07421875 C-63.80633378 85.69217573 -73.0906814 75.37477372 -78.20703125 63.10546875 C-83.05670549 50.30438516 -83.88511432 36.96050737 -79 24 C-78.69449219 23.18273437 -78.38898438 22.36546875 -78.07421875 21.5234375 C-72.53370997 8.83063556 -61.51207991 -0.87768853 -48.98046875 -6.30859375 C-32.46478536 -12.19396058 -14.50457646 -9.74061 0 0 Z " fill="#FEFEFE" transform="translate(1865,659)"/>
<path d="M0 0 C13.01382221 8.74574582 20.94935578 20.64720178 24.66796875 35.79296875 C25.90840838 51.30651894 23.23974737 64.93967492 13.59375 77.4921875 C4.86681602 87.6812256 -6.79454496 95.21294513 -20.33203125 96.79296875 C-36.82434136 97.76611748 -49.84916919 94.47258638 -62.64453125 83.48046875 C-73.30497905 73.39443493 -79.16935591 60.5950816 -79.61767578 45.96386719 C-79.81484878 30.4839945 -74.33721878 18.27186042 -63.6875 7.015625 C-46.2557382 -9.43325139 -20.57283344 -12.02308448 0 0 Z " fill="#FEFEFE" transform="translate(1862.33203125,1790.20703125)"/>
<path d="M0 0 C13.01382221 8.74574582 20.94935578 20.64720178 24.66796875 35.79296875 C25.90840838 51.30651894 23.23974737 64.93967492 13.59375 77.4921875 C4.86681602 87.6812256 -6.79454496 95.21294513 -20.33203125 96.79296875 C-36.82434136 97.76611748 -49.84916919 94.47258638 -62.64453125 83.48046875 C-73.30497905 73.39443493 -79.16935591 60.5950816 -79.61767578 45.96386719 C-79.81484878 30.4839945 -74.33721878 18.27186042 -63.6875 7.015625 C-46.2557382 -9.43325139 -20.57283344 -12.02308448 0 0 Z " fill="#FEFEFE" transform="translate(1485.33203125,1790.20703125)"/>
<path d="M0 0 C13.01382221 8.74574582 20.94935578 20.64720178 24.66796875 35.79296875 C25.90840838 51.30651894 23.23974737 64.93967492 13.59375 77.4921875 C4.86681602 87.6812256 -6.79454496 95.21294513 -20.33203125 96.79296875 C-36.82434136 97.76611748 -49.84916919 94.47258638 -62.64453125 83.48046875 C-73.30497905 73.39443493 -79.16935591 60.5950816 -79.61767578 45.96386719 C-79.81484878 30.4839945 -74.33721878 18.27186042 -63.6875 7.015625 C-46.2557382 -9.43325139 -20.57283344 -12.02308448 0 0 Z " fill="#FEFEFE" transform="translate(1862.33203125,1412.20703125)"/>
</svg>
