<?xml version="1.0" encoding="UTF-8"?>
<svg version="1.1" xmlns="http://www.w3.org/2000/svg" width="2500" height="2500">
<path d="M0 0 C2.07344586 -0.00702076 4.14689149 -0.01410759 6.22033691 -0.02125549 C12.81095693 -0.04066083 19.4015418 -0.04568949 25.9921875 -0.046875 C27.11443474 -0.04731686 28.23668198 -0.04775871 29.39293671 -0.04821396 C61.68928385 -0.05488549 93.86503746 0.03478253 126.05499268 2.94989014 C129.0175449 3.21666451 131.98102211 3.47065535 134.94482422 3.72314453 C181.26359666 7.71320696 227.26306492 14.17233428 272.8671875 23.203125 C273.73200745 23.3743689 274.59682739 23.54561279 275.487854 23.7220459 C369.58842643 42.4518802 461.35337856 72.24328161 560.8671875 118.203125 C561.91551758 118.6990918 562.96384766 119.19505859 564.04394531 119.70605469 C585.32501601 129.79884393 606.40418274 140.18285572 627.00146484 151.61425781 C629.9382922 153.24254819 632.88113631 154.85961018 635.82421875 156.4765625 C650.67431457 164.67412795 665.20363174 173.33498267 679.64599609 182.22363281 C682.54382225 184.00441002 685.44809808 185.77393065 688.35546875 187.5390625 C717.46634372 205.28378393 745.56264883 224.80689025 772.8671875 245.203125 C774.28112391 246.25407591 775.69518371 247.30486084 777.109375 248.35546875 C790.70107423 258.47536647 803.93640247 269.00702596 817.05859375 279.7265625 C818.6595423 281.03360041 820.26316726 282.33735856 821.8671875 283.640625 C828.37082404 288.93428265 834.78780517 294.3244703 841.17138672 299.76171875 C842.86953596 301.20512116 844.57308943 302.64193923 846.27734375 304.078125 C853.25251407 309.97935774 860.01524501 316.06229076 866.66552734 322.32763672 C870.43158626 325.87502765 874.25649899 329.32561483 878.1796875 332.69921875 C880.5591527 334.81980695 882.76934094 337.09340073 885.00001526 339.36839294 C886.77284891 341.11042544 888.59992366 342.72548856 890.49194336 344.33618164 C895.32740242 348.54301093 899.84610377 353.03824041 904.37109375 357.57421875 C905.2532103 358.45537857 906.13532684 359.33653839 907.04417419 360.24440002 C909.36951559 362.5688925 911.69242368 364.89578407 914.01452637 367.22351074 C915.42863574 368.63957178 916.84467871 370.05366821 918.26147461 371.46704102 C921.0090547 374.20840756 923.75310856 376.95325534 926.49609375 379.69921875 C927.33169327 380.53279404 928.16729279 381.36636932 929.0282135 382.22520447 C933.29064742 386.50454949 937.40768826 390.84558579 941.32359314 395.44544983 C942.93421867 397.27945271 944.624707 398.99460376 946.3671875 400.703125 C949.35953125 403.64912715 952.12042922 406.73295507 954.859375 409.9140625 C956.81081537 412.13885639 958.80902398 414.31483001 960.82177734 416.48413086 C965.65023235 421.69019794 970.2322388 427.0212848 974.6875 432.5546875 C976.84476149 435.17587619 979.0802975 437.69466781 981.3671875 440.203125 C986.07182322 445.3782243 990.47236889 450.76453697 994.8671875 456.203125 C995.86636407 457.42255017 996.86641315 458.64126077 997.8671875 459.859375 C1005.18656597 468.78558229 1012.27098631 477.8664316 1019.2421875 487.06640625 C1020.85851047 489.19171554 1022.48579172 491.30811941 1024.1171875 493.421875 C1031.91410379 503.53267704 1039.47058687 513.79607744 1046.8671875 524.203125 C1047.41987305 524.97994629 1047.97255859 525.75676758 1048.54199219 526.55712891 C1075.14741329 564.03960762 1099.74004779 602.91572873 1121.8671875 643.203125 C1122.88130486 645.03657205 1123.89562249 646.86990833 1124.91015625 648.703125 C1168.2306261 727.25444093 1202.99461902 810.345333 1237.8671875 931.203125 C1238.21526459 932.5300235 1238.21526459 932.5300235 1238.57037354 933.88372803 C1263.06346696 1027.58818818 1277.86627264 1125.35087491 1278.0703125 1222.3359375 C1278.07733326 1224.40938336 1278.08442009 1226.48282899 1278.09156799 1228.55627441 C1278.11097333 1235.14689443 1278.11600199 1241.7374793 1278.1171875 1248.328125 C1278.11762936 1249.45037224 1278.11807121 1250.57261948 1278.11852646 1251.72887421 C1278.12519799 1284.02522135 1278.03552997 1316.20097496 1275.12042236 1348.39093018 C1274.85364799 1351.3534824 1274.59965715 1354.31695961 1274.34716797 1357.28076172 C1270.35710554 1403.59953416 1263.89797822 1449.59900242 1254.8671875 1495.203125 C1254.6959436 1496.06794495 1254.52469971 1496.93276489 1254.3482666 1497.8237915 C1235.61846411 1591.92420412 1205.8274105 1683.68961708 1159.8671875 1783.203125 C1159.37653809 1784.24082031 1158.88588867 1785.27851562 1158.38037109 1786.34765625 C1147.49944766 1809.30552007 1136.23072554 1832.00495443 1123.8671875 1854.203125 C1123.36638672 1855.10820801 1122.86558594 1856.01329102 1122.34960938 1856.94580078 C1113.90876245 1872.18621883 1104.9785589 1887.10725487 1095.86279297 1901.94970703 C1094.07664851 1904.86164257 1092.30025858 1907.77921887 1090.52734375 1910.69921875 C1072.78085949 1939.8060052 1053.26195165 1967.90055502 1032.8671875 1995.203125 C1031.81623659 1996.61706141 1030.76545166 1998.03112121 1029.71484375 1999.4453125 C1019.59494603 2013.03701173 1009.06328654 2026.27233997 998.34375 2039.39453125 C997.03671209 2040.9954798 995.73295394 2042.59910476 994.4296875 2044.203125 C989.13602985 2050.70676154 983.7458422 2057.12374267 978.30859375 2063.50732422 C976.86519134 2065.20547346 975.42837327 2066.90902693 973.9921875 2068.61328125 C968.09095476 2075.58845157 962.00802174 2082.35118251 955.74267578 2089.00146484 C952.19528485 2092.76752376 948.74469767 2096.59243649 945.37109375 2100.515625 C943.25050555 2102.8950902 940.97691177 2105.10527844 938.70191956 2107.33595276 C936.95988706 2109.10878641 935.34482394 2110.93586116 933.73413086 2112.82788086 C929.52730157 2117.66333992 925.03207209 2122.18204127 920.49609375 2126.70703125 C919.61493393 2127.5891478 918.73377411 2128.47126434 917.82591248 2129.38011169 C915.50142 2131.70545309 913.17452843 2134.02836118 910.84680176 2136.35046387 C909.43074072 2137.76457324 908.01664429 2139.18061621 906.60327148 2140.59741211 C903.86190494 2143.3449922 901.11705716 2146.08904606 898.37109375 2148.83203125 C897.12073082 2150.08543053 897.12073082 2150.08543053 895.84510803 2151.364151 C891.56576301 2155.62658492 887.22472671 2159.74362576 882.62486267 2163.65953064 C880.79085979 2165.27015617 879.07570874 2166.9606445 877.3671875 2168.703125 C874.42118535 2171.69546875 871.33735743 2174.45636672 868.15625 2177.1953125 C865.93145611 2179.14675287 863.75548249 2181.14496148 861.58618164 2183.15771484 C856.38011456 2187.98616985 851.0490277 2192.5681763 845.515625 2197.0234375 C842.89443631 2199.18069899 840.37564469 2201.416235 837.8671875 2203.703125 C832.6920882 2208.40776072 827.30577553 2212.80830639 821.8671875 2217.203125 C820.64776233 2218.20230157 819.42905173 2219.20235065 818.2109375 2220.203125 C809.28473021 2227.52250347 800.2038809 2234.60692381 791.00390625 2241.578125 C788.87859696 2243.19444797 786.76219309 2244.82172922 784.6484375 2246.453125 C774.53763546 2254.25004129 764.27423506 2261.80652437 753.8671875 2269.203125 C753.09036621 2269.75581055 752.31354492 2270.30849609 751.51318359 2270.87792969 C714.03070488 2297.48335079 675.15458377 2322.07598529 634.8671875 2344.203125 C633.03374045 2345.21724236 631.20040417 2346.23155999 629.3671875 2347.24609375 C550.81587157 2390.5665636 467.7249795 2425.33055652 346.8671875 2460.203125 C345.540289 2460.55120209 345.540289 2460.55120209 344.18658447 2460.90631104 C250.48212432 2485.39940446 152.71943759 2500.20221014 55.734375 2500.40625 C53.66092914 2500.41327076 51.58748351 2500.42035759 49.51403809 2500.42750549 C42.92341807 2500.44691083 36.3328332 2500.45193949 29.7421875 2500.453125 C28.61994026 2500.45356686 27.49769302 2500.45400871 26.34143829 2500.45446396 C-5.95490885 2500.46113549 -38.13066246 2500.37146747 -70.32061768 2497.45635986 C-73.2831699 2497.18958549 -76.24664711 2496.93559465 -79.21044922 2496.68310547 C-125.52922166 2492.69304304 -171.52868992 2486.23391572 -217.1328125 2477.203125 C-217.99763245 2477.0318811 -218.86245239 2476.86063721 -219.753479 2476.6842041 C-313.85405143 2457.9543698 -405.61900356 2428.16296839 -505.1328125 2382.203125 C-506.70530762 2381.4591748 -506.70530762 2381.4591748 -508.30957031 2380.70019531 C-529.59064101 2370.60740607 -550.66980774 2360.22339428 -571.26708984 2348.79199219 C-574.2039172 2347.16370181 -577.14676131 2345.54663982 -580.08984375 2343.9296875 C-594.93993957 2335.73212205 -609.46925674 2327.07126733 -623.91162109 2318.18261719 C-626.80944725 2316.40183998 -629.71372308 2314.63231935 -632.62109375 2312.8671875 C-661.73196872 2295.12246607 -689.82827383 2275.59935975 -717.1328125 2255.203125 C-718.54674891 2254.15217409 -719.96080871 2253.10138916 -721.375 2252.05078125 C-734.96669923 2241.93088353 -748.20202747 2231.39922404 -761.32421875 2220.6796875 C-762.9251673 2219.37264959 -764.52879226 2218.06889144 -766.1328125 2216.765625 C-772.63644904 2211.47196735 -779.05343017 2206.0817797 -785.43701172 2200.64453125 C-787.13516096 2199.20112884 -788.83871443 2197.76431077 -790.54296875 2196.328125 C-797.47591306 2190.46261691 -804.21282302 2184.43006378 -810.80810547 2178.1862793 C-813.77941855 2175.37663939 -816.77962458 2172.62082992 -819.87207031 2169.94458008 C-833.3715334 2158.15988329 -846.04409467 2145.45376428 -858.69335938 2132.77294922 C-861.28660534 2130.17427186 -863.88525198 2127.58107919 -866.484375 2124.98828125 C-868.16177957 2123.31021688 -869.83887444 2121.63184287 -871.515625 2119.953125 C-872.6610527 2118.81073364 -872.6610527 2118.81073364 -873.82962036 2117.64526367 C-877.90386496 2113.55331505 -881.81499371 2109.3812273 -885.56271362 2104.98730469 C-887.18343167 2103.14560398 -888.88141834 2101.42032569 -890.6328125 2099.703125 C-893.62515625 2096.75712285 -896.38605422 2093.67329493 -899.125 2090.4921875 C-901.07644037 2088.26739361 -903.07464898 2086.09141999 -905.08740234 2083.92211914 C-909.91585735 2078.71605206 -914.4978638 2073.3849652 -918.953125 2067.8515625 C-921.11038649 2065.23037381 -923.3459225 2062.71158219 -925.6328125 2060.203125 C-930.33744822 2055.0280257 -934.73799389 2049.64171303 -939.1328125 2044.203125 C-940.13198907 2042.98369983 -941.13203815 2041.76498923 -942.1328125 2040.546875 C-949.45219097 2031.62066771 -956.53661131 2022.5398184 -963.5078125 2013.33984375 C-965.12413547 2011.21453446 -966.75141672 2009.09813059 -968.3828125 2006.984375 C-976.17972879 1996.87357296 -983.73621187 1986.61017256 -991.1328125 1976.203125 C-991.68549805 1975.42630371 -992.23818359 1974.64948242 -992.80761719 1973.84912109 C-1019.41173805 1936.36847419 -1044.01550676 1897.49418544 -1066.1328125 1857.203125 C-1067.17054419 1855.32290081 -1068.208304 1853.44269214 -1069.24609375 1851.5625 C-1076.40791571 1838.54645649 -1083.34493252 1825.41775637 -1090.1328125 1812.203125 C-1090.61186035 1811.27371094 -1091.0909082 1810.34429688 -1091.58447266 1809.38671875 C-1118.0143178 1757.94019786 -1139.57354092 1703.93692797 -1158.1328125 1649.203125 C-1158.3876239 1648.4530719 -1158.6424353 1647.7030188 -1158.90496826 1646.93023682 C-1191.27288885 1551.49165597 -1211.20295147 1451.63756717 -1222.3359375 1278.0703125 C-1222.34295826 1275.99686664 -1222.35004509 1273.92342101 -1222.35719299 1271.84997559 C-1222.37659833 1265.25935557 -1222.38162699 1258.6687707 -1222.3828125 1252.078125 C-1222.38325436 1250.95587776 -1222.38369621 1249.83363052 -1222.38415146 1248.67737579 C-1222.39082299 1216.38102865 -1222.30115497 1184.20527504 -1219.38604736 1152.01531982 C-1219.11927299 1149.0527676 -1218.86528215 1146.08929039 -1218.61279297 1143.12548828 C-1214.62273054 1096.80671584 -1208.16360322 1050.80724758 -1199.1328125 1005.203125 C-1198.9615686 1004.33830505 -1198.79032471 1003.47348511 -1198.6138916 1002.5824585 C-1179.8840573 908.48188607 -1150.09265589 816.71693394 -1104.1328125 717.203125 C-1103.6368457 716.15479492 -1103.14087891 715.10646484 -1102.62988281 714.02636719 C-1092.53709357 692.74529649 -1082.15308178 671.66612976 -1070.72167969 651.06884766 C-1069.09338931 648.1320203 -1067.47632732 645.18917619 -1065.859375 642.24609375 C-1057.66180955 627.39599793 -1049.00095483 612.86668076 -1040.11230469 598.42431641 C-1038.33152748 595.52649025 -1036.56200685 592.62221442 -1034.796875 589.71484375 C-1017.05215357 560.60396878 -997.52904725 532.50766367 -977.1328125 505.203125 C-976.08186159 503.78918859 -975.03107666 502.37512879 -973.98046875 500.9609375 C-963.85931394 487.36754991 -953.32620768 474.1308455 -942.60498047 461.00732422 C-941.31009739 459.42039454 -940.01990772 457.82963763 -938.73046875 456.23828125 C-934.10196144 450.5384377 -929.36310293 444.94454689 -924.56518555 439.38745117 C-921.59759371 435.94241304 -918.71320641 432.45022344 -915.8828125 428.890625 C-911.20642923 423.11794676 -906.10806698 417.76253331 -900.97949219 412.39135742 C-897.12170876 408.34753633 -893.36916294 404.24408678 -889.72900391 400.00268555 C-887.58075325 397.58072844 -885.2781066 395.33579688 -882.96733093 393.07022095 C-881.22978299 391.3018175 -879.61949709 389.47968904 -878.01342773 387.59204102 C-873.73487459 382.67422459 -869.15605718 378.0826671 -864.54296875 373.48046875 C-863.63961288 372.57615616 -862.73625702 371.67184357 -861.80552673 370.74012756 C-859.90485182 368.83877557 -858.00321642 366.93844947 -856.09985352 365.03979492 C-853.68162858 362.62726639 -851.26792292 360.21027419 -848.85553837 357.79190731 C-846.52462849 355.45647925 -844.18987294 353.12490323 -841.85546875 350.79296875 C-841.00001968 349.93549545 -840.14457062 349.07802216 -839.26319885 348.19456482 C-834.9116618 343.85980309 -830.49281898 339.67525476 -825.8356781 335.67018127 C-823.80797263 333.92326828 -821.85327204 332.10999286 -819.9140625 330.265625 C-819.20894531 329.59789062 -818.50382812 328.93015625 -817.77734375 328.2421875 C-817.06964844 327.56929688 -816.36195313 326.89640625 -815.6328125 326.203125 C-810.23799861 321.07362983 -804.77434521 316.06054576 -799.1328125 311.203125 C-798.28444824 310.47150146 -798.28444824 310.47150146 -797.41894531 309.72509766 C-795.78433979 308.31906398 -794.14675411 306.91660118 -792.5078125 305.515625 C-788.8665168 302.40288859 -785.22692532 299.28877045 -781.609375 296.1484375 C-775.39043629 290.7606696 -769.09186095 285.52826229 -762.58935547 280.48583984 C-757.89923763 276.83883535 -753.32437723 273.06566107 -748.7578125 269.265625 C-741.42810201 263.18925793 -733.92203619 257.40754001 -726.25439453 251.765625 C-723.99965845 250.10505988 -721.75150829 248.43583145 -719.50390625 246.765625 C-709.9246244 239.65993094 -700.26592283 232.68087013 -690.48779297 225.8515625 C-687.89711784 224.03814363 -685.31390789 222.21433595 -682.73046875 220.390625 C-670.60209884 211.85730262 -658.29479797 203.69726405 -645.72460938 195.83056641 C-643.2434972 194.27262615 -640.7723938 192.70016218 -638.3046875 191.12109375 C-626.41569546 183.52500518 -614.3302016 176.29220584 -602.1328125 169.203125 C-601.26398437 168.6978125 -600.39515625 168.1925 -599.5 167.671875 C-520.92316014 122.09256004 -438.06942569 85.70437852 -291.1328125 40.203125 C-290.2482135 39.97107361 -289.3636145 39.73902222 -288.45220947 39.49993896 C-194.74774932 15.00684554 -96.98506259 0.20403986 0 0 Z " fill="#FEFEFE" transform="translate(1222.1328125,-0.203125)"/>
<path d="M0 0 C1.01858093 -0.00067474 2.03716187 -0.00134949 3.08660889 -0.00204468 C46.34289132 0.04303062 89.81674234 5.38320374 130.92382812 19.37548828 C133.82387916 20.35994458 136.73230645 21.31759863 139.640625 22.27734375 C154.30013618 27.17223914 168.46488216 32.78689167 182.5 39.25 C183.50385742 39.70745605 184.50771484 40.16491211 185.54199219 40.63623047 C220.00064367 56.41398145 252.91511351 76.82731728 281.57421875 101.7265625 C284.43833734 104.19681699 287.36165224 106.57197772 290.3125 108.9375 C294.33150595 112.20512657 298.00837058 115.64478145 301.61328125 119.359375 C303.46484998 121.21477721 305.38253673 122.92285573 307.375 124.625 C313.56853912 129.96677539 319.35860266 135.73437098 324.68359375 141.94140625 C329.04145526 146.96010309 333.76722809 151.58786647 338.5 156.25 C343.75007916 161.42171976 348.87071772 166.6003921 353.66796875 172.1953125 C357.41689207 176.3998619 361.4884459 180.29831984 365.5 184.25 C370.76031206 189.43179994 375.89250747 194.62060882 380.69921875 200.2265625 C384.27825901 204.24813052 388.16457869 207.97516986 392 211.75 C401.09737328 220.7036549 401.09737328 220.7036549 404.96875 225.21875 C409.21188046 230.16167665 413.86183726 234.68106357 418.5 239.25 C423.75007916 244.42171976 428.87071772 249.6003921 433.66796875 255.1953125 C437.41689207 259.3998619 441.4884459 263.29831984 445.5 267.25 C450.75007916 272.42171976 455.87071772 277.6003921 460.66796875 283.1953125 C464.41689207 287.3998619 468.4884459 291.29831984 472.5 295.25 C477.75007916 300.42171976 482.87071772 305.6003921 487.66796875 311.1953125 C491.41689207 315.3998619 495.4884459 319.29831984 499.5 323.25 C504.75007916 328.42171976 509.87071772 333.6003921 514.66796875 339.1953125 C518.41689207 343.3998619 522.4884459 347.29831984 526.5 351.25 C531.75007916 356.42171976 536.87071772 361.6003921 541.66796875 367.1953125 C545.41689207 371.3998619 549.4884459 375.29831984 553.5 379.25 C558.76031206 384.43179994 563.89250747 389.62060882 568.69921875 395.2265625 C572.27825901 399.24813052 576.16457869 402.97516986 580 406.75 C589.09737328 415.7036549 589.09737328 415.7036549 592.96875 420.21875 C597.21188046 425.16167665 601.86183726 429.68106357 606.5 434.25 C611.75007916 439.42171976 616.87071772 444.6003921 621.66796875 450.1953125 C625.41689207 454.3998619 629.4884459 458.29831984 633.5 462.25 C638.75007916 467.42171976 643.87071772 472.6003921 648.66796875 478.1953125 C652.41689207 482.3998619 656.4884459 486.29831984 660.5 490.25 C665.75007916 495.42171976 670.87071772 500.6003921 675.66796875 506.1953125 C679.41689207 510.3998619 683.4884459 514.29831984 687.5 518.25 C692.75007916 523.42171976 697.87071772 528.6003921 702.66796875 534.1953125 C706.41689207 538.3998619 710.4884459 542.29831984 714.5 546.25 C719.76031206 551.43179994 724.89250747 556.62060882 729.69921875 562.2265625 C733.27825901 566.24813052 737.16457869 569.97516986 741 573.75 C750.09737328 582.7036549 750.09737328 582.7036549 753.96875 587.21875 C758.21188046 592.16167665 762.86183726 596.68106357 767.5 601.25 C777.12927121 610.73555074 777.12927121 610.73555074 780.98046875 615.234375 C786.12832484 621.2409617 791.90131584 626.6571924 797.55664062 632.1796875 C798.42095703 633.03304687 799.28527344 633.88640625 800.17578125 634.765625 C800.95864502 635.53165039 801.74150879 636.29767578 802.5480957 637.08691406 C804.3712035 639.10726866 805.35402995 640.81606086 806.5 643.25 C776.98761353 643.47830037 747.47526891 643.65518597 717.96218432 643.76065329 C714.47511361 643.77315983 710.98804466 643.7861031 707.50097656 643.79931641 C706.80678642 643.80193951 706.11259629 643.80456261 705.39737009 643.80726521 C694.16826327 643.85073679 682.93967026 643.92955847 671.7108679 644.02152796 C660.18243708 644.11516154 648.65436711 644.16986414 637.1255635 644.19088495 C630.65251347 644.20391483 624.18062733 644.23450448 617.70795059 644.30730057 C611.61240569 644.37529822 605.51850131 644.39609183 599.42261314 644.38107681 C597.18849323 644.38382262 594.95431715 644.40364546 592.72052574 644.44205475 C574.98005362 644.73207266 574.98005362 644.73207266 570.01678085 641.08915329 C567.48929406 638.6043576 565.49809719 636.16739107 563.5 633.25 C562.33790264 631.89326901 561.16358287 630.54674234 559.96875 629.21875 C559.41832031 628.57679688 558.86789062 627.93484375 558.30078125 627.2734375 C554.72174099 623.25186948 550.83542131 619.52483014 547 615.75 C537.90262672 606.7963451 537.90262672 606.7963451 534.03125 602.28125 C529.78811954 597.33832335 525.13816274 592.81893643 520.5 588.25 C515.24992084 583.07828024 510.12928228 577.8996079 505.33203125 572.3046875 C501.58310793 568.1001381 497.5115541 564.20168016 493.5 560.25 C488.23968794 555.06820006 483.10749253 549.87939118 478.30078125 544.2734375 C474.72174099 540.25186948 470.83542131 536.52483014 467 532.75 C457.90262672 523.7963451 457.90262672 523.7963451 454.03125 519.28125 C449.78811954 514.33832335 445.13816274 509.81893643 440.5 505.25 C435.23968794 500.06820006 430.10749253 494.87939118 425.30078125 489.2734375 C421.72174099 485.25186948 417.83542131 481.52483014 414 477.75 C404.90262672 468.7963451 404.90262672 468.7963451 401.03125 464.28125 C396.78811954 459.33832335 392.13816274 454.81893643 387.5 450.25 C382.23968794 445.06820006 377.10749253 439.87939118 372.30078125 434.2734375 C368.72174099 430.25186948 364.83542131 426.52483014 361 422.75 C351.90262672 413.7963451 351.90262672 413.7963451 348.03125 409.28125 C343.78811954 404.33832335 339.13816274 399.81893643 334.5 395.25 C329.23968794 390.06820006 324.10749253 384.87939118 319.30078125 379.2734375 C315.72174099 375.25186948 311.83542131 371.52483014 308 367.75 C298.90262672 358.7963451 298.90262672 358.7963451 295.03125 354.28125 C290.78811954 349.33832335 286.13816274 344.81893643 281.5 340.25 C276.24992084 335.07828024 271.12928228 329.8996079 266.33203125 324.3046875 C262.58310793 320.1001381 258.5115541 316.20168016 254.5 312.25 C249.23968794 307.06820006 244.10749253 301.87939118 239.30078125 296.2734375 C235.72174099 292.25186948 231.83542131 288.52483014 228 284.75 C218.90251682 275.79623693 218.90251682 275.79623693 215.109375 271.37109375 C210.88861088 266.45870209 206.32667105 261.89062163 201.74951172 257.31420898 C200.26106763 255.82358385 198.78082723 254.32512983 197.30078125 252.82617188 C191.02927274 246.51779279 184.49299205 240.76445387 177.5 235.25 C176.29591581 234.27331675 175.0926449 233.29562893 173.890625 232.31640625 C147.49878592 211.15124259 117.64262245 195.66301462 85.5 185.25 C84.32050781 184.86199219 83.14101562 184.47398437 81.92578125 184.07421875 C78.79691993 183.07744743 75.6593002 182.14539572 72.5 181.25 C71.3553125 180.92386719 70.210625 180.59773438 69.03125 180.26171875 C60.76161093 178.04907772 52.44647265 176.4511703 44 175.0625 C42.50678223 174.81209961 42.50678223 174.81209961 40.98339844 174.55664062 C-6.12630992 167.13995185 -57.56661849 172.57928226 -101.5 191.25 C-102.29728516 191.58612305 -103.09457031 191.92224609 -103.91601562 192.26855469 C-141.31071258 208.1970051 -173.58919928 230.83405742 -202.13452148 259.67871094 C-203.95559087 261.51827459 -205.78477504 263.34947141 -207.61523438 265.1796875 C-212.85706599 270.43775539 -218.00618784 275.70499566 -222.82446289 281.35839844 C-227.11651571 286.20392156 -231.86141719 290.64520207 -236.47265625 295.18359375 C-240.08258675 298.75875767 -243.63159006 302.3273525 -246.9375 306.1875 C-252.18084689 312.29560329 -258.03343034 317.82539031 -263.76171875 323.47265625 C-267.62739763 327.30486605 -271.45793924 331.11411087 -275 335.25 C-280.21680287 341.34140264 -286.0548774 346.84653402 -291.76171875 352.47265625 C-295.62739763 356.30486605 -299.45793924 360.11411087 -303 364.25 C-308.21680287 370.34140264 -314.0548774 375.84653402 -319.76171875 381.47265625 C-323.62739763 385.30486605 -327.45793924 389.11411087 -331 393.25 C-336.21680287 399.34140264 -342.0548774 404.84653402 -347.76171875 410.47265625 C-352.25090507 414.92297515 -356.57462624 419.41277196 -360.68554688 424.21289062 C-365.23797641 429.32396059 -370.24324674 434.02692963 -375.1171875 438.828125 C-378.85499957 442.53185368 -382.5447487 446.22071306 -385.96875 450.21875 C-391.19884851 456.31849018 -397.04415017 461.83595852 -402.76171875 467.47265625 C-406.62739763 471.30486605 -410.45793924 475.11411087 -414 479.25 C-419.21680287 485.34140264 -425.0548774 490.84653402 -430.76171875 496.47265625 C-434.62739763 500.30486605 -438.45793924 504.11411087 -442 508.25 C-447.21680287 514.34140264 -453.0548774 519.84653402 -458.76171875 525.47265625 C-462.62739763 529.30486605 -466.45793924 533.11411087 -470 537.25 C-475.21680287 543.34140264 -481.0548774 548.84653402 -486.76171875 554.47265625 C-491.25090507 558.92297515 -495.57462624 563.41277196 -499.68554688 568.21289062 C-504.23797641 573.32396059 -509.24324674 578.02692963 -514.1171875 582.828125 C-517.85499957 586.53185368 -521.5447487 590.22071306 -524.96875 594.21875 C-530.19884851 600.31849018 -536.04415017 605.83595852 -541.76171875 611.47265625 C-542.65503906 612.35824219 -543.54835938 613.24382813 -544.46875 614.15625 C-545.66661133 615.33670898 -545.66661133 615.33670898 -546.88867188 616.54101562 C-548.89577841 618.62318224 -550.82298052 620.72114822 -552.72650909 622.89515686 C-553.34622117 623.60190363 -553.96593325 624.3086504 -554.60442448 625.03681374 C-556.40938218 627.14419882 -558.13679281 629.29924498 -559.86779022 631.46739197 C-565.75622879 638.46968208 -571.02474188 643.90625443 -580.41799355 645.02046394 C-585.5268462 645.29565886 -590.59331937 645.20850418 -595.70507812 645.06640625 C-598.00297223 645.06188422 -600.30088938 645.06444369 -602.59877014 645.07348633 C-608.79183864 645.07804826 -614.9798755 644.98448135 -621.17178154 644.87230301 C-627.65905606 644.77178177 -634.14646625 644.76284464 -640.63439941 644.74389648 C-651.50896124 644.69993232 -662.38168016 644.60023251 -673.25537109 644.45703125 C-684.44701091 644.30979753 -695.63815154 644.19672763 -706.83056641 644.12890625 C-707.5223328 644.12470267 -708.21409919 644.1204991 -708.92682821 644.11616814 C-712.39778355 644.09528507 -715.86874239 644.07506634 -719.33970356 644.05517769 C-748.06101035 643.88974726 -776.78046111 643.60712494 -805.5 643.25 C-804.53950373 642.12649421 -803.57859349 641.00334232 -802.61750793 639.88034058 C-802.08244534 639.25484755 -801.54738276 638.62935452 -800.99610615 637.98490715 C-798.1561547 634.69165682 -795.16988306 631.53878689 -792.1875 628.375 C-791.50179932 627.64611572 -790.81609863 626.91723145 -790.10961914 626.16625977 C-784.30894666 620.03460812 -778.36956293 614.05017629 -772.34838867 608.13525391 C-769.14901429 604.97671267 -766.05661425 601.79214364 -763.12890625 598.37890625 C-758.05094053 592.48420981 -752.4216532 587.12804643 -746.8828125 581.671875 C-742.50714516 577.33610736 -738.30953594 572.94875327 -734.30078125 568.2734375 C-729.95582451 563.39125184 -725.18329623 558.89880498 -720.52734375 554.31640625 C-716.90701013 550.73093941 -713.34892946 547.15058108 -710.03125 543.28125 C-704.99390761 537.4131264 -699.38827496 532.09516638 -693.8828125 526.671875 C-690.13458062 522.95782153 -686.43586363 519.25716648 -683 515.25 C-677.97574519 509.39033045 -672.37758088 504.08463192 -666.8828125 498.671875 C-663.13458062 494.95782153 -659.43586363 491.25716648 -656 487.25 C-650.97574519 481.39033045 -645.37758088 476.08463192 -639.8828125 470.671875 C-636.13458062 466.95782153 -632.43586363 463.25716648 -629 459.25 C-623.97574519 453.39033045 -618.37758088 448.08463192 -612.8828125 442.671875 C-609.13458062 438.95782153 -605.43586363 435.25716648 -602 431.25 C-596.97574519 425.39033045 -591.37758088 420.08463192 -585.8828125 414.671875 C-582.13458062 410.95782153 -578.43586363 407.25716648 -575 403.25 C-569.97574519 397.39033045 -564.37758088 392.08463192 -558.8828125 386.671875 C-554.50714516 382.33610736 -550.30953594 377.94875327 -546.30078125 373.2734375 C-541.95582451 368.39125184 -537.18329623 363.89880498 -532.52734375 359.31640625 C-528.90701013 355.73093941 -525.34892946 352.15058108 -522.03125 348.28125 C-516.99390761 342.4131264 -511.38827496 337.09516638 -505.8828125 331.671875 C-502.13458062 327.95782153 -498.43586363 324.25716648 -495 320.25 C-489.97574519 314.39033045 -484.37758088 309.08463192 -478.8828125 303.671875 C-475.13458062 299.95782153 -471.43586363 296.25716648 -468 292.25 C-462.97574519 286.39033045 -457.37758088 281.08463192 -451.8828125 275.671875 C-448.13458062 271.95782153 -444.43586363 268.25716648 -441 264.25 C-435.97574519 258.39033045 -430.37758088 253.08463192 -424.8828125 247.671875 C-421.13458062 243.95782153 -417.43586363 240.25716648 -414 236.25 C-408.97574519 230.39033045 -403.37758088 225.08463192 -397.8828125 219.671875 C-394.13458062 215.95782153 -390.43586363 212.25716648 -387 208.25 C-381.97574519 202.39033045 -376.37758088 197.08463192 -370.8828125 191.671875 C-366.50714516 187.33610736 -362.30953594 182.94875327 -358.30078125 178.2734375 C-353.95582451 173.39125184 -349.18329623 168.89880498 -344.52734375 164.31640625 C-343.72425781 163.52105469 -342.92117188 162.72570313 -342.09375 161.90625 C-341.02157227 160.85147461 -341.02157227 160.85147461 -339.92773438 159.77539062 C-337.9457682 157.71369934 -336.07055953 155.62021954 -334.20288086 153.45727539 C-330.52298216 149.22139193 -326.63248457 145.23789022 -322.66015625 141.27734375 C-321.57147499 140.1872274 -321.57147499 140.1872274 -320.46080017 139.0750885 C-318.93676444 137.55037704 -317.41148431 136.0269085 -315.88500977 134.50463867 C-313.56867537 132.19366109 -311.25772922 129.87739229 -308.94726562 127.56054688 C-307.45604966 126.0699918 -305.96452347 124.579747 -304.47265625 123.08984375 C-303.451968 122.06611916 -303.451968 122.06611916 -302.41065979 121.02171326 C-297.93378578 116.56630185 -293.29269118 112.36224146 -288.5 108.25 C-287.53578125 107.404375 -286.5715625 106.55875 -285.578125 105.6875 C-261.68633382 85.09567998 -235.19343097 67.30004767 -207.5 52.25 C-206.34274414 51.60973877 -206.34274414 51.60973877 -205.16210938 50.95654297 C-176.22929739 34.96251395 -144.60196272 22.26784978 -112.5 14.25 C-111.27313477 13.9396582 -110.04626953 13.62931641 -108.78222656 13.30957031 C-92.14619305 9.13484728 -75.49312082 5.67400852 -58.5 3.3125 C-57.42031448 3.15997269 -57.42031448 3.15997269 -56.31881714 3.00436401 C-37.61561656 0.40328866 -18.86110946 0.01139352 0 0 Z " fill="#000000" transform="translate(1249.5,1306.75)"/>
<path d="M0 0 C29.37571577 -0.41158475 58.75129442 -0.72966189 88.12929305 -0.91917593 C91.60605687 -0.94168574 95.08281499 -0.96498382 98.55957031 -0.98876953 C99.25166197 -0.99349112 99.94375362 -0.99821271 100.65681775 -1.00307737 C111.82940901 -1.08117427 123.00031482 -1.22296234 134.17190973 -1.38875033 C145.65516933 -1.55772833 157.13724987 -1.65584586 168.62172854 -1.69359291 C175.06489996 -1.71697609 181.50426367 -1.77154618 187.94620895 -1.90314102 C194.02305024 -2.02625999 200.09455529 -2.06283286 206.17252541 -2.03593826 C208.39059009 -2.04085002 210.60885175 -2.07612516 212.82583046 -2.14569855 C224.19584829 -2.48470704 232.12524913 -1.85195801 240.67939532 6.19167149 C244.32326288 9.9727993 247.68463954 13.93110656 251 18 C252.27354572 19.47988698 253.55349319 20.95429741 254.84084129 22.42219353 C255.3893545 23.04975984 255.93786771 23.67732616 256.50300252 24.32390964 C258.52750096 26.59060839 260.64725392 28.7429519 262.8125 30.875 C264.08480469 32.13570312 264.08480469 32.13570312 265.3828125 33.421875 C266.24648438 34.27265625 267.11015625 35.1234375 268 36 C273.25007916 41.17171976 278.37071772 46.3503921 283.16796875 51.9453125 C286.91689207 56.1498619 290.9884459 60.04831984 295 64 C300.25007916 69.17171976 305.37071772 74.3503921 310.16796875 79.9453125 C313.91689207 84.1498619 317.9884459 88.04831984 322 92 C327.25007916 97.17171976 332.37071772 102.3503921 337.16796875 107.9453125 C340.91689207 112.1498619 344.9884459 116.04831984 349 120 C354.25007916 125.17171976 359.37071772 130.3503921 364.16796875 135.9453125 C367.91689207 140.1498619 371.9884459 144.04831984 376 148 C381.25007916 153.17171976 386.37071772 158.3503921 391.16796875 163.9453125 C394.91689207 168.1498619 398.9884459 172.04831984 403 176 C408.25007916 181.17171976 413.37071772 186.3503921 418.16796875 191.9453125 C421.91689207 196.1498619 425.9884459 200.04831984 430 204 C435.25007916 209.17171976 440.37071772 214.3503921 445.16796875 219.9453125 C448.91689207 224.1498619 452.9884459 228.04831984 457 232 C462.26031206 237.18179994 467.39250747 242.37060882 472.19921875 247.9765625 C475.77825901 251.99813052 479.66457869 255.72516986 483.5 259.5 C492.59737328 268.4536549 492.59737328 268.4536549 496.46875 272.96875 C500.71188046 277.91167665 505.36183726 282.43106357 510 287 C515.25007916 292.17171976 520.37071772 297.3503921 525.16796875 302.9453125 C528.91689207 307.1498619 532.9884459 311.04831984 537 315 C542.25007916 320.17171976 547.37071772 325.3503921 552.16796875 330.9453125 C555.91689207 335.1498619 559.9884459 339.04831984 564 343 C573.62872044 352.4850082 573.62872044 352.4850082 577.49609375 356.99609375 C581.7468924 361.95390664 586.41298727 366.48202235 591.0625 371.0625 C596.16469293 376.08927249 601.1896468 381.07937997 605.78100586 386.58081055 C607.30504508 388.35514261 608.95699486 389.87553995 610.75 391.375 C613.79349511 393.9582312 616.7528329 396.60613763 619.6875 399.3125 C676.80476967 450.56273895 749.7316376 470.07485719 825 467 C833.09652641 466.56104548 841.0305348 465.45563136 849 464 C850.79403479 463.70558924 852.5883106 463.41264381 854.3828125 463.12109375 C914.60249933 452.91547599 965.84392968 419.98843384 1008.5 377.625 C1009.05123535 377.07851807 1009.6024707 376.53203613 1010.17041016 375.96899414 C1012.97972238 373.14818579 1015.6589385 370.26509259 1018.25 367.2421875 C1023.57551995 361.08953115 1029.47081763 355.48633679 1035.26171875 349.77734375 C1039.75090507 345.32702485 1044.07462624 340.83722804 1048.18554688 336.03710938 C1052.73797641 330.92603941 1057.74324674 326.22307037 1062.6171875 321.421875 C1066.35499957 317.71814632 1070.0447487 314.02928694 1073.46875 310.03125 C1078.69884851 303.93150982 1084.54415017 298.41404148 1090.26171875 292.77734375 C1094.12739763 288.94513395 1097.95793924 285.13588913 1101.5 281 C1106.71680287 274.90859736 1112.5548774 269.40346598 1118.26171875 263.77734375 C1122.12739763 259.94513395 1125.95793924 256.13588913 1129.5 252 C1134.71680287 245.90859736 1140.5548774 240.40346598 1146.26171875 234.77734375 C1150.12739763 230.94513395 1153.95793924 227.13588913 1157.5 223 C1162.71680287 216.90859736 1168.5548774 211.40346598 1174.26171875 205.77734375 C1178.12739763 201.94513395 1181.95793924 198.13588913 1185.5 194 C1190.71680287 187.90859736 1196.5548774 182.40346598 1202.26171875 176.77734375 C1206.12739763 172.94513395 1209.95793924 169.13588913 1213.5 165 C1218.71680287 158.90859736 1224.5548774 153.40346598 1230.26171875 147.77734375 C1234.12739763 143.94513395 1237.95793924 140.13588913 1241.5 136 C1246.71680287 129.90859736 1252.5548774 124.40346598 1258.26171875 118.77734375 C1262.12739763 114.94513395 1265.95793924 111.13588913 1269.5 107 C1274.71680287 100.90859736 1280.5548774 95.40346598 1286.26171875 89.77734375 C1290.12739763 85.94513395 1293.95793924 82.13588913 1297.5 78 C1302.71680287 71.90859736 1308.5548774 66.40346598 1314.26171875 60.77734375 C1318.12739763 56.94513395 1321.95793924 53.13588913 1325.5 49 C1330.71680287 42.90859736 1336.5548774 37.40346598 1342.26171875 31.77734375 C1343.60169922 30.44896484 1343.60169922 30.44896484 1344.96875 29.09375 C1345.76732422 28.30677734 1346.56589844 27.51980469 1347.38867188 26.70898438 C1349.39577841 24.62681776 1351.32298052 22.52885178 1353.22650909 20.35484314 C1354.15607721 19.29472299 1354.15607721 19.29472299 1355.10442448 18.21318626 C1356.90938218 16.10580118 1358.63679281 13.95075502 1360.36779022 11.78260803 C1366.25622879 4.78031792 1371.52474188 -0.65625443 1380.91799355 -1.77046394 C1386.0268462 -2.04565886 1391.09331937 -1.95850418 1396.20507812 -1.81640625 C1398.50297223 -1.81188422 1400.80088938 -1.81444369 1403.09877014 -1.82348633 C1409.29183864 -1.82804826 1415.4798755 -1.73448135 1421.67178154 -1.62230301 C1428.15905606 -1.52178177 1434.64646625 -1.51284464 1441.13439941 -1.49389648 C1452.00896124 -1.44993232 1462.88168016 -1.35023251 1473.75537109 -1.20703125 C1484.94701091 -1.05979753 1496.13815154 -0.94672763 1507.33056641 -0.87890625 C1508.0223328 -0.87470267 1508.71409919 -0.8704991 1509.42682821 -0.86616814 C1512.89778355 -0.84528507 1516.36874239 -0.82506634 1519.83970356 -0.80517769 C1548.56101035 -0.63974726 1577.28046111 -0.35712494 1606 0 C1605.04910439 1.11812749 1604.09695694 2.23519044 1603.14428711 3.35180664 C1602.34914955 4.2850753 1602.34914955 4.2850753 1601.53794861 5.23719788 C1598.99537302 8.15150699 1596.21464138 10.80457457 1593.44140625 13.49609375 C1591.48426914 15.50333357 1589.66224866 17.53463978 1587.83984375 19.66015625 C1582.67543858 25.61299903 1576.99356333 31.05111672 1571.3828125 36.578125 C1567.63458062 40.29217847 1563.93586363 43.99283352 1560.5 48 C1555.47574519 53.85966955 1549.87758088 59.16536808 1544.3828125 64.578125 C1540.63458062 68.29217847 1536.93586363 71.99283352 1533.5 76 C1528.47574519 81.85966955 1522.87758088 87.16536808 1517.3828125 92.578125 C1513.63458062 96.29217847 1509.93586363 99.99283352 1506.5 104 C1501.47574519 109.85966955 1495.87758088 115.16536808 1490.3828125 120.578125 C1486.63458062 124.29217847 1482.93586363 127.99283352 1479.5 132 C1474.47574519 137.85966955 1468.87758088 143.16536808 1463.3828125 148.578125 C1459.64500043 152.28185368 1455.9552513 155.97071306 1452.53125 159.96875 C1447.30115149 166.06849018 1441.45584983 171.58595852 1435.73828125 177.22265625 C1431.24909493 181.67297515 1426.92537376 186.16277196 1422.81445312 190.96289062 C1418.26202359 196.07396059 1413.25675326 200.77692963 1408.3828125 205.578125 C1404.63458062 209.29217847 1400.93586363 212.99283352 1397.5 217 C1392.47574519 222.85966955 1386.87758088 228.16536808 1381.3828125 233.578125 C1377.63458062 237.29217847 1373.93586363 240.99283352 1370.5 245 C1365.47574519 250.85966955 1359.87758088 256.16536808 1354.3828125 261.578125 C1350.63458062 265.29217847 1346.93586363 268.99283352 1343.5 273 C1338.47574519 278.85966955 1332.87758088 284.16536808 1327.3828125 289.578125 C1323.63458062 293.29217847 1319.93586363 296.99283352 1316.5 301 C1311.47574519 306.85966955 1305.87758088 312.16536808 1300.3828125 317.578125 C1296.63458062 321.29217847 1292.93586363 324.99283352 1289.5 329 C1284.47574519 334.85966955 1278.87758088 340.16536808 1273.3828125 345.578125 C1269.63458062 349.29217847 1265.93586363 352.99283352 1262.5 357 C1257.47574519 362.85966955 1251.87758088 368.16536808 1246.3828125 373.578125 C1242.63458062 377.29217847 1238.93586363 380.99283352 1235.5 385 C1230.47574519 390.85966955 1224.87758088 396.16536808 1219.3828125 401.578125 C1215.64500043 405.28185368 1211.9552513 408.97071306 1208.53125 412.96875 C1203.30115149 419.06849018 1197.45584983 424.58595852 1191.73828125 430.22265625 C1187.24909493 434.67297515 1182.92537376 439.16277196 1178.81445312 443.96289062 C1174.26202359 449.07396059 1169.25675326 453.77692963 1164.3828125 458.578125 C1160.63458062 462.29217847 1156.93586363 465.99283352 1153.5 470 C1148.47574519 475.85966955 1142.87758088 481.16536808 1137.3828125 486.578125 C1132.99770399 490.92324772 1128.78402291 495.31883392 1124.76513672 500.00341797 C1121.36408126 503.85042095 1117.70127428 507.4421499 1114.0625 511.0625 C1113.30259766 511.82626953 1112.54269531 512.59003906 1111.75976562 513.37695312 C1107.55116639 517.57836432 1103.25589814 521.6125321 1098.7487793 525.49194336 C1096.57888876 527.36314451 1094.47969893 529.30602353 1092.375 531.25 C1086.7174035 536.35310006 1080.75419829 541.01408627 1074.72314453 545.66210938 C1073.15600887 546.87887099 1071.60626487 548.11794956 1070.05859375 549.359375 C988.16058711 614.354331 883.25870048 643.36030462 756.875 638.1875 C751.24130894 637.51972422 745.6207811 636.76780065 740 636 C738.2280612 635.7809557 736.45595832 635.56322845 734.68359375 635.34765625 C657.2122523 625.22627852 581.3152947 587.9895189 522 538 C521.47760742 537.56252441 520.95521484 537.12504883 520.41699219 536.67431641 C507.92732079 526.19828591 496.05379105 515.12224721 484.5 503.625 C483.85369629 502.98336914 483.20739258 502.34173828 482.54150391 501.68066406 C479.47339169 498.60222151 476.51630884 495.47996448 473.6875 492.1796875 C469.22948502 487.01836926 464.35402187 482.28536527 459.5 477.5 C454.07925237 472.1559249 448.76647975 466.81934589 443.81445312 461.03710938 C440.07335193 456.83692794 436.00549456 452.94571106 432 449 C426.74992084 443.82828024 421.62928228 438.6496079 416.83203125 433.0546875 C413.08310793 428.8501381 409.0115541 424.95168016 405 421 C399.74992084 415.82828024 394.62928228 410.6496079 389.83203125 405.0546875 C386.08310793 400.8501381 382.0115541 396.95168016 378 393 C368.37089205 383.51461008 368.37089205 383.51461008 364.53125 379.03125 C360.13857072 373.90817206 355.30278441 369.23485253 350.5 364.5 C345.07925237 359.1559249 339.76647975 353.81934589 334.81445312 348.03710938 C331.07335193 343.83692794 327.00549456 339.94571106 323 336 C317.74992084 330.82828024 312.62928228 325.6496079 307.83203125 320.0546875 C304.08310793 315.8501381 300.0115541 311.95168016 296 308 C290.74992084 302.82828024 285.62928228 297.6496079 280.83203125 292.0546875 C277.08310793 287.8501381 273.0115541 283.95168016 269 280 C259.37089205 270.51461008 259.37089205 270.51461008 255.53125 266.03125 C251.13857072 260.90817206 246.30278441 256.23485253 241.5 251.5 C236.07925237 246.1559249 230.76647975 240.81934589 225.81445312 235.03710938 C222.07335193 230.83692794 218.00549456 226.94571106 214 223 C208.74992084 217.82828024 203.62928228 212.6496079 198.83203125 207.0546875 C195.08310793 202.8501381 191.0115541 198.95168016 187 195 C177.37089205 185.51461008 177.37089205 185.51461008 173.53125 181.03125 C169.13857072 175.90817206 164.30278441 171.23485253 159.5 166.5 C154.07925237 161.1559249 148.76647975 155.81934589 143.81445312 150.03710938 C140.07335193 145.83692794 136.00549456 141.94571106 132 138 C126.74992084 132.82828024 121.62928228 127.6496079 116.83203125 122.0546875 C113.08310793 117.8501381 109.0115541 113.95168016 105 110 C99.74992084 104.82828024 94.62928228 99.6496079 89.83203125 94.0546875 C86.08310793 89.8501381 82.0115541 85.95168016 78 82 C68.37089205 72.51461008 68.37089205 72.51461008 64.53125 68.03125 C60.13857072 62.90817206 55.30278441 58.23485253 50.5 53.5 C45.07925237 48.1559249 39.76647975 42.81934589 34.81445312 37.03710938 C31.07335193 32.83692794 27.00549456 28.94571106 23 25 C17.09359762 19.18175288 11.36307389 13.32415571 6 7 C4.96373385 5.78951429 3.92690553 4.57950972 2.88964844 3.36987305 C2.34870544 2.73897263 1.80776245 2.1080722 1.25042725 1.45805359 C0.83778625 0.9768959 0.42514526 0.49573822 0 0 Z " fill="#000000" transform="translate(447,550)"/>
</svg>
